<mxfile host="app.diagrams.net" modified="2021-10-05T08:11:18.428Z" agent="5.0 (Windows NT 10.0; Win64; x64) AppleWebKit/537.36 (KHTML, like Gecko) Chrome/94.0.4606.61 Safari/537.36" etag="l6larLLTtidPs4w5uUHR" version="15.4.1" type="github" pages="23">
  <diagram id="KUj-8JV4BBdcBEHbejLZ" name="单例模式">
    <mxGraphModel dx="1422" dy="706" grid="1" gridSize="10" guides="1" tooltips="1" connect="1" arrows="1" fold="1" page="1" pageScale="1" pageWidth="827" pageHeight="1169" math="0" shadow="0">
      <root>
        <mxCell id="0" />
        <mxCell id="1" parent="0" />
        <mxCell id="QEkKOnL7fykci_qELsTB-13" value="" style="group;align=center;fontStyle=1" parent="1" vertex="1" connectable="0">
          <mxGeometry x="80" y="550" width="600" height="460" as="geometry" />
        </mxCell>
        <mxCell id="QEkKOnL7fykci_qELsTB-1" value="" style="rounded=0;whiteSpace=wrap;html=1;" parent="QEkKOnL7fykci_qELsTB-13" vertex="1">
          <mxGeometry width="600" height="460" as="geometry" />
        </mxCell>
        <mxCell id="QEkKOnL7fykci_qELsTB-2" value="" style="rounded=0;whiteSpace=wrap;html=1;" parent="QEkKOnL7fykci_qELsTB-13" vertex="1">
          <mxGeometry y="80" width="600" height="380" as="geometry" />
        </mxCell>
        <mxCell id="QEkKOnL7fykci_qELsTB-3" value="模式名称" style="rounded=0;whiteSpace=wrap;html=1;" parent="QEkKOnL7fykci_qELsTB-13" vertex="1">
          <mxGeometry width="150" height="80" as="geometry" />
        </mxCell>
        <mxCell id="QEkKOnL7fykci_qELsTB-6" value="单例模式" style="rounded=0;whiteSpace=wrap;html=1;" parent="QEkKOnL7fykci_qELsTB-13" vertex="1">
          <mxGeometry x="150" width="240" height="40" as="geometry" />
        </mxCell>
        <mxCell id="QEkKOnL7fykci_qELsTB-9" value="Singleton Pattern" style="rounded=0;whiteSpace=wrap;html=1;" parent="QEkKOnL7fykci_qELsTB-13" vertex="1">
          <mxGeometry x="150" y="40" width="240" height="40" as="geometry" />
        </mxCell>
        <mxCell id="QEkKOnL7fykci_qELsTB-10" value="类型" style="rounded=0;whiteSpace=wrap;html=1;" parent="QEkKOnL7fykci_qELsTB-13" vertex="1">
          <mxGeometry x="390" width="90" height="80" as="geometry" />
        </mxCell>
        <mxCell id="QEkKOnL7fykci_qELsTB-11" value="1" style="rounded=0;whiteSpace=wrap;html=1;" parent="QEkKOnL7fykci_qELsTB-13" vertex="1">
          <mxGeometry x="15" y="90" width="35" height="30" as="geometry" />
        </mxCell>
        <mxCell id="QEkKOnL7fykci_qELsTB-12" value="描述：确保某一个类只有一个实例，而且自实例化并向这个系统提供这个实例。" style="text;html=1;strokeColor=none;fillColor=none;align=left;verticalAlign=middle;whiteSpace=wrap;rounded=0;" parent="QEkKOnL7fykci_qELsTB-13" vertex="1">
          <mxGeometry x="30" y="400" width="540" height="30" as="geometry" />
        </mxCell>
        <mxCell id="gLnL-U_rW0OkydqPLSlg-3" value="创造类" style="rounded=0;whiteSpace=wrap;html=1;align=center;" parent="QEkKOnL7fykci_qELsTB-13" vertex="1">
          <mxGeometry x="480" width="120" height="80" as="geometry" />
        </mxCell>
        <mxCell id="gLnL-U_rW0OkydqPLSlg-4" value="&lt;p style=&quot;margin: 0px ; margin-top: 4px ; text-align: center&quot;&gt;&lt;b&gt;Singleton&lt;/b&gt;&lt;/p&gt;&lt;hr size=&quot;1&quot;&gt;&lt;div style=&quot;height: 2px&quot;&gt;&lt;/div&gt;&lt;hr size=&quot;1&quot;&gt;&lt;div style=&quot;height: 2px&quot;&gt;&lt;/div&gt;" style="verticalAlign=top;align=left;overflow=fill;fontSize=12;fontFamily=Helvetica;html=1;fillColor=#d5e8d4;strokeColor=#82b366;" parent="QEkKOnL7fykci_qELsTB-13" vertex="1">
          <mxGeometry x="180" y="190" width="210" height="110" as="geometry" />
        </mxCell>
        <mxCell id="gLnL-U_rW0OkydqPLSlg-5" value="+Instance(): Singleton" style="text;html=1;strokeColor=none;fillColor=none;align=center;verticalAlign=middle;whiteSpace=wrap;rounded=0;" parent="QEkKOnL7fykci_qELsTB-13" vertex="1">
          <mxGeometry x="195" y="250" width="180" height="30" as="geometry" />
        </mxCell>
        <mxCell id="gLnL-U_rW0OkydqPLSlg-7" style="edgeStyle=orthogonalEdgeStyle;rounded=0;orthogonalLoop=1;jettySize=auto;html=1;exitX=0.5;exitY=0;exitDx=0;exitDy=0;entryX=1;entryY=0.5;entryDx=0;entryDy=0;" parent="QEkKOnL7fykci_qELsTB-13" source="gLnL-U_rW0OkydqPLSlg-4" target="gLnL-U_rW0OkydqPLSlg-4" edge="1">
          <mxGeometry relative="1" as="geometry">
            <Array as="points">
              <mxPoint x="285" y="170" />
              <mxPoint x="440" y="170" />
              <mxPoint x="440" y="245" />
            </Array>
          </mxGeometry>
        </mxCell>
        <mxCell id="gLnL-U_rW0OkydqPLSlg-8" value="-instance" style="text;html=1;strokeColor=none;fillColor=none;align=center;verticalAlign=middle;whiteSpace=wrap;rounded=0;" parent="QEkKOnL7fykci_qELsTB-13" vertex="1">
          <mxGeometry x="390" y="240" width="60" height="30" as="geometry" />
        </mxCell>
      </root>
    </mxGraphModel>
  </diagram>
  <diagram id="0D9NrWTdbolHCFu4WO6_" name="工厂方法模式">
    <mxGraphModel dx="1422" dy="762" grid="1" gridSize="10" guides="1" tooltips="1" connect="1" arrows="1" fold="1" page="1" pageScale="1" pageWidth="827" pageHeight="1169" math="0" shadow="0">
      <root>
        <mxCell id="8Ypj8nGuHwK3Sx3MtZGX-0" />
        <mxCell id="8Ypj8nGuHwK3Sx3MtZGX-1" parent="8Ypj8nGuHwK3Sx3MtZGX-0" />
        <mxCell id="vqwHpXrdpq9biAxpzxTO-0" value="" style="group" vertex="1" connectable="0" parent="8Ypj8nGuHwK3Sx3MtZGX-1">
          <mxGeometry x="150" y="440" width="600" height="460" as="geometry" />
        </mxCell>
        <mxCell id="vqwHpXrdpq9biAxpzxTO-2" value="" style="rounded=0;whiteSpace=wrap;html=1;" vertex="1" parent="vqwHpXrdpq9biAxpzxTO-0">
          <mxGeometry y="80" width="600" height="380" as="geometry" />
        </mxCell>
        <mxCell id="vqwHpXrdpq9biAxpzxTO-1" value="" style="rounded=0;whiteSpace=wrap;html=1;" vertex="1" parent="vqwHpXrdpq9biAxpzxTO-0">
          <mxGeometry width="600" height="460" as="geometry" />
        </mxCell>
        <mxCell id="vqwHpXrdpq9biAxpzxTO-3" value="模式名称" style="rounded=0;whiteSpace=wrap;html=1;" vertex="1" parent="vqwHpXrdpq9biAxpzxTO-0">
          <mxGeometry width="150" height="80" as="geometry" />
        </mxCell>
        <mxCell id="vqwHpXrdpq9biAxpzxTO-4" value="工厂方法模式" style="rounded=0;whiteSpace=wrap;html=1;" vertex="1" parent="vqwHpXrdpq9biAxpzxTO-0">
          <mxGeometry x="150" width="240" height="40" as="geometry" />
        </mxCell>
        <mxCell id="vqwHpXrdpq9biAxpzxTO-5" value="Factory Method Pattern" style="rounded=0;whiteSpace=wrap;html=1;" vertex="1" parent="vqwHpXrdpq9biAxpzxTO-0">
          <mxGeometry x="150" y="40" width="240" height="40" as="geometry" />
        </mxCell>
        <mxCell id="vqwHpXrdpq9biAxpzxTO-6" value="类型" style="rounded=0;whiteSpace=wrap;html=1;" vertex="1" parent="vqwHpXrdpq9biAxpzxTO-0">
          <mxGeometry x="390" width="90" height="80" as="geometry" />
        </mxCell>
        <mxCell id="vqwHpXrdpq9biAxpzxTO-7" value="2" style="rounded=0;whiteSpace=wrap;html=1;" vertex="1" parent="vqwHpXrdpq9biAxpzxTO-0">
          <mxGeometry x="15" y="90" width="35" height="30" as="geometry" />
        </mxCell>
        <mxCell id="vqwHpXrdpq9biAxpzxTO-8" value="描述：定义一个用于创建对象的接口，让子类决定实例化哪一个类。工厂方法使一个类的实例化延迟到其子类。" style="text;html=1;strokeColor=none;fillColor=none;align=left;verticalAlign=middle;whiteSpace=wrap;rounded=0;" vertex="1" parent="vqwHpXrdpq9biAxpzxTO-0">
          <mxGeometry x="30" y="400" width="540" height="30" as="geometry" />
        </mxCell>
        <mxCell id="m8QewkSfG46SXfy516pZ-0" value="创造类" style="rounded=0;whiteSpace=wrap;html=1;align=center;" vertex="1" parent="vqwHpXrdpq9biAxpzxTO-0">
          <mxGeometry x="480" width="120" height="80" as="geometry" />
        </mxCell>
        <mxCell id="m8QewkSfG46SXfy516pZ-1" value="&lt;p style=&quot;margin: 0px ; margin-top: 4px ; text-align: center&quot;&gt;&lt;b&gt;Creator&lt;/b&gt;&lt;/p&gt;&lt;hr size=&quot;1&quot;&gt;&lt;div style=&quot;height: 2px&quot;&gt;&lt;/div&gt;&lt;hr size=&quot;1&quot;&gt;&lt;div style=&quot;height: 2px&quot;&gt;+ FactoryMethod()&lt;/div&gt;" style="verticalAlign=top;align=left;overflow=fill;fontSize=12;fontFamily=Helvetica;html=1;fillColor=#d5e8d4;strokeColor=#82b366;" vertex="1" parent="vqwHpXrdpq9biAxpzxTO-0">
          <mxGeometry x="120" y="127" width="140" height="60" as="geometry" />
        </mxCell>
        <mxCell id="m8QewkSfG46SXfy516pZ-2" value="&lt;p style=&quot;margin: 0px ; margin-top: 4px ; text-align: center&quot;&gt;&lt;b&gt;ConcreteCreator&lt;/b&gt;&lt;/p&gt;&lt;hr size=&quot;1&quot;&gt;&lt;div style=&quot;height: 2px&quot;&gt;&lt;/div&gt;&lt;hr size=&quot;1&quot;&gt;&lt;div style=&quot;height: 2px&quot;&gt;&lt;/div&gt;" style="verticalAlign=top;align=left;overflow=fill;fontSize=12;fontFamily=Helvetica;html=1;fillColor=#d5e8d4;strokeColor=#82b366;" vertex="1" parent="vqwHpXrdpq9biAxpzxTO-0">
          <mxGeometry x="120" y="260" width="140" height="60" as="geometry" />
        </mxCell>
        <mxCell id="m8QewkSfG46SXfy516pZ-3" value="&lt;p style=&quot;margin: 0px ; margin-top: 4px ; text-align: center&quot;&gt;&lt;b&gt;Product&lt;/b&gt;&lt;/p&gt;&lt;hr size=&quot;1&quot;&gt;&lt;div style=&quot;height: 2px&quot;&gt;&lt;/div&gt;&lt;hr size=&quot;1&quot;&gt;&lt;div style=&quot;height: 2px&quot;&gt;&lt;/div&gt;" style="verticalAlign=top;align=left;overflow=fill;fontSize=12;fontFamily=Helvetica;html=1;fillColor=#d5e8d4;strokeColor=#82b366;" vertex="1" parent="vqwHpXrdpq9biAxpzxTO-0">
          <mxGeometry x="330" y="127" width="140" height="60" as="geometry" />
        </mxCell>
        <mxCell id="m8QewkSfG46SXfy516pZ-4" value="&lt;p style=&quot;margin: 0px ; margin-top: 4px ; text-align: center&quot;&gt;&lt;b&gt;ConcreteProduct&lt;/b&gt;&lt;/p&gt;&lt;hr size=&quot;1&quot;&gt;&lt;div style=&quot;height: 2px&quot;&gt;&lt;/div&gt;&lt;hr size=&quot;1&quot;&gt;&lt;div style=&quot;height: 2px&quot;&gt;&lt;/div&gt;" style="verticalAlign=top;align=left;overflow=fill;fontSize=12;fontFamily=Helvetica;html=1;fillColor=#d5e8d4;strokeColor=#82b366;" vertex="1" parent="vqwHpXrdpq9biAxpzxTO-0">
          <mxGeometry x="330" y="260" width="140" height="60" as="geometry" />
        </mxCell>
        <mxCell id="m8QewkSfG46SXfy516pZ-5" value="Use" style="endArrow=open;endSize=12;dashed=1;html=1;rounded=0;edgeStyle=orthogonalEdgeStyle;exitX=1;exitY=0.5;exitDx=0;exitDy=0;fillColor=#d5e8d4;strokeColor=#82b366;" edge="1" parent="vqwHpXrdpq9biAxpzxTO-0" source="m8QewkSfG46SXfy516pZ-2">
          <mxGeometry width="160" relative="1" as="geometry">
            <mxPoint x="270" y="300" as="sourcePoint" />
            <mxPoint x="330" y="290" as="targetPoint" />
          </mxGeometry>
        </mxCell>
        <mxCell id="m8QewkSfG46SXfy516pZ-6" value="Extends" style="endArrow=block;endSize=16;endFill=0;html=1;rounded=0;edgeStyle=orthogonalEdgeStyle;exitX=0.5;exitY=0;exitDx=0;exitDy=0;entryX=0.5;entryY=1;entryDx=0;entryDy=0;fillColor=#d5e8d4;strokeColor=#82b366;" edge="1" parent="vqwHpXrdpq9biAxpzxTO-0" source="m8QewkSfG46SXfy516pZ-2" target="m8QewkSfG46SXfy516pZ-1">
          <mxGeometry width="160" relative="1" as="geometry">
            <mxPoint x="130" y="150" as="sourcePoint" />
            <mxPoint x="290" y="150" as="targetPoint" />
          </mxGeometry>
        </mxCell>
        <mxCell id="m8QewkSfG46SXfy516pZ-8" value="Extends" style="endArrow=block;endSize=16;endFill=0;html=1;rounded=0;edgeStyle=orthogonalEdgeStyle;exitX=0.5;exitY=0;exitDx=0;exitDy=0;entryX=0.5;entryY=1;entryDx=0;entryDy=0;fillColor=#d5e8d4;strokeColor=#82b366;" edge="1" parent="vqwHpXrdpq9biAxpzxTO-0" source="m8QewkSfG46SXfy516pZ-4" target="m8QewkSfG46SXfy516pZ-3">
          <mxGeometry width="160" relative="1" as="geometry">
            <mxPoint x="130" y="150" as="sourcePoint" />
            <mxPoint x="290" y="150" as="targetPoint" />
          </mxGeometry>
        </mxCell>
      </root>
    </mxGraphModel>
  </diagram>
  <diagram id="rMSGcBJkxa-KT1FthJOu" name="抽象工厂模式">
    <mxGraphModel dx="677" dy="363" grid="1" gridSize="10" guides="1" tooltips="1" connect="1" arrows="1" fold="1" page="1" pageScale="1" pageWidth="827" pageHeight="1169" math="0" shadow="0">
      <root>
        <mxCell id="X_VdHOHQS5EwxJFuRypy-0" />
        <mxCell id="X_VdHOHQS5EwxJFuRypy-1" parent="X_VdHOHQS5EwxJFuRypy-0" />
        <mxCell id="XczIMr_jn6H_d6aXLEh5-0" value="" style="group" vertex="1" connectable="0" parent="X_VdHOHQS5EwxJFuRypy-1">
          <mxGeometry x="81" y="550" width="600" height="460" as="geometry" />
        </mxCell>
        <mxCell id="XczIMr_jn6H_d6aXLEh5-1" value="" style="rounded=0;whiteSpace=wrap;html=1;" vertex="1" parent="XczIMr_jn6H_d6aXLEh5-0">
          <mxGeometry width="600" height="460" as="geometry" />
        </mxCell>
        <mxCell id="XczIMr_jn6H_d6aXLEh5-2" value="" style="rounded=0;whiteSpace=wrap;html=1;" vertex="1" parent="XczIMr_jn6H_d6aXLEh5-0">
          <mxGeometry y="80" width="600" height="380" as="geometry" />
        </mxCell>
        <mxCell id="XczIMr_jn6H_d6aXLEh5-3" value="模式名称" style="rounded=0;whiteSpace=wrap;html=1;" vertex="1" parent="XczIMr_jn6H_d6aXLEh5-0">
          <mxGeometry width="150" height="80" as="geometry" />
        </mxCell>
        <mxCell id="XczIMr_jn6H_d6aXLEh5-4" value="抽象工厂模式" style="rounded=0;whiteSpace=wrap;html=1;" vertex="1" parent="XczIMr_jn6H_d6aXLEh5-0">
          <mxGeometry x="150" width="240" height="40" as="geometry" />
        </mxCell>
        <mxCell id="XczIMr_jn6H_d6aXLEh5-5" value="Abstract Factory Pattern" style="rounded=0;whiteSpace=wrap;html=1;" vertex="1" parent="XczIMr_jn6H_d6aXLEh5-0">
          <mxGeometry x="150" y="40" width="240" height="40" as="geometry" />
        </mxCell>
        <mxCell id="XczIMr_jn6H_d6aXLEh5-6" value="类型" style="rounded=0;whiteSpace=wrap;html=1;" vertex="1" parent="XczIMr_jn6H_d6aXLEh5-0">
          <mxGeometry x="390" width="90" height="80" as="geometry" />
        </mxCell>
        <mxCell id="XczIMr_jn6H_d6aXLEh5-7" value="3" style="rounded=0;whiteSpace=wrap;html=1;" vertex="1" parent="XczIMr_jn6H_d6aXLEh5-0">
          <mxGeometry x="15" y="90" width="35" height="30" as="geometry" />
        </mxCell>
        <mxCell id="XczIMr_jn6H_d6aXLEh5-8" value="描述：为创建一组相关或者相互依赖的对象提供一个接口，而且无需指定他们具体的类。" style="text;html=1;strokeColor=none;fillColor=none;align=left;verticalAlign=middle;whiteSpace=wrap;rounded=0;" vertex="1" parent="XczIMr_jn6H_d6aXLEh5-0">
          <mxGeometry x="30" y="400" width="540" height="30" as="geometry" />
        </mxCell>
        <mxCell id="CDVz8i31n6F0hqY--DVc-0" value="创造类" style="rounded=0;whiteSpace=wrap;html=1;align=center;" vertex="1" parent="XczIMr_jn6H_d6aXLEh5-0">
          <mxGeometry x="480" width="120" height="80" as="geometry" />
        </mxCell>
        <mxCell id="CDVz8i31n6F0hqY--DVc-1" value="&lt;p style=&quot;margin: 0px ; margin-top: 4px ; text-align: center&quot;&gt;&lt;b&gt;Client&lt;/b&gt;&lt;/p&gt;&lt;hr size=&quot;1&quot;&gt;&lt;div style=&quot;height: 2px&quot;&gt;&lt;/div&gt;&lt;hr size=&quot;1&quot;&gt;&lt;div style=&quot;height: 2px&quot;&gt;&lt;/div&gt;" style="verticalAlign=top;align=left;overflow=fill;fontSize=12;fontFamily=Helvetica;html=1;fillColor=#d5e8d4;strokeColor=#82b366;" vertex="1" parent="XczIMr_jn6H_d6aXLEh5-0">
          <mxGeometry x="230" y="100" width="140" height="60" as="geometry" />
        </mxCell>
        <mxCell id="CDVz8i31n6F0hqY--DVc-2" value="&lt;p style=&quot;margin: 0px ; margin-top: 4px ; text-align: center&quot;&gt;&lt;b&gt;AbstractFactory&lt;/b&gt;&lt;/p&gt;&lt;hr size=&quot;1&quot;&gt;&lt;div style=&quot;height: 2px&quot;&gt;&lt;/div&gt;&lt;hr size=&quot;1&quot;&gt;&lt;div style=&quot;height: 2px&quot;&gt;+CreateProduct()&lt;/div&gt;" style="verticalAlign=top;align=left;overflow=fill;fontSize=12;fontFamily=Helvetica;html=1;fillColor=#d5e8d4;strokeColor=#82b366;" vertex="1" parent="XczIMr_jn6H_d6aXLEh5-0">
          <mxGeometry x="119" y="211" width="140" height="60" as="geometry" />
        </mxCell>
        <mxCell id="CDVz8i31n6F0hqY--DVc-3" value="&lt;p style=&quot;margin: 0px ; margin-top: 4px ; text-align: center&quot;&gt;&lt;b&gt;ConcreteFactory&lt;/b&gt;&lt;/p&gt;&lt;hr size=&quot;1&quot;&gt;&lt;div style=&quot;height: 2px&quot;&gt;&lt;/div&gt;&lt;hr size=&quot;1&quot;&gt;&lt;div style=&quot;height: 2px&quot;&gt;&lt;/div&gt;" style="verticalAlign=top;align=left;overflow=fill;fontSize=12;fontFamily=Helvetica;html=1;fillColor=#d5e8d4;strokeColor=#82b366;" vertex="1" parent="XczIMr_jn6H_d6aXLEh5-0">
          <mxGeometry x="119.5" y="330" width="140" height="60" as="geometry" />
        </mxCell>
        <mxCell id="CDVz8i31n6F0hqY--DVc-4" value="&lt;p style=&quot;margin: 0px ; margin-top: 4px ; text-align: center&quot;&gt;&lt;b&gt;AbstractProduct&lt;/b&gt;&lt;/p&gt;&lt;hr size=&quot;1&quot;&gt;&lt;div style=&quot;height: 2px&quot;&gt;&lt;/div&gt;&lt;hr size=&quot;1&quot;&gt;&lt;div style=&quot;height: 2px&quot;&gt;&lt;/div&gt;" style="verticalAlign=top;align=left;overflow=fill;fontSize=12;fontFamily=Helvetica;html=1;fillColor=#d5e8d4;strokeColor=#82b366;" vertex="1" parent="XczIMr_jn6H_d6aXLEh5-0">
          <mxGeometry x="340" y="210" width="140" height="60" as="geometry" />
        </mxCell>
        <mxCell id="CDVz8i31n6F0hqY--DVc-5" value="&lt;p style=&quot;margin: 0px ; margin-top: 4px ; text-align: center&quot;&gt;&lt;b&gt;ConcreteProduct&lt;/b&gt;&lt;/p&gt;&lt;hr size=&quot;1&quot;&gt;&lt;div style=&quot;height: 2px&quot;&gt;&lt;/div&gt;&lt;hr size=&quot;1&quot;&gt;&lt;div style=&quot;height: 2px&quot;&gt;&lt;/div&gt;" style="verticalAlign=top;align=left;overflow=fill;fontSize=12;fontFamily=Helvetica;html=1;fillColor=#d5e8d4;strokeColor=#82b366;" vertex="1" parent="XczIMr_jn6H_d6aXLEh5-0">
          <mxGeometry x="340.5" y="330" width="140" height="60" as="geometry" />
        </mxCell>
        <mxCell id="CDVz8i31n6F0hqY--DVc-6" value="" style="endArrow=open;endFill=1;endSize=12;html=1;rounded=0;edgeStyle=orthogonalEdgeStyle;exitX=0.5;exitY=1;exitDx=0;exitDy=0;" edge="1" parent="XczIMr_jn6H_d6aXLEh5-0" source="CDVz8i31n6F0hqY--DVc-1" target="CDVz8i31n6F0hqY--DVc-2">
          <mxGeometry width="160" relative="1" as="geometry">
            <mxPoint x="129" y="170" as="sourcePoint" />
            <mxPoint x="289" y="170" as="targetPoint" />
            <Array as="points">
              <mxPoint x="300" y="180" />
              <mxPoint x="189" y="180" />
            </Array>
          </mxGeometry>
        </mxCell>
        <mxCell id="CDVz8i31n6F0hqY--DVc-7" value="" style="endArrow=open;endFill=1;endSize=12;html=1;rounded=0;edgeStyle=orthogonalEdgeStyle;exitX=0.5;exitY=1;exitDx=0;exitDy=0;" edge="1" parent="XczIMr_jn6H_d6aXLEh5-0" source="CDVz8i31n6F0hqY--DVc-1" target="CDVz8i31n6F0hqY--DVc-4">
          <mxGeometry width="160" relative="1" as="geometry">
            <mxPoint x="129" y="170" as="sourcePoint" />
            <mxPoint x="289" y="170" as="targetPoint" />
            <Array as="points">
              <mxPoint x="300" y="180" />
              <mxPoint x="410" y="180" />
            </Array>
          </mxGeometry>
        </mxCell>
        <mxCell id="CDVz8i31n6F0hqY--DVc-9" value="Extends" style="endArrow=block;endSize=16;endFill=0;html=1;rounded=0;edgeStyle=orthogonalEdgeStyle;exitX=0.5;exitY=0;exitDx=0;exitDy=0;" edge="1" parent="XczIMr_jn6H_d6aXLEh5-0" source="CDVz8i31n6F0hqY--DVc-5" target="CDVz8i31n6F0hqY--DVc-4">
          <mxGeometry width="160" relative="1" as="geometry">
            <mxPoint x="266" y="320" as="sourcePoint" />
            <mxPoint x="266" y="270" as="targetPoint" />
          </mxGeometry>
        </mxCell>
        <mxCell id="CDVz8i31n6F0hqY--DVc-8" value="Extends" style="endArrow=block;endSize=16;endFill=0;html=1;rounded=0;edgeStyle=orthogonalEdgeStyle;exitX=0.5;exitY=0;exitDx=0;exitDy=0;" edge="1" parent="X_VdHOHQS5EwxJFuRypy-1" source="CDVz8i31n6F0hqY--DVc-3">
          <mxGeometry width="160" relative="1" as="geometry">
            <mxPoint x="210" y="720" as="sourcePoint" />
            <mxPoint x="270" y="820" as="targetPoint" />
          </mxGeometry>
        </mxCell>
      </root>
    </mxGraphModel>
  </diagram>
  <diagram id="pF3c7P2tSTY_bBBKPoJ8" name="建造者模式">
    <mxGraphModel dx="1422" dy="762" grid="1" gridSize="10" guides="1" tooltips="1" connect="1" arrows="1" fold="1" page="1" pageScale="1" pageWidth="827" pageHeight="1169" math="0" shadow="0">
      <root>
        <mxCell id="htSKkh2z3Ur9L6LxrQX_-0" />
        <mxCell id="htSKkh2z3Ur9L6LxrQX_-1" parent="htSKkh2z3Ur9L6LxrQX_-0" />
        <mxCell id="1Rok1fpz9CynCgpwre_z-0" value="" style="group" vertex="1" connectable="0" parent="htSKkh2z3Ur9L6LxrQX_-1">
          <mxGeometry x="120" y="520" width="600" height="460" as="geometry" />
        </mxCell>
        <mxCell id="1Rok1fpz9CynCgpwre_z-1" value="" style="rounded=0;whiteSpace=wrap;html=1;" vertex="1" parent="1Rok1fpz9CynCgpwre_z-0">
          <mxGeometry width="600" height="460" as="geometry" />
        </mxCell>
        <mxCell id="1Rok1fpz9CynCgpwre_z-2" value="" style="rounded=0;whiteSpace=wrap;html=1;" vertex="1" parent="1Rok1fpz9CynCgpwre_z-0">
          <mxGeometry y="80" width="600" height="380" as="geometry" />
        </mxCell>
        <mxCell id="1Rok1fpz9CynCgpwre_z-3" value="模式名称" style="rounded=0;whiteSpace=wrap;html=1;" vertex="1" parent="1Rok1fpz9CynCgpwre_z-0">
          <mxGeometry width="150" height="80" as="geometry" />
        </mxCell>
        <mxCell id="1Rok1fpz9CynCgpwre_z-4" value="建造者模式" style="rounded=0;whiteSpace=wrap;html=1;" vertex="1" parent="1Rok1fpz9CynCgpwre_z-0">
          <mxGeometry x="150" width="240" height="40" as="geometry" />
        </mxCell>
        <mxCell id="1Rok1fpz9CynCgpwre_z-5" value="Builder Pattern" style="rounded=0;whiteSpace=wrap;html=1;" vertex="1" parent="1Rok1fpz9CynCgpwre_z-0">
          <mxGeometry x="150" y="40" width="240" height="40" as="geometry" />
        </mxCell>
        <mxCell id="1Rok1fpz9CynCgpwre_z-6" value="类型" style="rounded=0;whiteSpace=wrap;html=1;" vertex="1" parent="1Rok1fpz9CynCgpwre_z-0">
          <mxGeometry x="390" width="90" height="80" as="geometry" />
        </mxCell>
        <mxCell id="1Rok1fpz9CynCgpwre_z-7" value="4" style="rounded=0;whiteSpace=wrap;html=1;" vertex="1" parent="1Rok1fpz9CynCgpwre_z-0">
          <mxGeometry x="15" y="90" width="35" height="30" as="geometry" />
        </mxCell>
        <mxCell id="1Rok1fpz9CynCgpwre_z-8" value="描述：将一个复杂类的 【创建】 和它的 【表示】 分离，使得同样的构建过程可以创建不同的表示。" style="text;html=1;strokeColor=none;fillColor=none;align=left;verticalAlign=middle;whiteSpace=wrap;rounded=0;" vertex="1" parent="1Rok1fpz9CynCgpwre_z-0">
          <mxGeometry x="30" y="400" width="540" height="30" as="geometry" />
        </mxCell>
        <mxCell id="tMTDWfG-UjW_dJjEGYpP-0" value="创造类" style="rounded=0;whiteSpace=wrap;html=1;align=center;" vertex="1" parent="1Rok1fpz9CynCgpwre_z-0">
          <mxGeometry x="480" width="120" height="80" as="geometry" />
        </mxCell>
        <mxCell id="tMTDWfG-UjW_dJjEGYpP-1" value="&lt;p style=&quot;margin: 0px ; margin-top: 4px ; text-align: center&quot;&gt;&lt;b&gt;Director&lt;/b&gt;&lt;/p&gt;&lt;hr size=&quot;1&quot;&gt;&lt;div style=&quot;height: 2px&quot;&gt;&lt;/div&gt;&lt;hr size=&quot;1&quot;&gt;&lt;div style=&quot;height: 2px&quot;&gt;+Construct()&lt;/div&gt;" style="verticalAlign=top;align=left;overflow=fill;fontSize=12;fontFamily=Helvetica;html=1;fillColor=#d5e8d4;strokeColor=#82b366;" vertex="1" parent="1Rok1fpz9CynCgpwre_z-0">
          <mxGeometry x="30" y="160" width="140" height="60" as="geometry" />
        </mxCell>
        <mxCell id="tMTDWfG-UjW_dJjEGYpP-2" value="&lt;p style=&quot;margin: 0px ; margin-top: 4px ; text-align: center&quot;&gt;&lt;b&gt;Builder&lt;/b&gt;&lt;/p&gt;&lt;hr size=&quot;1&quot;&gt;&lt;div style=&quot;height: 2px&quot;&gt;&lt;/div&gt;&lt;hr size=&quot;1&quot;&gt;&lt;div style=&quot;height: 2px&quot;&gt;+BuildPart()&lt;/div&gt;" style="verticalAlign=top;align=left;overflow=fill;fontSize=12;fontFamily=Helvetica;html=1;fillColor=#d5e8d4;strokeColor=#82b366;" vertex="1" parent="1Rok1fpz9CynCgpwre_z-0">
          <mxGeometry x="250" y="160" width="140" height="60" as="geometry" />
        </mxCell>
        <mxCell id="tMTDWfG-UjW_dJjEGYpP-3" value="&lt;p style=&quot;margin: 0px ; margin-top: 4px ; text-align: center&quot;&gt;&lt;b&gt;ConcreteProduct&lt;/b&gt;&lt;/p&gt;&lt;hr size=&quot;1&quot;&gt;&lt;div style=&quot;height: 2px&quot;&gt;&lt;/div&gt;&lt;hr size=&quot;1&quot;&gt;&lt;div style=&quot;height: 2px&quot;&gt;&lt;/div&gt;" style="verticalAlign=top;align=left;overflow=fill;fontSize=12;fontFamily=Helvetica;html=1;fillColor=#d5e8d4;strokeColor=#82b366;" vertex="1" parent="1Rok1fpz9CynCgpwre_z-0">
          <mxGeometry x="250" y="290" width="140" height="60" as="geometry" />
        </mxCell>
        <mxCell id="tMTDWfG-UjW_dJjEGYpP-4" value="&lt;p style=&quot;margin: 0px ; margin-top: 4px ; text-align: center&quot;&gt;&lt;b&gt;Product&lt;/b&gt;&lt;/p&gt;&lt;hr size=&quot;1&quot;&gt;&lt;div style=&quot;height: 2px&quot;&gt;&lt;/div&gt;&lt;hr size=&quot;1&quot;&gt;&lt;div style=&quot;height: 2px&quot;&gt;&lt;/div&gt;" style="verticalAlign=top;align=left;overflow=fill;fontSize=12;fontFamily=Helvetica;html=1;fillColor=#d5e8d4;strokeColor=#82b366;" vertex="1" parent="1Rok1fpz9CynCgpwre_z-0">
          <mxGeometry x="440" y="290" width="140" height="60" as="geometry" />
        </mxCell>
        <mxCell id="tMTDWfG-UjW_dJjEGYpP-9" value="Extends" style="endArrow=block;endSize=16;endFill=0;html=1;rounded=0;edgeStyle=orthogonalEdgeStyle;entryX=0.5;entryY=1;entryDx=0;entryDy=0;exitX=0.5;exitY=0;exitDx=0;exitDy=0;" edge="1" parent="1Rok1fpz9CynCgpwre_z-0" source="tMTDWfG-UjW_dJjEGYpP-3" target="tMTDWfG-UjW_dJjEGYpP-2">
          <mxGeometry width="160" relative="1" as="geometry">
            <mxPoint x="90" y="300" as="sourcePoint" />
            <mxPoint x="250" y="300" as="targetPoint" />
          </mxGeometry>
        </mxCell>
        <mxCell id="tMTDWfG-UjW_dJjEGYpP-10" value="Use" style="endArrow=open;endSize=12;dashed=1;html=1;rounded=0;edgeStyle=orthogonalEdgeStyle;exitX=1;exitY=0.5;exitDx=0;exitDy=0;entryX=0;entryY=0.5;entryDx=0;entryDy=0;" edge="1" parent="1Rok1fpz9CynCgpwre_z-0" source="tMTDWfG-UjW_dJjEGYpP-3" target="tMTDWfG-UjW_dJjEGYpP-4">
          <mxGeometry width="160" relative="1" as="geometry">
            <mxPoint x="280" y="330" as="sourcePoint" />
            <mxPoint x="440" y="330" as="targetPoint" />
          </mxGeometry>
        </mxCell>
        <mxCell id="tMTDWfG-UjW_dJjEGYpP-11" value="+builder" style="text;html=1;strokeColor=none;fillColor=none;align=center;verticalAlign=middle;whiteSpace=wrap;rounded=0;" vertex="1" parent="1Rok1fpz9CynCgpwre_z-0">
          <mxGeometry x="180" y="160" width="60" height="30" as="geometry" />
        </mxCell>
        <mxCell id="tMTDWfG-UjW_dJjEGYpP-8" value="1" style="endArrow=open;html=1;endSize=12;startArrow=diamondThin;startSize=14;startFill=0;edgeStyle=orthogonalEdgeStyle;align=left;verticalAlign=bottom;rounded=0;exitX=1;exitY=0.5;exitDx=0;exitDy=0;" edge="1" parent="htSKkh2z3Ur9L6LxrQX_-1" source="tMTDWfG-UjW_dJjEGYpP-1">
          <mxGeometry x="-1" y="3" relative="1" as="geometry">
            <mxPoint x="210" y="820" as="sourcePoint" />
            <mxPoint x="370" y="710" as="targetPoint" />
          </mxGeometry>
        </mxCell>
      </root>
    </mxGraphModel>
  </diagram>
  <diagram id="9LMpOKkOhJqxa3e0XZGe" name="原型模式">
    <mxGraphModel dx="1422" dy="762" grid="1" gridSize="10" guides="1" tooltips="1" connect="1" arrows="1" fold="1" page="1" pageScale="1" pageWidth="827" pageHeight="1169" math="0" shadow="0">
      <root>
        <mxCell id="AMW-IEi1d8gasnYiJBc6-0" />
        <mxCell id="AMW-IEi1d8gasnYiJBc6-1" parent="AMW-IEi1d8gasnYiJBc6-0" />
        <mxCell id="-H17e8YEvASS0fzVbWrC-0" value="" style="group" vertex="1" connectable="0" parent="AMW-IEi1d8gasnYiJBc6-1">
          <mxGeometry x="80" y="550" width="600" height="460" as="geometry" />
        </mxCell>
        <mxCell id="-H17e8YEvASS0fzVbWrC-1" value="" style="rounded=0;whiteSpace=wrap;html=1;" vertex="1" parent="-H17e8YEvASS0fzVbWrC-0">
          <mxGeometry width="600" height="460" as="geometry" />
        </mxCell>
        <mxCell id="-H17e8YEvASS0fzVbWrC-2" value="" style="rounded=0;whiteSpace=wrap;html=1;" vertex="1" parent="-H17e8YEvASS0fzVbWrC-0">
          <mxGeometry y="80" width="600" height="380" as="geometry" />
        </mxCell>
        <mxCell id="-H17e8YEvASS0fzVbWrC-3" value="模式名称" style="rounded=0;whiteSpace=wrap;html=1;" vertex="1" parent="-H17e8YEvASS0fzVbWrC-0">
          <mxGeometry width="150" height="80" as="geometry" />
        </mxCell>
        <mxCell id="-H17e8YEvASS0fzVbWrC-4" value="原型模式" style="rounded=0;whiteSpace=wrap;html=1;" vertex="1" parent="-H17e8YEvASS0fzVbWrC-0">
          <mxGeometry x="150" width="240" height="40" as="geometry" />
        </mxCell>
        <mxCell id="-H17e8YEvASS0fzVbWrC-5" value="Prototype Pattern" style="rounded=0;whiteSpace=wrap;html=1;" vertex="1" parent="-H17e8YEvASS0fzVbWrC-0">
          <mxGeometry x="150" y="40" width="240" height="40" as="geometry" />
        </mxCell>
        <mxCell id="-H17e8YEvASS0fzVbWrC-6" value="类型" style="rounded=0;whiteSpace=wrap;html=1;" vertex="1" parent="-H17e8YEvASS0fzVbWrC-0">
          <mxGeometry x="390" width="90" height="80" as="geometry" />
        </mxCell>
        <mxCell id="-H17e8YEvASS0fzVbWrC-7" value="5" style="rounded=0;whiteSpace=wrap;html=1;" vertex="1" parent="-H17e8YEvASS0fzVbWrC-0">
          <mxGeometry x="15" y="90" width="35" height="30" as="geometry" />
        </mxCell>
        <mxCell id="-H17e8YEvASS0fzVbWrC-8" value="描述：用原型实例指定创建对象的种类，并且通过【拷贝】这些原型创建新的对象。" style="text;html=1;strokeColor=none;fillColor=none;align=left;verticalAlign=middle;whiteSpace=wrap;rounded=0;" vertex="1" parent="-H17e8YEvASS0fzVbWrC-0">
          <mxGeometry x="30" y="400" width="540" height="30" as="geometry" />
        </mxCell>
        <mxCell id="H7QwTVz9pMGjNrpU3TV5-0" value="创造类" style="rounded=0;whiteSpace=wrap;html=1;align=center;" vertex="1" parent="-H17e8YEvASS0fzVbWrC-0">
          <mxGeometry x="480" width="120" height="80" as="geometry" />
        </mxCell>
        <mxCell id="H7QwTVz9pMGjNrpU3TV5-2" value="&lt;p style=&quot;margin: 0px ; margin-top: 4px ; text-align: center&quot;&gt;&lt;b&gt;Prototype&lt;/b&gt;&lt;/p&gt;&lt;hr size=&quot;1&quot;&gt;&lt;div style=&quot;height: 2px&quot;&gt;&lt;/div&gt;&lt;hr size=&quot;1&quot;&gt;&lt;div style=&quot;height: 2px&quot;&gt;+Clone()&lt;/div&gt;" style="verticalAlign=top;align=left;overflow=fill;fontSize=12;fontFamily=Helvetica;html=1;fillColor=#d5e8d4;strokeColor=#82b366;" vertex="1" parent="-H17e8YEvASS0fzVbWrC-0">
          <mxGeometry x="365" y="140" width="140" height="60" as="geometry" />
        </mxCell>
        <mxCell id="H7QwTVz9pMGjNrpU3TV5-1" value="&lt;p style=&quot;margin: 0px ; margin-top: 4px ; text-align: center&quot;&gt;&lt;b&gt;Client&lt;/b&gt;&lt;/p&gt;&lt;hr size=&quot;1&quot;&gt;&lt;div style=&quot;height: 2px&quot;&gt;&lt;/div&gt;&lt;hr size=&quot;1&quot;&gt;&lt;div style=&quot;height: 2px&quot;&gt;&lt;/div&gt;" style="verticalAlign=top;align=left;overflow=fill;fontSize=12;fontFamily=Helvetica;html=1;fillColor=#d5e8d4;strokeColor=#82b366;" vertex="1" parent="-H17e8YEvASS0fzVbWrC-0">
          <mxGeometry x="110" y="140" width="140" height="60" as="geometry" />
        </mxCell>
        <mxCell id="H7QwTVz9pMGjNrpU3TV5-3" value="&lt;p style=&quot;margin: 0px ; margin-top: 4px ; text-align: center&quot;&gt;&lt;b&gt;ConcretePrototype&lt;/b&gt;&lt;/p&gt;&lt;hr size=&quot;1&quot;&gt;&lt;div style=&quot;height: 2px&quot;&gt;&lt;/div&gt;&lt;hr size=&quot;1&quot;&gt;&lt;div style=&quot;height: 2px&quot;&gt;&lt;/div&gt;" style="verticalAlign=top;align=left;overflow=fill;fontSize=12;fontFamily=Helvetica;html=1;fillColor=#d5e8d4;strokeColor=#82b366;" vertex="1" parent="-H17e8YEvASS0fzVbWrC-0">
          <mxGeometry x="370" y="280" width="140" height="60" as="geometry" />
        </mxCell>
        <mxCell id="H7QwTVz9pMGjNrpU3TV5-4" value="Extends" style="endArrow=block;endSize=16;endFill=0;html=1;rounded=0;edgeStyle=orthogonalEdgeStyle;exitX=0.5;exitY=0;exitDx=0;exitDy=0;entryX=0.5;entryY=1;entryDx=0;entryDy=0;" edge="1" parent="-H17e8YEvASS0fzVbWrC-0" source="H7QwTVz9pMGjNrpU3TV5-3" target="H7QwTVz9pMGjNrpU3TV5-2">
          <mxGeometry width="160" relative="1" as="geometry">
            <mxPoint x="130" y="170" as="sourcePoint" />
            <mxPoint x="290" y="170" as="targetPoint" />
          </mxGeometry>
        </mxCell>
        <mxCell id="H7QwTVz9pMGjNrpU3TV5-5" value="" style="endArrow=open;endFill=1;endSize=12;html=1;rounded=0;edgeStyle=orthogonalEdgeStyle;exitX=1;exitY=0.5;exitDx=0;exitDy=0;entryX=0;entryY=0.5;entryDx=0;entryDy=0;" edge="1" parent="-H17e8YEvASS0fzVbWrC-0" source="H7QwTVz9pMGjNrpU3TV5-1" target="H7QwTVz9pMGjNrpU3TV5-2">
          <mxGeometry width="160" relative="1" as="geometry">
            <mxPoint x="250" y="180" as="sourcePoint" />
            <mxPoint x="410" y="180" as="targetPoint" />
          </mxGeometry>
        </mxCell>
        <mxCell id="H7QwTVz9pMGjNrpU3TV5-6" value="+prototype" style="text;html=1;strokeColor=none;fillColor=none;align=center;verticalAlign=middle;whiteSpace=wrap;rounded=0;" vertex="1" parent="-H17e8YEvASS0fzVbWrC-0">
          <mxGeometry x="260" y="140" width="60" height="30" as="geometry" />
        </mxCell>
      </root>
    </mxGraphModel>
  </diagram>
  <diagram id="RORXWE1tbh0iGNlpov8J" name="代理模式">
    <mxGraphModel dx="1422" dy="762" grid="1" gridSize="10" guides="1" tooltips="1" connect="1" arrows="1" fold="1" page="1" pageScale="1" pageWidth="827" pageHeight="1169" math="0" shadow="0">
      <root>
        <mxCell id="_3KegMGpJPSmGBNkc8T5-0" />
        <mxCell id="_3KegMGpJPSmGBNkc8T5-1" parent="_3KegMGpJPSmGBNkc8T5-0" />
        <mxCell id="ufM5mT1qS3C8nKyHnEoA-0" value="" style="group" vertex="1" connectable="0" parent="_3KegMGpJPSmGBNkc8T5-1">
          <mxGeometry x="80" y="550" width="610" height="460" as="geometry" />
        </mxCell>
        <mxCell id="ufM5mT1qS3C8nKyHnEoA-1" value="" style="rounded=0;whiteSpace=wrap;html=1;" vertex="1" parent="ufM5mT1qS3C8nKyHnEoA-0">
          <mxGeometry width="600" height="460" as="geometry" />
        </mxCell>
        <mxCell id="ufM5mT1qS3C8nKyHnEoA-2" value="" style="rounded=0;whiteSpace=wrap;html=1;" vertex="1" parent="ufM5mT1qS3C8nKyHnEoA-0">
          <mxGeometry y="80" width="600" height="380" as="geometry" />
        </mxCell>
        <mxCell id="ufM5mT1qS3C8nKyHnEoA-3" value="模式名称" style="rounded=0;whiteSpace=wrap;html=1;" vertex="1" parent="ufM5mT1qS3C8nKyHnEoA-0">
          <mxGeometry width="150" height="80" as="geometry" />
        </mxCell>
        <mxCell id="ufM5mT1qS3C8nKyHnEoA-4" value="代理模式" style="rounded=0;whiteSpace=wrap;html=1;" vertex="1" parent="ufM5mT1qS3C8nKyHnEoA-0">
          <mxGeometry x="150" width="240" height="40" as="geometry" />
        </mxCell>
        <mxCell id="ufM5mT1qS3C8nKyHnEoA-5" value="Proxy pattern" style="rounded=0;whiteSpace=wrap;html=1;" vertex="1" parent="ufM5mT1qS3C8nKyHnEoA-0">
          <mxGeometry x="150" y="40" width="240" height="40" as="geometry" />
        </mxCell>
        <mxCell id="ufM5mT1qS3C8nKyHnEoA-6" value="类型" style="rounded=0;whiteSpace=wrap;html=1;" vertex="1" parent="ufM5mT1qS3C8nKyHnEoA-0">
          <mxGeometry x="390" width="90" height="80" as="geometry" />
        </mxCell>
        <mxCell id="ufM5mT1qS3C8nKyHnEoA-7" value="19" style="rounded=0;whiteSpace=wrap;html=1;" vertex="1" parent="ufM5mT1qS3C8nKyHnEoA-0">
          <mxGeometry x="15" y="90" width="35" height="30" as="geometry" />
        </mxCell>
        <mxCell id="ufM5mT1qS3C8nKyHnEoA-8" value="描述：为其他对象提供一种代理以控制对这个对象的访问。" style="text;html=1;strokeColor=none;fillColor=none;align=left;verticalAlign=middle;whiteSpace=wrap;rounded=0;" vertex="1" parent="ufM5mT1qS3C8nKyHnEoA-0">
          <mxGeometry x="30" y="400" width="540" height="30" as="geometry" />
        </mxCell>
        <mxCell id="gUk3cK8lHNZTZNEwUih6-0" value="结构类" style="rounded=0;whiteSpace=wrap;html=1;align=center;" vertex="1" parent="ufM5mT1qS3C8nKyHnEoA-0">
          <mxGeometry x="480" width="120" height="80" as="geometry" />
        </mxCell>
        <mxCell id="gUk3cK8lHNZTZNEwUih6-1" value="&lt;p style=&quot;margin: 0px ; margin-top: 4px ; text-align: center&quot;&gt;&lt;b&gt;Subject&lt;/b&gt;&lt;/p&gt;&lt;hr size=&quot;1&quot;&gt;&lt;div style=&quot;height: 2px&quot;&gt;&lt;/div&gt;&lt;hr size=&quot;1&quot;&gt;&lt;div style=&quot;height: 2px&quot;&gt;+Request()&lt;/div&gt;" style="verticalAlign=top;align=left;overflow=fill;fontSize=12;fontFamily=Helvetica;html=1;fillColor=#fff2cc;strokeColor=#d6b656;" vertex="1" parent="ufM5mT1qS3C8nKyHnEoA-0">
          <mxGeometry x="235" y="130" width="140" height="60" as="geometry" />
        </mxCell>
        <mxCell id="gUk3cK8lHNZTZNEwUih6-2" value="&lt;p style=&quot;margin: 0px ; margin-top: 4px ; text-align: center&quot;&gt;&lt;b&gt;RealSubject&lt;/b&gt;&lt;/p&gt;&lt;hr size=&quot;1&quot;&gt;&lt;div style=&quot;height: 2px&quot;&gt;&lt;/div&gt;&lt;hr size=&quot;1&quot;&gt;&lt;div style=&quot;height: 2px&quot;&gt;&lt;/div&gt;" style="verticalAlign=top;align=left;overflow=fill;fontSize=12;fontFamily=Helvetica;html=1;fillColor=#fff2cc;strokeColor=#d6b656;" vertex="1" parent="ufM5mT1qS3C8nKyHnEoA-0">
          <mxGeometry x="70" y="260" width="140" height="60" as="geometry" />
        </mxCell>
        <mxCell id="gUk3cK8lHNZTZNEwUih6-3" value="&lt;p style=&quot;margin: 0px ; margin-top: 4px ; text-align: center&quot;&gt;&lt;b&gt;Proxy&lt;/b&gt;&lt;/p&gt;&lt;hr size=&quot;1&quot;&gt;&lt;div style=&quot;height: 2px&quot;&gt;&lt;/div&gt;&lt;hr size=&quot;1&quot;&gt;&lt;div style=&quot;height: 2px&quot;&gt;&lt;/div&gt;" style="verticalAlign=top;align=left;overflow=fill;fontSize=12;fontFamily=Helvetica;html=1;fillColor=#fff2cc;strokeColor=#d6b656;" vertex="1" parent="ufM5mT1qS3C8nKyHnEoA-0">
          <mxGeometry x="400" y="260" width="140" height="60" as="geometry" />
        </mxCell>
        <mxCell id="gUk3cK8lHNZTZNEwUih6-4" value="Extends" style="endArrow=block;endSize=16;endFill=0;html=1;rounded=0;edgeStyle=orthogonalEdgeStyle;exitX=0.5;exitY=0;exitDx=0;exitDy=0;entryX=0.5;entryY=1;entryDx=0;entryDy=0;" edge="1" parent="ufM5mT1qS3C8nKyHnEoA-0" source="gUk3cK8lHNZTZNEwUih6-2" target="gUk3cK8lHNZTZNEwUih6-1">
          <mxGeometry width="160" relative="1" as="geometry">
            <mxPoint x="174" y="240" as="sourcePoint" />
            <mxPoint x="334" y="240" as="targetPoint" />
          </mxGeometry>
        </mxCell>
        <mxCell id="gUk3cK8lHNZTZNEwUih6-6" value="Extends" style="endArrow=block;endSize=16;endFill=0;html=1;rounded=0;edgeStyle=orthogonalEdgeStyle;exitX=0.5;exitY=0;exitDx=0;exitDy=0;entryX=0.5;entryY=1;entryDx=0;entryDy=0;" edge="1" parent="ufM5mT1qS3C8nKyHnEoA-0" source="gUk3cK8lHNZTZNEwUih6-3" target="gUk3cK8lHNZTZNEwUih6-1">
          <mxGeometry width="160" relative="1" as="geometry">
            <mxPoint x="430" y="220" as="sourcePoint" />
            <mxPoint x="590" y="220" as="targetPoint" />
          </mxGeometry>
        </mxCell>
        <mxCell id="gUk3cK8lHNZTZNEwUih6-7" value="" style="endArrow=open;endFill=1;endSize=12;html=1;rounded=0;edgeStyle=orthogonalEdgeStyle;entryX=1;entryY=0.5;entryDx=0;entryDy=0;" edge="1" parent="ufM5mT1qS3C8nKyHnEoA-0" source="gUk3cK8lHNZTZNEwUih6-3" target="gUk3cK8lHNZTZNEwUih6-2">
          <mxGeometry width="160" relative="1" as="geometry">
            <mxPoint x="130" y="270" as="sourcePoint" />
            <mxPoint x="290" y="270" as="targetPoint" />
          </mxGeometry>
        </mxCell>
        <mxCell id="gUk3cK8lHNZTZNEwUih6-8" value="+RealSubject" style="text;html=1;strokeColor=none;fillColor=none;align=center;verticalAlign=middle;whiteSpace=wrap;rounded=0;" vertex="1" parent="ufM5mT1qS3C8nKyHnEoA-0">
          <mxGeometry x="252.5" y="260" width="105" height="30" as="geometry" />
        </mxCell>
      </root>
    </mxGraphModel>
  </diagram>
  <diagram id="vRlEx2mhn1j_H_WPSgNf" name="模板方法模式">
    <mxGraphModel dx="1422" dy="762" grid="1" gridSize="10" guides="1" tooltips="1" connect="1" arrows="1" fold="1" page="1" pageScale="1" pageWidth="827" pageHeight="1169" math="0" shadow="0">
      <root>
        <mxCell id="x8XsHpWc72R92XBM5Ecj-0" />
        <mxCell id="x8XsHpWc72R92XBM5Ecj-1" parent="x8XsHpWc72R92XBM5Ecj-0" />
        <mxCell id="8pFs_zss5uWCyIEU-WFN-0" value="" style="group" parent="x8XsHpWc72R92XBM5Ecj-1" vertex="1" connectable="0">
          <mxGeometry x="80" y="550" width="600" height="460" as="geometry" />
        </mxCell>
        <mxCell id="8pFs_zss5uWCyIEU-WFN-1" value="" style="rounded=0;whiteSpace=wrap;html=1;" parent="8pFs_zss5uWCyIEU-WFN-0" vertex="1">
          <mxGeometry width="600" height="460" as="geometry" />
        </mxCell>
        <mxCell id="8pFs_zss5uWCyIEU-WFN-2" value="" style="rounded=0;whiteSpace=wrap;html=1;" parent="8pFs_zss5uWCyIEU-WFN-0" vertex="1">
          <mxGeometry y="80" width="600" height="380" as="geometry" />
        </mxCell>
        <mxCell id="8pFs_zss5uWCyIEU-WFN-3" value="模式名称" style="rounded=0;whiteSpace=wrap;html=1;" parent="8pFs_zss5uWCyIEU-WFN-0" vertex="1">
          <mxGeometry width="150" height="80" as="geometry" />
        </mxCell>
        <mxCell id="8pFs_zss5uWCyIEU-WFN-4" value="模板方法模式" style="rounded=0;whiteSpace=wrap;html=1;" parent="8pFs_zss5uWCyIEU-WFN-0" vertex="1">
          <mxGeometry x="150" width="240" height="40" as="geometry" />
        </mxCell>
        <mxCell id="8pFs_zss5uWCyIEU-WFN-5" value="Template Method pattern" style="rounded=0;whiteSpace=wrap;html=1;" parent="8pFs_zss5uWCyIEU-WFN-0" vertex="1">
          <mxGeometry x="150" y="40" width="240" height="40" as="geometry" />
        </mxCell>
        <mxCell id="8pFs_zss5uWCyIEU-WFN-6" value="类型" style="rounded=0;whiteSpace=wrap;html=1;" parent="8pFs_zss5uWCyIEU-WFN-0" vertex="1">
          <mxGeometry x="390" width="90" height="80" as="geometry" />
        </mxCell>
        <mxCell id="8pFs_zss5uWCyIEU-WFN-7" value="15" style="rounded=0;whiteSpace=wrap;html=1;" parent="8pFs_zss5uWCyIEU-WFN-0" vertex="1">
          <mxGeometry x="15" y="90" width="35" height="30" as="geometry" />
        </mxCell>
        <mxCell id="8pFs_zss5uWCyIEU-WFN-8" value="描述：定义一个操作中的算法的骨架，而将一些步骤延迟到子类中，使得子类不改变一个算法的结构即可以重定义该算法的某些特定步骤。" style="text;html=1;strokeColor=none;fillColor=none;align=left;verticalAlign=middle;whiteSpace=wrap;rounded=0;" parent="8pFs_zss5uWCyIEU-WFN-0" vertex="1">
          <mxGeometry x="30" y="400" width="540" height="30" as="geometry" />
        </mxCell>
        <mxCell id="kYUnRKwHKHZYcirXANLM-0" value="行为类" style="rounded=0;whiteSpace=wrap;html=1;align=center;" parent="8pFs_zss5uWCyIEU-WFN-0" vertex="1">
          <mxGeometry x="480" width="120" height="80" as="geometry" />
        </mxCell>
        <mxCell id="kYUnRKwHKHZYcirXANLM-1" value="&lt;p style=&quot;margin: 0px ; margin-top: 4px ; text-align: center&quot;&gt;&lt;b&gt;AbstractClass&lt;/b&gt;&lt;/p&gt;&lt;hr size=&quot;1&quot;&gt;&lt;div style=&quot;height: 2px&quot;&gt;&lt;/div&gt;&lt;hr size=&quot;1&quot;&gt;&lt;div style=&quot;height: 2px&quot;&gt;#doSomething()&lt;/div&gt;&lt;div style=&quot;height: 2px&quot;&gt;&lt;br&gt;&lt;/div&gt;&lt;div style=&quot;height: 2px&quot;&gt;&lt;br&gt;&lt;/div&gt;&lt;div style=&quot;height: 2px&quot;&gt;&lt;br&gt;&lt;/div&gt;&lt;div style=&quot;height: 2px&quot;&gt;&lt;br&gt;&lt;/div&gt;&lt;div style=&quot;height: 2px&quot;&gt;&lt;br&gt;&lt;/div&gt;&lt;div style=&quot;height: 2px&quot;&gt;&lt;br&gt;&lt;/div&gt;&lt;div style=&quot;height: 2px&quot;&gt;&lt;br&gt;&lt;/div&gt;&lt;div style=&quot;height: 2px&quot;&gt;&lt;br&gt;&lt;/div&gt;&lt;div style=&quot;height: 2px&quot;&gt;&lt;br&gt;&lt;/div&gt;&lt;div style=&quot;height: 2px&quot;&gt;+templateMethod()&lt;/div&gt;" style="verticalAlign=top;align=left;overflow=fill;fontSize=12;fontFamily=Helvetica;html=1;fillColor=#f8cecc;strokeColor=#b85450;" parent="8pFs_zss5uWCyIEU-WFN-0" vertex="1">
          <mxGeometry x="230" y="120" width="140" height="100" as="geometry" />
        </mxCell>
        <mxCell id="kYUnRKwHKHZYcirXANLM-2" value="&lt;p style=&quot;margin: 0px ; margin-top: 4px ; text-align: center&quot;&gt;&lt;b&gt;ConcreteClass&lt;/b&gt;&lt;/p&gt;&lt;hr size=&quot;1&quot;&gt;&lt;div style=&quot;height: 2px&quot;&gt;&lt;/div&gt;&lt;hr size=&quot;1&quot;&gt;&lt;div style=&quot;height: 2px&quot;&gt;&lt;/div&gt;" style="verticalAlign=top;align=left;overflow=fill;fontSize=12;fontFamily=Helvetica;html=1;fillColor=#f8cecc;strokeColor=#b85450;" parent="8pFs_zss5uWCyIEU-WFN-0" vertex="1">
          <mxGeometry x="230" y="290" width="140" height="60" as="geometry" />
        </mxCell>
        <mxCell id="kYUnRKwHKHZYcirXANLM-3" value="Extends" style="endArrow=block;endSize=16;endFill=0;html=1;rounded=0;edgeStyle=orthogonalEdgeStyle;entryX=0.5;entryY=1;entryDx=0;entryDy=0;" parent="8pFs_zss5uWCyIEU-WFN-0" source="kYUnRKwHKHZYcirXANLM-2" target="kYUnRKwHKHZYcirXANLM-1" edge="1">
          <mxGeometry width="160" relative="1" as="geometry">
            <mxPoint x="130" y="270" as="sourcePoint" />
            <mxPoint x="290" y="270" as="targetPoint" />
          </mxGeometry>
        </mxCell>
      </root>
    </mxGraphModel>
  </diagram>
  <diagram id="EwmW9A5465u1tY6bLPsj" name="中介者模式">
    <mxGraphModel dx="1422" dy="762" grid="1" gridSize="10" guides="1" tooltips="1" connect="1" arrows="1" fold="1" page="1" pageScale="1" pageWidth="827" pageHeight="1169" math="0" shadow="0">
      <root>
        <mxCell id="x1uNvM9atXxboS3_oB5L-0" />
        <mxCell id="x1uNvM9atXxboS3_oB5L-1" parent="x1uNvM9atXxboS3_oB5L-0" />
        <mxCell id="H7ca-fvo3pmg8A3Oh6S7-0" value="" style="group" parent="x1uNvM9atXxboS3_oB5L-1" vertex="1" connectable="0">
          <mxGeometry x="80" y="550" width="600" height="460" as="geometry" />
        </mxCell>
        <mxCell id="H7ca-fvo3pmg8A3Oh6S7-1" value="" style="rounded=0;whiteSpace=wrap;html=1;" parent="H7ca-fvo3pmg8A3Oh6S7-0" vertex="1">
          <mxGeometry width="600" height="460" as="geometry" />
        </mxCell>
        <mxCell id="H7ca-fvo3pmg8A3Oh6S7-2" value="" style="rounded=0;whiteSpace=wrap;html=1;" parent="H7ca-fvo3pmg8A3Oh6S7-0" vertex="1">
          <mxGeometry y="80" width="600" height="380" as="geometry" />
        </mxCell>
        <mxCell id="H7ca-fvo3pmg8A3Oh6S7-3" value="模式名称" style="rounded=0;whiteSpace=wrap;html=1;" parent="H7ca-fvo3pmg8A3Oh6S7-0" vertex="1">
          <mxGeometry width="150" height="80" as="geometry" />
        </mxCell>
        <mxCell id="H7ca-fvo3pmg8A3Oh6S7-4" value="中介者模式" style="rounded=0;whiteSpace=wrap;html=1;" parent="H7ca-fvo3pmg8A3Oh6S7-0" vertex="1">
          <mxGeometry x="150" width="240" height="40" as="geometry" />
        </mxCell>
        <mxCell id="H7ca-fvo3pmg8A3Oh6S7-5" value="Mediator Pattern" style="rounded=0;whiteSpace=wrap;html=1;" parent="H7ca-fvo3pmg8A3Oh6S7-0" vertex="1">
          <mxGeometry x="150" y="40" width="240" height="40" as="geometry" />
        </mxCell>
        <mxCell id="H7ca-fvo3pmg8A3Oh6S7-6" value="类型" style="rounded=0;whiteSpace=wrap;html=1;" parent="H7ca-fvo3pmg8A3Oh6S7-0" vertex="1">
          <mxGeometry x="390" width="90" height="80" as="geometry" />
        </mxCell>
        <mxCell id="H7ca-fvo3pmg8A3Oh6S7-7" value="11" style="rounded=0;whiteSpace=wrap;html=1;" parent="H7ca-fvo3pmg8A3Oh6S7-0" vertex="1">
          <mxGeometry x="15" y="90" width="35" height="30" as="geometry" />
        </mxCell>
        <mxCell id="H7ca-fvo3pmg8A3Oh6S7-8" value="描述：用一个中介对象封装一系列的对象交互，中介者使各个对象不需要显示地相互作用，从而使其耦合松散，而且可以独立改变它们之间的交互。" style="text;html=1;strokeColor=none;fillColor=none;align=left;verticalAlign=middle;whiteSpace=wrap;rounded=0;" parent="H7ca-fvo3pmg8A3Oh6S7-0" vertex="1">
          <mxGeometry x="30" y="400" width="540" height="30" as="geometry" />
        </mxCell>
        <mxCell id="8j0yyxZa9EtEhM1JBuYa-0" value="行为类" style="rounded=0;whiteSpace=wrap;html=1;" vertex="1" parent="H7ca-fvo3pmg8A3Oh6S7-0">
          <mxGeometry x="480" width="120" height="80" as="geometry" />
        </mxCell>
        <mxCell id="8j0yyxZa9EtEhM1JBuYa-2" value="&lt;p style=&quot;margin: 0px ; margin-top: 4px ; text-align: center&quot;&gt;&lt;b&gt;Mediator&lt;/b&gt;&lt;/p&gt;&lt;hr size=&quot;1&quot;&gt;&lt;div style=&quot;height: 2px&quot;&gt;&lt;/div&gt;&lt;hr size=&quot;1&quot;&gt;&lt;div style=&quot;height: 2px&quot;&gt;&lt;/div&gt;" style="verticalAlign=top;align=left;overflow=fill;fontSize=12;fontFamily=Helvetica;html=1;fillColor=#f8cecc;strokeColor=#b85450;" vertex="1" parent="H7ca-fvo3pmg8A3Oh6S7-0">
          <mxGeometry x="110" y="140" width="140" height="60" as="geometry" />
        </mxCell>
        <mxCell id="8j0yyxZa9EtEhM1JBuYa-3" value="&lt;p style=&quot;margin: 0px ; margin-top: 4px ; text-align: center&quot;&gt;&lt;b&gt;Colleague&lt;/b&gt;&lt;/p&gt;&lt;hr size=&quot;1&quot;&gt;&lt;div style=&quot;height: 2px&quot;&gt;&lt;/div&gt;&lt;hr size=&quot;1&quot;&gt;&lt;div style=&quot;height: 2px&quot;&gt;&lt;/div&gt;" style="verticalAlign=top;align=left;overflow=fill;fontSize=12;fontFamily=Helvetica;html=1;fillColor=#f8cecc;strokeColor=#b85450;" vertex="1" parent="H7ca-fvo3pmg8A3Oh6S7-0">
          <mxGeometry x="365" y="140" width="140" height="60" as="geometry" />
        </mxCell>
        <mxCell id="8j0yyxZa9EtEhM1JBuYa-4" value="&lt;p style=&quot;margin: 0px ; margin-top: 4px ; text-align: center&quot;&gt;&lt;b&gt;ConcreteMediator&lt;/b&gt;&lt;/p&gt;&lt;hr size=&quot;1&quot;&gt;&lt;div style=&quot;height: 2px&quot;&gt;&lt;/div&gt;&lt;hr size=&quot;1&quot;&gt;&lt;div style=&quot;height: 2px&quot;&gt;&lt;/div&gt;" style="verticalAlign=top;align=left;overflow=fill;fontSize=12;fontFamily=Helvetica;html=1;fillColor=#f8cecc;strokeColor=#b85450;" vertex="1" parent="H7ca-fvo3pmg8A3Oh6S7-0">
          <mxGeometry x="110" y="300" width="140" height="60" as="geometry" />
        </mxCell>
        <mxCell id="8j0yyxZa9EtEhM1JBuYa-5" value="Extends" style="endArrow=block;endSize=16;endFill=0;html=1;rounded=0;edgeStyle=orthogonalEdgeStyle;exitX=0.5;exitY=0;exitDx=0;exitDy=0;entryX=0.5;entryY=1;entryDx=0;entryDy=0;" edge="1" parent="H7ca-fvo3pmg8A3Oh6S7-0" source="8j0yyxZa9EtEhM1JBuYa-4" target="8j0yyxZa9EtEhM1JBuYa-2">
          <mxGeometry width="160" relative="1" as="geometry">
            <mxPoint x="250" y="230" as="sourcePoint" />
            <mxPoint x="410" y="230" as="targetPoint" />
          </mxGeometry>
        </mxCell>
        <mxCell id="8j0yyxZa9EtEhM1JBuYa-6" value="" style="endArrow=open;endFill=1;endSize=12;html=1;rounded=0;edgeStyle=orthogonalEdgeStyle;exitX=0;exitY=0.25;exitDx=0;exitDy=0;entryX=1;entryY=0.25;entryDx=0;entryDy=0;" edge="1" parent="H7ca-fvo3pmg8A3Oh6S7-0" source="8j0yyxZa9EtEhM1JBuYa-3" target="8j0yyxZa9EtEhM1JBuYa-2">
          <mxGeometry width="160" relative="1" as="geometry">
            <mxPoint x="250" y="230" as="sourcePoint" />
            <mxPoint x="410" y="230" as="targetPoint" />
          </mxGeometry>
        </mxCell>
        <mxCell id="8j0yyxZa9EtEhM1JBuYa-7" value="+mediator" style="text;html=1;strokeColor=none;fillColor=none;align=center;verticalAlign=middle;whiteSpace=wrap;rounded=0;" vertex="1" parent="H7ca-fvo3pmg8A3Oh6S7-0">
          <mxGeometry x="270" y="155" width="60" height="30" as="geometry" />
        </mxCell>
      </root>
    </mxGraphModel>
  </diagram>
  <diagram id="pldzfqMCw7_MEPw9MdLi" name="命令模式">
    <mxGraphModel dx="1422" dy="706" grid="1" gridSize="10" guides="1" tooltips="1" connect="1" arrows="1" fold="1" page="1" pageScale="1" pageWidth="827" pageHeight="1169" math="0" shadow="0">
      <root>
        <mxCell id="Fvylt44odfBgLhoHkk4q-0" />
        <mxCell id="Fvylt44odfBgLhoHkk4q-1" parent="Fvylt44odfBgLhoHkk4q-0" />
        <mxCell id="4GvCdVWM8YDmSav3QCAR-0" value="" style="group" parent="Fvylt44odfBgLhoHkk4q-1" vertex="1" connectable="0">
          <mxGeometry x="80" y="550" width="600" height="460" as="geometry" />
        </mxCell>
        <mxCell id="4GvCdVWM8YDmSav3QCAR-1" value="" style="rounded=0;whiteSpace=wrap;html=1;" parent="4GvCdVWM8YDmSav3QCAR-0" vertex="1">
          <mxGeometry width="600" height="460" as="geometry" />
        </mxCell>
        <mxCell id="4GvCdVWM8YDmSav3QCAR-2" value="" style="rounded=0;whiteSpace=wrap;html=1;" parent="4GvCdVWM8YDmSav3QCAR-0" vertex="1">
          <mxGeometry y="80" width="600" height="380" as="geometry" />
        </mxCell>
        <mxCell id="4GvCdVWM8YDmSav3QCAR-3" value="模式名称" style="rounded=0;whiteSpace=wrap;html=1;" parent="4GvCdVWM8YDmSav3QCAR-0" vertex="1">
          <mxGeometry width="150" height="80" as="geometry" />
        </mxCell>
        <mxCell id="4GvCdVWM8YDmSav3QCAR-4" value="命令模式" style="rounded=0;whiteSpace=wrap;html=1;" parent="4GvCdVWM8YDmSav3QCAR-0" vertex="1">
          <mxGeometry x="150" width="240" height="40" as="geometry" />
        </mxCell>
        <mxCell id="4GvCdVWM8YDmSav3QCAR-5" value="Command pattern" style="rounded=0;whiteSpace=wrap;html=1;" parent="4GvCdVWM8YDmSav3QCAR-0" vertex="1">
          <mxGeometry x="150" y="40" width="240" height="40" as="geometry" />
        </mxCell>
        <mxCell id="4GvCdVWM8YDmSav3QCAR-6" value="类型" style="rounded=0;whiteSpace=wrap;html=1;" parent="4GvCdVWM8YDmSav3QCAR-0" vertex="1">
          <mxGeometry x="390" width="90" height="80" as="geometry" />
        </mxCell>
        <mxCell id="4GvCdVWM8YDmSav3QCAR-7" value="7" style="rounded=0;whiteSpace=wrap;html=1;" parent="4GvCdVWM8YDmSav3QCAR-0" vertex="1">
          <mxGeometry x="15" y="90" width="35" height="30" as="geometry" />
        </mxCell>
        <mxCell id="4GvCdVWM8YDmSav3QCAR-8" value="描述：把一个命令或者是操作封装在一个对象中。命令模式允许使用不同的请求将客户端参数化，对请求排队或者记录请求日志，可以提供命令的撤销和恢复的功能。" style="text;html=1;strokeColor=none;fillColor=none;align=left;verticalAlign=middle;whiteSpace=wrap;rounded=0;" parent="4GvCdVWM8YDmSav3QCAR-0" vertex="1">
          <mxGeometry x="30" y="400" width="540" height="30" as="geometry" />
        </mxCell>
        <mxCell id="e8pHH_7LCk-vl_EBWjnJ-0" value="行为类" style="rounded=0;whiteSpace=wrap;html=1;align=center;" parent="4GvCdVWM8YDmSav3QCAR-0" vertex="1">
          <mxGeometry x="480" width="120" height="80" as="geometry" />
        </mxCell>
        <mxCell id="e8pHH_7LCk-vl_EBWjnJ-1" value="&lt;p style=&quot;margin: 0px ; margin-top: 4px ; text-align: center&quot;&gt;&lt;b&gt;Client&lt;/b&gt;&lt;/p&gt;&lt;hr size=&quot;1&quot;&gt;&lt;div style=&quot;height: 2px&quot;&gt;&lt;/div&gt;&lt;hr size=&quot;1&quot;&gt;&lt;div style=&quot;height: 2px&quot;&gt;&lt;/div&gt;" style="verticalAlign=top;align=left;overflow=fill;fontSize=12;fontFamily=Helvetica;html=1;fillColor=#f8cecc;strokeColor=#b85450;" parent="4GvCdVWM8YDmSav3QCAR-0" vertex="1">
          <mxGeometry x="60" y="130" width="140" height="60" as="geometry" />
        </mxCell>
        <mxCell id="e8pHH_7LCk-vl_EBWjnJ-2" value="&lt;p style=&quot;margin: 0px ; margin-top: 4px ; text-align: center&quot;&gt;&lt;b&gt;Invoker&lt;/b&gt;&lt;/p&gt;&lt;hr size=&quot;1&quot;&gt;&lt;div style=&quot;height: 2px&quot;&gt;&lt;/div&gt;&lt;hr size=&quot;1&quot;&gt;&lt;div style=&quot;height: 2px&quot;&gt;&lt;/div&gt;" style="verticalAlign=top;align=left;overflow=fill;fontSize=12;fontFamily=Helvetica;html=1;fillColor=#f8cecc;strokeColor=#b85450;" parent="4GvCdVWM8YDmSav3QCAR-0" vertex="1">
          <mxGeometry x="250" y="130" width="140" height="60" as="geometry" />
        </mxCell>
        <mxCell id="e8pHH_7LCk-vl_EBWjnJ-3" value="&lt;p style=&quot;margin: 0px ; margin-top: 4px ; text-align: center&quot;&gt;&lt;b&gt;Command&lt;/b&gt;&lt;/p&gt;&lt;hr size=&quot;1&quot;&gt;&lt;div style=&quot;height: 2px&quot;&gt;&lt;/div&gt;&lt;hr size=&quot;1&quot;&gt;&lt;div style=&quot;height: 2px&quot;&gt;+Execute()&lt;/div&gt;" style="verticalAlign=top;align=left;overflow=fill;fontSize=12;fontFamily=Helvetica;html=1;fillColor=#f8cecc;strokeColor=#b85450;" parent="4GvCdVWM8YDmSav3QCAR-0" vertex="1">
          <mxGeometry x="450" y="130" width="140" height="60" as="geometry" />
        </mxCell>
        <mxCell id="e8pHH_7LCk-vl_EBWjnJ-4" value="&lt;p style=&quot;margin: 0px ; margin-top: 4px ; text-align: center&quot;&gt;&lt;b&gt;Receiver&lt;/b&gt;&lt;/p&gt;&lt;hr size=&quot;1&quot;&gt;&lt;div style=&quot;height: 2px&quot;&gt;&lt;/div&gt;&lt;hr size=&quot;1&quot;&gt;&lt;div style=&quot;height: 2px&quot;&gt;+Action()&lt;/div&gt;" style="verticalAlign=top;align=left;overflow=fill;fontSize=12;fontFamily=Helvetica;html=1;fillColor=#f8cecc;strokeColor=#b85450;" parent="4GvCdVWM8YDmSav3QCAR-0" vertex="1">
          <mxGeometry x="250" y="240" width="140" height="60" as="geometry" />
        </mxCell>
        <mxCell id="e8pHH_7LCk-vl_EBWjnJ-5" value="&lt;p style=&quot;margin: 0px ; margin-top: 4px ; text-align: center&quot;&gt;&lt;b&gt;ConcreteCommand&lt;/b&gt;&lt;/p&gt;&lt;hr size=&quot;1&quot;&gt;&lt;div style=&quot;height: 2px&quot;&gt;&lt;/div&gt;&lt;hr size=&quot;1&quot;&gt;&lt;div style=&quot;height: 2px&quot;&gt;&lt;/div&gt;" style="verticalAlign=top;align=left;overflow=fill;fontSize=12;fontFamily=Helvetica;html=1;fillColor=#f8cecc;strokeColor=#b85450;" parent="4GvCdVWM8YDmSav3QCAR-0" vertex="1">
          <mxGeometry x="450" y="330" width="140" height="60" as="geometry" />
        </mxCell>
        <mxCell id="e8pHH_7LCk-vl_EBWjnJ-7" value="" style="endArrow=open;endFill=1;endSize=12;html=1;rounded=0;edgeStyle=orthogonalEdgeStyle;exitX=0.5;exitY=1;exitDx=0;exitDy=0;entryX=0;entryY=0.25;entryDx=0;entryDy=0;" parent="4GvCdVWM8YDmSav3QCAR-0" source="e8pHH_7LCk-vl_EBWjnJ-1" target="e8pHH_7LCk-vl_EBWjnJ-4" edge="1">
          <mxGeometry width="160" relative="1" as="geometry">
            <mxPoint x="70" y="260" as="sourcePoint" />
            <mxPoint x="230" y="260" as="targetPoint" />
          </mxGeometry>
        </mxCell>
        <mxCell id="e8pHH_7LCk-vl_EBWjnJ-12" value="关联" style="edgeLabel;html=1;align=center;verticalAlign=middle;resizable=0;points=[];" parent="e8pHH_7LCk-vl_EBWjnJ-7" vertex="1" connectable="0">
          <mxGeometry x="0.2342" y="-2" relative="1" as="geometry">
            <mxPoint as="offset" />
          </mxGeometry>
        </mxCell>
        <mxCell id="e8pHH_7LCk-vl_EBWjnJ-6" value="" style="endArrow=open;endFill=1;endSize=12;html=1;rounded=0;edgeStyle=orthogonalEdgeStyle;exitX=0.25;exitY=0;exitDx=0;exitDy=0;entryX=1;entryY=0.5;entryDx=0;entryDy=0;" parent="4GvCdVWM8YDmSav3QCAR-0" source="e8pHH_7LCk-vl_EBWjnJ-5" target="e8pHH_7LCk-vl_EBWjnJ-4" edge="1">
          <mxGeometry width="160" relative="1" as="geometry">
            <mxPoint x="440" y="310" as="sourcePoint" />
            <mxPoint x="600" y="310" as="targetPoint" />
          </mxGeometry>
        </mxCell>
        <mxCell id="e8pHH_7LCk-vl_EBWjnJ-8" value="Use" style="endArrow=open;endSize=12;dashed=1;html=1;rounded=0;edgeStyle=orthogonalEdgeStyle;exitX=0.5;exitY=1;exitDx=0;exitDy=0;entryX=0;entryY=0.5;entryDx=0;entryDy=0;" parent="4GvCdVWM8YDmSav3QCAR-0" source="e8pHH_7LCk-vl_EBWjnJ-1" target="e8pHH_7LCk-vl_EBWjnJ-5" edge="1">
          <mxGeometry x="0.3469" width="160" relative="1" as="geometry">
            <mxPoint x="130" y="130" as="sourcePoint" />
            <mxPoint x="290" y="130" as="targetPoint" />
            <mxPoint as="offset" />
          </mxGeometry>
        </mxCell>
        <mxCell id="e8pHH_7LCk-vl_EBWjnJ-9" value="" style="endArrow=open;html=1;endSize=12;startArrow=diamondThin;startSize=14;startFill=0;edgeStyle=orthogonalEdgeStyle;align=left;verticalAlign=bottom;rounded=0;exitX=1;exitY=0.5;exitDx=0;exitDy=0;entryX=0;entryY=0.5;entryDx=0;entryDy=0;" parent="4GvCdVWM8YDmSav3QCAR-0" source="e8pHH_7LCk-vl_EBWjnJ-2" target="e8pHH_7LCk-vl_EBWjnJ-3" edge="1">
          <mxGeometry x="-1" y="3" relative="1" as="geometry">
            <mxPoint x="130" y="130" as="sourcePoint" />
            <mxPoint x="290" y="130" as="targetPoint" />
            <Array as="points">
              <mxPoint x="420" y="160" />
              <mxPoint x="420" y="160" />
            </Array>
          </mxGeometry>
        </mxCell>
        <mxCell id="e8pHH_7LCk-vl_EBWjnJ-10" value="Extends" style="endArrow=block;endSize=16;endFill=0;html=1;rounded=0;edgeStyle=orthogonalEdgeStyle;exitX=0.5;exitY=0;exitDx=0;exitDy=0;entryX=0.5;entryY=1;entryDx=0;entryDy=0;" parent="4GvCdVWM8YDmSav3QCAR-0" source="e8pHH_7LCk-vl_EBWjnJ-5" target="e8pHH_7LCk-vl_EBWjnJ-3" edge="1">
          <mxGeometry width="160" relative="1" as="geometry">
            <mxPoint x="130" y="130" as="sourcePoint" />
            <mxPoint x="290" y="130" as="targetPoint" />
          </mxGeometry>
        </mxCell>
        <mxCell id="e8pHH_7LCk-vl_EBWjnJ-11" value="+receiver" style="text;html=1;strokeColor=none;fillColor=none;align=center;verticalAlign=middle;whiteSpace=wrap;rounded=0;" parent="4GvCdVWM8YDmSav3QCAR-0" vertex="1">
          <mxGeometry x="410" y="270" width="60" height="30" as="geometry" />
        </mxCell>
      </root>
    </mxGraphModel>
  </diagram>
  <diagram id="k-ntsWHAj2VLS6IyIdI-" name="责任链模式">
    <mxGraphModel dx="1422" dy="706" grid="1" gridSize="10" guides="1" tooltips="1" connect="1" arrows="1" fold="1" page="1" pageScale="1" pageWidth="827" pageHeight="1169" math="0" shadow="0">
      <root>
        <mxCell id="6jVHm-6-m8FFWJ68gcK5-0" />
        <mxCell id="6jVHm-6-m8FFWJ68gcK5-1" parent="6jVHm-6-m8FFWJ68gcK5-0" />
        <mxCell id="s0t6tuiy8gHSC5gKtss5-0" value="" style="group" parent="6jVHm-6-m8FFWJ68gcK5-1" vertex="1" connectable="0">
          <mxGeometry x="84" y="550" width="600" height="460" as="geometry" />
        </mxCell>
        <mxCell id="s0t6tuiy8gHSC5gKtss5-1" value="" style="rounded=0;whiteSpace=wrap;html=1;" parent="s0t6tuiy8gHSC5gKtss5-0" vertex="1">
          <mxGeometry width="600" height="460" as="geometry" />
        </mxCell>
        <mxCell id="s0t6tuiy8gHSC5gKtss5-2" value="" style="rounded=0;whiteSpace=wrap;html=1;" parent="s0t6tuiy8gHSC5gKtss5-0" vertex="1">
          <mxGeometry y="80" width="600" height="380" as="geometry" />
        </mxCell>
        <mxCell id="s0t6tuiy8gHSC5gKtss5-3" value="模式名称" style="rounded=0;whiteSpace=wrap;html=1;" parent="s0t6tuiy8gHSC5gKtss5-0" vertex="1">
          <mxGeometry width="150" height="80" as="geometry" />
        </mxCell>
        <mxCell id="s0t6tuiy8gHSC5gKtss5-4" value="责任链模式" style="rounded=0;whiteSpace=wrap;html=1;" parent="s0t6tuiy8gHSC5gKtss5-0" vertex="1">
          <mxGeometry x="150" width="240" height="40" as="geometry" />
        </mxCell>
        <mxCell id="s0t6tuiy8gHSC5gKtss5-5" value="Chain of Responsibility&amp;nbsp;" style="rounded=0;whiteSpace=wrap;html=1;" parent="s0t6tuiy8gHSC5gKtss5-0" vertex="1">
          <mxGeometry x="150" y="40" width="240" height="40" as="geometry" />
        </mxCell>
        <mxCell id="s0t6tuiy8gHSC5gKtss5-6" value="l类型" style="rounded=0;whiteSpace=wrap;html=1;" parent="s0t6tuiy8gHSC5gKtss5-0" vertex="1">
          <mxGeometry x="390" width="90" height="80" as="geometry" />
        </mxCell>
        <mxCell id="s0t6tuiy8gHSC5gKtss5-7" value="9" style="rounded=0;whiteSpace=wrap;html=1;" parent="s0t6tuiy8gHSC5gKtss5-0" vertex="1">
          <mxGeometry x="15" y="90" width="35" height="30" as="geometry" />
        </mxCell>
        <mxCell id="s0t6tuiy8gHSC5gKtss5-8" value="描述：使多个对象都有机会处理请求，从而避免了请求的【发送者】和【接受者】之间的耦合关系。将这些对象连接成一条链，并且沿着这条链传递该请求，直到有对象处理它为止。" style="text;html=1;strokeColor=none;fillColor=none;align=left;verticalAlign=middle;whiteSpace=wrap;rounded=0;" parent="s0t6tuiy8gHSC5gKtss5-0" vertex="1">
          <mxGeometry x="30" y="400" width="540" height="30" as="geometry" />
        </mxCell>
        <mxCell id="Sr5wThOuPX2ZYDtUN9oZ-0" value="行为类" style="rounded=0;whiteSpace=wrap;html=1;align=center;" parent="s0t6tuiy8gHSC5gKtss5-0" vertex="1">
          <mxGeometry x="480" width="120" height="80" as="geometry" />
        </mxCell>
        <mxCell id="Sr5wThOuPX2ZYDtUN9oZ-1" value="&lt;p style=&quot;margin: 0px ; margin-top: 4px ; text-align: center&quot;&gt;&lt;b&gt;Client&lt;/b&gt;&lt;/p&gt;&lt;hr size=&quot;1&quot;&gt;&lt;div style=&quot;height: 2px&quot;&gt;&lt;/div&gt;&lt;hr size=&quot;1&quot;&gt;&lt;div style=&quot;height: 2px&quot;&gt;&lt;/div&gt;" style="verticalAlign=top;align=left;overflow=fill;fontSize=12;fontFamily=Helvetica;html=1;fillColor=#f8cecc;strokeColor=#b85450;" parent="s0t6tuiy8gHSC5gKtss5-0" vertex="1">
          <mxGeometry x="76" y="170" width="140" height="60" as="geometry" />
        </mxCell>
        <mxCell id="Sr5wThOuPX2ZYDtUN9oZ-2" value="&lt;p style=&quot;margin: 0px ; margin-top: 4px ; text-align: center&quot;&gt;&lt;b&gt;Handler&lt;/b&gt;&lt;/p&gt;&lt;hr size=&quot;1&quot;&gt;&lt;div style=&quot;height: 2px&quot;&gt;&lt;/div&gt;&lt;hr size=&quot;1&quot;&gt;&lt;div style=&quot;height: 2px&quot;&gt;+HandleRequest()&lt;/div&gt;" style="verticalAlign=top;align=left;overflow=fill;fontSize=12;fontFamily=Helvetica;html=1;fillColor=#f8cecc;strokeColor=#b85450;" parent="s0t6tuiy8gHSC5gKtss5-0" vertex="1">
          <mxGeometry x="326" y="170" width="140" height="60" as="geometry" />
        </mxCell>
        <mxCell id="Sr5wThOuPX2ZYDtUN9oZ-3" value="&lt;p style=&quot;margin: 0px ; margin-top: 4px ; text-align: center&quot;&gt;&lt;b&gt;ConcreteHandler&lt;/b&gt;&lt;/p&gt;&lt;hr size=&quot;1&quot;&gt;&lt;div style=&quot;height: 2px&quot;&gt;&lt;/div&gt;&lt;hr size=&quot;1&quot;&gt;&lt;div style=&quot;height: 2px&quot;&gt;&lt;/div&gt;" style="verticalAlign=top;align=left;overflow=fill;fontSize=12;fontFamily=Helvetica;html=1;fillColor=#f8cecc;strokeColor=#b85450;" parent="s0t6tuiy8gHSC5gKtss5-0" vertex="1">
          <mxGeometry x="326" y="290" width="140" height="60" as="geometry" />
        </mxCell>
        <mxCell id="Sr5wThOuPX2ZYDtUN9oZ-4" value="" style="endArrow=open;endFill=1;endSize=12;html=1;rounded=0;edgeStyle=orthogonalEdgeStyle;exitX=0.5;exitY=0;exitDx=0;exitDy=0;entryX=1;entryY=0.5;entryDx=0;entryDy=0;" parent="s0t6tuiy8gHSC5gKtss5-0" source="Sr5wThOuPX2ZYDtUN9oZ-2" target="Sr5wThOuPX2ZYDtUN9oZ-2" edge="1">
          <mxGeometry width="160" relative="1" as="geometry">
            <mxPoint x="266" y="290" as="sourcePoint" />
            <mxPoint x="426" y="290" as="targetPoint" />
            <Array as="points">
              <mxPoint x="396" y="130" />
              <mxPoint x="546" y="130" />
              <mxPoint x="546" y="200" />
            </Array>
          </mxGeometry>
        </mxCell>
        <mxCell id="Sr5wThOuPX2ZYDtUN9oZ-5" value="+successor" style="text;html=1;strokeColor=none;fillColor=none;align=center;verticalAlign=middle;whiteSpace=wrap;rounded=0;" parent="s0t6tuiy8gHSC5gKtss5-0" vertex="1">
          <mxGeometry x="482" y="193" width="60" height="30" as="geometry" />
        </mxCell>
        <mxCell id="Sr5wThOuPX2ZYDtUN9oZ-6" value="" style="endArrow=open;endFill=1;endSize=12;html=1;rounded=0;edgeStyle=orthogonalEdgeStyle;exitX=1;exitY=0.25;exitDx=0;exitDy=0;entryX=0;entryY=0.25;entryDx=0;entryDy=0;" parent="s0t6tuiy8gHSC5gKtss5-0" source="Sr5wThOuPX2ZYDtUN9oZ-1" target="Sr5wThOuPX2ZYDtUN9oZ-2" edge="1">
          <mxGeometry width="160" relative="1" as="geometry">
            <mxPoint x="262" y="290" as="sourcePoint" />
            <mxPoint x="422" y="290" as="targetPoint" />
          </mxGeometry>
        </mxCell>
        <mxCell id="Sr5wThOuPX2ZYDtUN9oZ-7" value="Extends" style="endArrow=block;endSize=16;endFill=0;html=1;rounded=0;edgeStyle=orthogonalEdgeStyle;entryX=0.5;entryY=1;entryDx=0;entryDy=0;" parent="6jVHm-6-m8FFWJ68gcK5-1" target="Sr5wThOuPX2ZYDtUN9oZ-2" edge="1">
          <mxGeometry x="-0.3333" width="160" relative="1" as="geometry">
            <mxPoint x="480" y="840" as="sourcePoint" />
            <mxPoint x="506" y="840" as="targetPoint" />
            <mxPoint as="offset" />
          </mxGeometry>
        </mxCell>
      </root>
    </mxGraphModel>
  </diagram>
  <diagram id="HYQwR_98xnE-EN0vsXNA" name="装饰模式">
    <mxGraphModel dx="813" dy="435" grid="1" gridSize="10" guides="1" tooltips="1" connect="1" arrows="1" fold="1" page="1" pageScale="1" pageWidth="827" pageHeight="1169" math="0" shadow="0">
      <root>
        <mxCell id="DKuerETiQMou5Pq8Y4yx-0" />
        <mxCell id="DKuerETiQMou5Pq8Y4yx-1" parent="DKuerETiQMou5Pq8Y4yx-0" />
        <mxCell id="LpMawU_5fmt3_wrZFrSh-0" value="" style="group" parent="DKuerETiQMou5Pq8Y4yx-1" vertex="1" connectable="0">
          <mxGeometry x="90" y="560" width="600" height="460" as="geometry" />
        </mxCell>
        <mxCell id="LpMawU_5fmt3_wrZFrSh-1" value="" style="rounded=0;whiteSpace=wrap;html=1;" parent="LpMawU_5fmt3_wrZFrSh-0" vertex="1">
          <mxGeometry width="600" height="460" as="geometry" />
        </mxCell>
        <mxCell id="LpMawU_5fmt3_wrZFrSh-2" value="" style="rounded=0;whiteSpace=wrap;html=1;" parent="LpMawU_5fmt3_wrZFrSh-0" vertex="1">
          <mxGeometry y="80" width="600" height="380" as="geometry" />
        </mxCell>
        <mxCell id="LpMawU_5fmt3_wrZFrSh-3" value="模式名称" style="rounded=0;whiteSpace=wrap;html=1;" parent="LpMawU_5fmt3_wrZFrSh-0" vertex="1">
          <mxGeometry width="150" height="80" as="geometry" />
        </mxCell>
        <mxCell id="LpMawU_5fmt3_wrZFrSh-4" value="装饰模式" style="rounded=0;whiteSpace=wrap;html=1;" parent="LpMawU_5fmt3_wrZFrSh-0" vertex="1">
          <mxGeometry x="150" width="240" height="40" as="geometry" />
        </mxCell>
        <mxCell id="LpMawU_5fmt3_wrZFrSh-5" value="Decorator Pattern" style="rounded=0;whiteSpace=wrap;html=1;" parent="LpMawU_5fmt3_wrZFrSh-0" vertex="1">
          <mxGeometry x="150" y="40" width="240" height="40" as="geometry" />
        </mxCell>
        <mxCell id="LpMawU_5fmt3_wrZFrSh-6" value="类型" style="rounded=0;whiteSpace=wrap;html=1;" parent="LpMawU_5fmt3_wrZFrSh-0" vertex="1">
          <mxGeometry x="390" width="90" height="80" as="geometry" />
        </mxCell>
        <mxCell id="LpMawU_5fmt3_wrZFrSh-7" value="21" style="rounded=0;whiteSpace=wrap;html=1;" parent="LpMawU_5fmt3_wrZFrSh-0" vertex="1">
          <mxGeometry x="15" y="90" width="35" height="30" as="geometry" />
        </mxCell>
        <mxCell id="LpMawU_5fmt3_wrZFrSh-8" value="描述：动态给一些类添加一些额外的职责。就功能而言，它相比于子类更加灵活。" style="text;html=1;strokeColor=none;fillColor=none;align=left;verticalAlign=middle;whiteSpace=wrap;rounded=0;" parent="LpMawU_5fmt3_wrZFrSh-0" vertex="1">
          <mxGeometry x="30" y="400" width="540" height="30" as="geometry" />
        </mxCell>
        <mxCell id="NvGhLU5A8sv9BCGigh8e-2" value="结构类" style="rounded=0;whiteSpace=wrap;html=1;" vertex="1" parent="LpMawU_5fmt3_wrZFrSh-0">
          <mxGeometry x="480" width="120" height="80" as="geometry" />
        </mxCell>
        <mxCell id="NvGhLU5A8sv9BCGigh8e-3" value="&lt;p style=&quot;margin: 0px ; margin-top: 4px ; text-align: center&quot;&gt;&lt;b&gt;Component&lt;/b&gt;&lt;/p&gt;&lt;hr size=&quot;1&quot;&gt;&lt;div style=&quot;height: 2px&quot;&gt;&lt;/div&gt;&lt;hr size=&quot;1&quot;&gt;&lt;div style=&quot;height: 2px&quot;&gt;+Operation()&lt;/div&gt;" style="verticalAlign=top;align=left;overflow=fill;fontSize=12;fontFamily=Helvetica;html=1;fillColor=#fff2cc;strokeColor=#d6b656;" vertex="1" parent="LpMawU_5fmt3_wrZFrSh-0">
          <mxGeometry x="230" y="100" width="140" height="60" as="geometry" />
        </mxCell>
        <mxCell id="NvGhLU5A8sv9BCGigh8e-4" value="&lt;p style=&quot;margin: 0px ; margin-top: 4px ; text-align: center&quot;&gt;&lt;b&gt;Concrete Component&lt;/b&gt;&lt;/p&gt;&lt;hr size=&quot;1&quot;&gt;&lt;div style=&quot;height: 2px&quot;&gt;&lt;/div&gt;&lt;hr size=&quot;1&quot;&gt;&lt;div style=&quot;height: 2px&quot;&gt;&lt;/div&gt;" style="verticalAlign=top;align=left;overflow=fill;fontSize=12;fontFamily=Helvetica;html=1;fillColor=#fff2cc;strokeColor=#d6b656;" vertex="1" parent="LpMawU_5fmt3_wrZFrSh-0">
          <mxGeometry x="60" y="210" width="140" height="60" as="geometry" />
        </mxCell>
        <mxCell id="NvGhLU5A8sv9BCGigh8e-5" value="&lt;p style=&quot;margin: 0px ; margin-top: 4px ; text-align: center&quot;&gt;&lt;b&gt;Decorator&lt;/b&gt;&lt;/p&gt;&lt;hr size=&quot;1&quot;&gt;&lt;div style=&quot;height: 2px&quot;&gt;&lt;/div&gt;&lt;hr size=&quot;1&quot;&gt;&lt;div style=&quot;height: 2px&quot;&gt;&lt;/div&gt;" style="verticalAlign=top;align=left;overflow=fill;fontSize=12;fontFamily=Helvetica;html=1;fillColor=#fff2cc;strokeColor=#d6b656;" vertex="1" parent="LpMawU_5fmt3_wrZFrSh-0">
          <mxGeometry x="400" y="210" width="140" height="60" as="geometry" />
        </mxCell>
        <mxCell id="NvGhLU5A8sv9BCGigh8e-6" value="&lt;p style=&quot;margin: 0px ; margin-top: 4px ; text-align: center&quot;&gt;&lt;b&gt;Concrete Decorator&lt;/b&gt;&lt;/p&gt;&lt;hr size=&quot;1&quot;&gt;&lt;div style=&quot;height: 2px&quot;&gt;&lt;/div&gt;&lt;hr size=&quot;1&quot;&gt;&lt;div style=&quot;height: 2px&quot;&gt;&lt;/div&gt;" style="verticalAlign=top;align=left;overflow=fill;fontSize=12;fontFamily=Helvetica;html=1;fillColor=#fff2cc;strokeColor=#d6b656;" vertex="1" parent="LpMawU_5fmt3_wrZFrSh-0">
          <mxGeometry x="400" y="320" width="140" height="60" as="geometry" />
        </mxCell>
        <mxCell id="NvGhLU5A8sv9BCGigh8e-7" value="Extends" style="endArrow=block;endSize=16;endFill=0;html=1;rounded=0;edgeStyle=orthogonalEdgeStyle;exitX=0.5;exitY=0;exitDx=0;exitDy=0;entryX=0.5;entryY=1;entryDx=0;entryDy=0;" edge="1" parent="LpMawU_5fmt3_wrZFrSh-0" source="NvGhLU5A8sv9BCGigh8e-6" target="NvGhLU5A8sv9BCGigh8e-5">
          <mxGeometry x="-0.3333" width="160" relative="1" as="geometry">
            <mxPoint x="250" y="240" as="sourcePoint" />
            <mxPoint x="410" y="240" as="targetPoint" />
            <Array as="points">
              <mxPoint x="470" y="300" />
              <mxPoint x="470" y="300" />
            </Array>
            <mxPoint as="offset" />
          </mxGeometry>
        </mxCell>
        <mxCell id="NvGhLU5A8sv9BCGigh8e-9" value="Extends" style="endArrow=block;endSize=16;endFill=0;html=1;rounded=0;edgeStyle=orthogonalEdgeStyle;exitX=0.5;exitY=0;exitDx=0;exitDy=0;entryX=0.5;entryY=1;entryDx=0;entryDy=0;" edge="1" parent="LpMawU_5fmt3_wrZFrSh-0" source="NvGhLU5A8sv9BCGigh8e-4" target="NvGhLU5A8sv9BCGigh8e-3">
          <mxGeometry width="160" relative="1" as="geometry">
            <mxPoint x="160" y="260" as="sourcePoint" />
            <mxPoint x="320" y="260" as="targetPoint" />
            <Array as="points">
              <mxPoint x="130" y="190" />
              <mxPoint x="300" y="190" />
            </Array>
          </mxGeometry>
        </mxCell>
        <mxCell id="NvGhLU5A8sv9BCGigh8e-11" value="1" style="endArrow=open;html=1;endSize=12;startArrow=diamondThin;startSize=14;startFill=0;edgeStyle=orthogonalEdgeStyle;align=left;verticalAlign=bottom;rounded=0;entryX=1;entryY=0.5;entryDx=0;entryDy=0;exitX=0.75;exitY=0;exitDx=0;exitDy=0;" edge="1" parent="LpMawU_5fmt3_wrZFrSh-0" source="NvGhLU5A8sv9BCGigh8e-5" target="NvGhLU5A8sv9BCGigh8e-3">
          <mxGeometry x="-1" y="3" relative="1" as="geometry">
            <mxPoint x="160" y="260" as="sourcePoint" />
            <mxPoint x="320" y="260" as="targetPoint" />
          </mxGeometry>
        </mxCell>
        <mxCell id="NvGhLU5A8sv9BCGigh8e-12" value="+component" style="text;html=1;strokeColor=none;fillColor=none;align=center;verticalAlign=middle;whiteSpace=wrap;rounded=0;" vertex="1" parent="LpMawU_5fmt3_wrZFrSh-0">
          <mxGeometry x="370" y="130" width="90" height="30" as="geometry" />
        </mxCell>
        <mxCell id="NvGhLU5A8sv9BCGigh8e-10" value="Extends" style="endArrow=block;endSize=16;endFill=0;html=1;rounded=0;edgeStyle=orthogonalEdgeStyle;exitX=0.5;exitY=0;exitDx=0;exitDy=0;" edge="1" parent="DKuerETiQMou5Pq8Y4yx-1" source="NvGhLU5A8sv9BCGigh8e-5">
          <mxGeometry width="160" relative="1" as="geometry">
            <mxPoint x="250" y="820" as="sourcePoint" />
            <mxPoint x="390" y="720" as="targetPoint" />
            <Array as="points">
              <mxPoint x="560" y="750" />
              <mxPoint x="390" y="750" />
            </Array>
          </mxGeometry>
        </mxCell>
      </root>
    </mxGraphModel>
  </diagram>
  <diagram id="j8V6d6-ftvX8wzvmhxak" name="策略模式">
    <mxGraphModel dx="1422" dy="706" grid="1" gridSize="10" guides="1" tooltips="1" connect="1" arrows="1" fold="1" page="1" pageScale="1" pageWidth="827" pageHeight="1169" math="0" shadow="0">
      <root>
        <mxCell id="YJgOyDs0weNui3rK2a_l-0" />
        <mxCell id="YJgOyDs0weNui3rK2a_l-1" parent="YJgOyDs0weNui3rK2a_l-0" />
        <mxCell id="wOXKLo34Rl_MTIIsE6fA-0" value="" style="group" parent="YJgOyDs0weNui3rK2a_l-1" vertex="1" connectable="0">
          <mxGeometry x="80" y="550" width="600" height="460" as="geometry" />
        </mxCell>
        <mxCell id="wOXKLo34Rl_MTIIsE6fA-1" value="" style="rounded=0;whiteSpace=wrap;html=1;" parent="wOXKLo34Rl_MTIIsE6fA-0" vertex="1">
          <mxGeometry width="600" height="460" as="geometry" />
        </mxCell>
        <mxCell id="wOXKLo34Rl_MTIIsE6fA-2" value="" style="rounded=0;whiteSpace=wrap;html=1;" parent="wOXKLo34Rl_MTIIsE6fA-0" vertex="1">
          <mxGeometry y="80" width="600" height="380" as="geometry" />
        </mxCell>
        <mxCell id="wOXKLo34Rl_MTIIsE6fA-3" value="模式名称" style="rounded=0;whiteSpace=wrap;html=1;" parent="wOXKLo34Rl_MTIIsE6fA-0" vertex="1">
          <mxGeometry width="150" height="80" as="geometry" />
        </mxCell>
        <mxCell id="wOXKLo34Rl_MTIIsE6fA-4" value="策略模式" style="rounded=0;whiteSpace=wrap;html=1;" parent="wOXKLo34Rl_MTIIsE6fA-0" vertex="1">
          <mxGeometry x="150" width="240" height="40" as="geometry" />
        </mxCell>
        <mxCell id="wOXKLo34Rl_MTIIsE6fA-5" value="Strategy pattern" style="rounded=0;whiteSpace=wrap;html=1;" parent="wOXKLo34Rl_MTIIsE6fA-0" vertex="1">
          <mxGeometry x="150" y="40" width="240" height="40" as="geometry" />
        </mxCell>
        <mxCell id="wOXKLo34Rl_MTIIsE6fA-6" value="类型" style="rounded=0;whiteSpace=wrap;html=1;" parent="wOXKLo34Rl_MTIIsE6fA-0" vertex="1">
          <mxGeometry x="390" width="90" height="80" as="geometry" />
        </mxCell>
        <mxCell id="wOXKLo34Rl_MTIIsE6fA-7" value="14" style="rounded=0;whiteSpace=wrap;html=1;" parent="wOXKLo34Rl_MTIIsE6fA-0" vertex="1">
          <mxGeometry x="15" y="90" width="35" height="30" as="geometry" />
        </mxCell>
        <mxCell id="wOXKLo34Rl_MTIIsE6fA-8" value="描述：定义一组算法，将每一个算法都封装起来，并使他们之间可以互换。" style="text;html=1;strokeColor=none;fillColor=none;align=left;verticalAlign=middle;whiteSpace=wrap;rounded=0;" parent="wOXKLo34Rl_MTIIsE6fA-0" vertex="1">
          <mxGeometry x="30" y="400" width="540" height="30" as="geometry" />
        </mxCell>
        <mxCell id="-lscuHo_CM5bR-sOlffL-0" value="行为类" style="rounded=0;whiteSpace=wrap;html=1;align=center;" parent="wOXKLo34Rl_MTIIsE6fA-0" vertex="1">
          <mxGeometry x="480" width="120" height="80" as="geometry" />
        </mxCell>
        <mxCell id="-lscuHo_CM5bR-sOlffL-1" value="&lt;p style=&quot;margin: 0px ; margin-top: 4px ; text-align: center&quot;&gt;&lt;b&gt;Context&lt;/b&gt;&lt;/p&gt;&lt;hr size=&quot;1&quot;&gt;&lt;div style=&quot;height: 2px&quot;&gt;&lt;/div&gt;&lt;hr size=&quot;1&quot;&gt;&lt;div style=&quot;height: 2px&quot;&gt;+ContextInterface()&lt;/div&gt;" style="verticalAlign=top;align=left;overflow=fill;fontSize=12;fontFamily=Helvetica;html=1;fillColor=#f8cecc;strokeColor=#b85450;" parent="wOXKLo34Rl_MTIIsE6fA-0" vertex="1">
          <mxGeometry x="100" y="130" width="140" height="60" as="geometry" />
        </mxCell>
        <mxCell id="-lscuHo_CM5bR-sOlffL-2" value="&lt;p style=&quot;margin: 0px ; margin-top: 4px ; text-align: center&quot;&gt;&lt;b&gt;Strategy&lt;/b&gt;&lt;/p&gt;&lt;hr size=&quot;1&quot;&gt;&lt;div style=&quot;height: 2px&quot;&gt;&lt;/div&gt;&lt;hr size=&quot;1&quot;&gt;&lt;div style=&quot;height: 2px&quot;&gt;+AlgorithmInterface()&lt;/div&gt;" style="verticalAlign=top;align=left;overflow=fill;fontSize=12;fontFamily=Helvetica;html=1;fillColor=#f8cecc;strokeColor=#b85450;" parent="wOXKLo34Rl_MTIIsE6fA-0" vertex="1">
          <mxGeometry x="365" y="130" width="140" height="60" as="geometry" />
        </mxCell>
        <mxCell id="-lscuHo_CM5bR-sOlffL-3" value="&lt;p style=&quot;margin: 0px ; margin-top: 4px ; text-align: center&quot;&gt;&lt;b&gt;ConcreteStrategy&lt;/b&gt;&lt;/p&gt;&lt;hr size=&quot;1&quot;&gt;&lt;div style=&quot;height: 2px&quot;&gt;&lt;/div&gt;&lt;hr size=&quot;1&quot;&gt;&lt;div style=&quot;height: 2px&quot;&gt;&lt;/div&gt;" style="verticalAlign=top;align=left;overflow=fill;fontSize=12;fontFamily=Helvetica;html=1;fillColor=#f8cecc;strokeColor=#b85450;" parent="wOXKLo34Rl_MTIIsE6fA-0" vertex="1">
          <mxGeometry x="365" y="280" width="140" height="60" as="geometry" />
        </mxCell>
        <mxCell id="-lscuHo_CM5bR-sOlffL-4" value="1" style="endArrow=open;html=1;endSize=12;startArrow=diamondThin;startSize=14;startFill=0;edgeStyle=orthogonalEdgeStyle;align=left;verticalAlign=bottom;rounded=0;exitX=1;exitY=0.25;exitDx=0;exitDy=0;entryX=0;entryY=0.25;entryDx=0;entryDy=0;" parent="wOXKLo34Rl_MTIIsE6fA-0" source="-lscuHo_CM5bR-sOlffL-1" target="-lscuHo_CM5bR-sOlffL-2" edge="1">
          <mxGeometry x="-1" y="3" relative="1" as="geometry">
            <mxPoint x="130" y="370" as="sourcePoint" />
            <mxPoint x="290" y="370" as="targetPoint" />
            <Array as="points">
              <mxPoint x="280" y="145" />
              <mxPoint x="280" y="145" />
            </Array>
          </mxGeometry>
        </mxCell>
        <mxCell id="-lscuHo_CM5bR-sOlffL-5" value="Extends" style="endArrow=block;endSize=16;endFill=0;html=1;rounded=0;edgeStyle=orthogonalEdgeStyle;entryX=0.5;entryY=1;entryDx=0;entryDy=0;exitX=0.5;exitY=0;exitDx=0;exitDy=0;" parent="wOXKLo34Rl_MTIIsE6fA-0" source="-lscuHo_CM5bR-sOlffL-3" target="-lscuHo_CM5bR-sOlffL-2" edge="1">
          <mxGeometry width="160" relative="1" as="geometry">
            <mxPoint x="250" y="270" as="sourcePoint" />
            <mxPoint x="410" y="270" as="targetPoint" />
          </mxGeometry>
        </mxCell>
      </root>
    </mxGraphModel>
  </diagram>
  <diagram id="eSRXn3dfYRbUEKQaloFU" name="适配器模式">
    <mxGraphModel dx="981" dy="526" grid="1" gridSize="10" guides="1" tooltips="1" connect="1" arrows="1" fold="1" page="1" pageScale="1" pageWidth="827" pageHeight="1169" math="0" shadow="0">
      <root>
        <mxCell id="YJwI0ECjn2qUQ9ZONRo1-0" />
        <mxCell id="YJwI0ECjn2qUQ9ZONRo1-1" parent="YJwI0ECjn2qUQ9ZONRo1-0" />
        <mxCell id="yQCkCEuDm-G5fADbcrFu-0" value="" style="group" parent="YJwI0ECjn2qUQ9ZONRo1-1" vertex="1" connectable="0">
          <mxGeometry x="80" y="550" width="600" height="460" as="geometry" />
        </mxCell>
        <mxCell id="yQCkCEuDm-G5fADbcrFu-1" value="" style="rounded=0;whiteSpace=wrap;html=1;" parent="yQCkCEuDm-G5fADbcrFu-0" vertex="1">
          <mxGeometry width="600" height="460" as="geometry" />
        </mxCell>
        <mxCell id="yQCkCEuDm-G5fADbcrFu-2" value="" style="rounded=0;whiteSpace=wrap;html=1;" parent="yQCkCEuDm-G5fADbcrFu-0" vertex="1">
          <mxGeometry y="80" width="600" height="380" as="geometry" />
        </mxCell>
        <mxCell id="yQCkCEuDm-G5fADbcrFu-3" value="模式名称" style="rounded=0;whiteSpace=wrap;html=1;" parent="yQCkCEuDm-G5fADbcrFu-0" vertex="1">
          <mxGeometry width="150" height="80" as="geometry" />
        </mxCell>
        <mxCell id="yQCkCEuDm-G5fADbcrFu-4" value="适配器模式" style="rounded=0;whiteSpace=wrap;html=1;" parent="yQCkCEuDm-G5fADbcrFu-0" vertex="1">
          <mxGeometry x="150" width="240" height="40" as="geometry" />
        </mxCell>
        <mxCell id="yQCkCEuDm-G5fADbcrFu-5" value="Adapter Pattern" style="rounded=0;whiteSpace=wrap;html=1;" parent="yQCkCEuDm-G5fADbcrFu-0" vertex="1">
          <mxGeometry x="150" y="40" width="240" height="40" as="geometry" />
        </mxCell>
        <mxCell id="yQCkCEuDm-G5fADbcrFu-6" value="类型" style="rounded=0;whiteSpace=wrap;html=1;" parent="yQCkCEuDm-G5fADbcrFu-0" vertex="1">
          <mxGeometry x="390" width="90" height="80" as="geometry" />
        </mxCell>
        <mxCell id="yQCkCEuDm-G5fADbcrFu-7" value="17" style="rounded=0;whiteSpace=wrap;html=1;" parent="yQCkCEuDm-G5fADbcrFu-0" vertex="1">
          <mxGeometry x="15" y="90" width="35" height="30" as="geometry" />
        </mxCell>
        <mxCell id="yQCkCEuDm-G5fADbcrFu-8" value="描述：将一个类的接口变换为客户端所期待的另一个接口，从而使得原来不匹配而无法工作在一起的的两个类可以一起工作。" style="text;html=1;strokeColor=none;fillColor=none;align=left;verticalAlign=middle;whiteSpace=wrap;rounded=0;" parent="yQCkCEuDm-G5fADbcrFu-0" vertex="1">
          <mxGeometry x="30" y="400" width="540" height="30" as="geometry" />
        </mxCell>
        <mxCell id="65bPswzuBP8Ic7xAljUl-0" value="j结构类" style="rounded=0;whiteSpace=wrap;html=1;" vertex="1" parent="yQCkCEuDm-G5fADbcrFu-0">
          <mxGeometry x="480" width="120" height="80" as="geometry" />
        </mxCell>
        <mxCell id="65bPswzuBP8Ic7xAljUl-1" value="&lt;p style=&quot;margin:0px;margin-top:4px;text-align:center;&quot;&gt;&lt;b&gt;Class&lt;/b&gt;&lt;/p&gt;&lt;hr size=&quot;1&quot;/&gt;&lt;div style=&quot;height:2px;&quot;&gt;&lt;/div&gt;&lt;hr size=&quot;1&quot;/&gt;&lt;div style=&quot;height:2px;&quot;&gt;&lt;/div&gt;" style="verticalAlign=top;align=left;overflow=fill;fontSize=12;fontFamily=Helvetica;html=1;" vertex="1" parent="yQCkCEuDm-G5fADbcrFu-0">
          <mxGeometry x="40" y="160" width="140" height="60" as="geometry" />
        </mxCell>
        <mxCell id="65bPswzuBP8Ic7xAljUl-2" value="&lt;p style=&quot;margin:0px;margin-top:4px;text-align:center;&quot;&gt;&lt;b&gt;Class&lt;/b&gt;&lt;/p&gt;&lt;hr size=&quot;1&quot;/&gt;&lt;div style=&quot;height:2px;&quot;&gt;&lt;/div&gt;&lt;hr size=&quot;1&quot;/&gt;&lt;div style=&quot;height:2px;&quot;&gt;&lt;/div&gt;" style="verticalAlign=top;align=left;overflow=fill;fontSize=12;fontFamily=Helvetica;html=1;" vertex="1" parent="yQCkCEuDm-G5fADbcrFu-0">
          <mxGeometry x="230" y="160" width="140" height="60" as="geometry" />
        </mxCell>
        <mxCell id="65bPswzuBP8Ic7xAljUl-3" value="&lt;p style=&quot;margin:0px;margin-top:4px;text-align:center;&quot;&gt;&lt;b&gt;Class&lt;/b&gt;&lt;/p&gt;&lt;hr size=&quot;1&quot;/&gt;&lt;div style=&quot;height:2px;&quot;&gt;&lt;/div&gt;&lt;hr size=&quot;1&quot;/&gt;&lt;div style=&quot;height:2px;&quot;&gt;&lt;/div&gt;" style="verticalAlign=top;align=left;overflow=fill;fontSize=12;fontFamily=Helvetica;html=1;" vertex="1" parent="yQCkCEuDm-G5fADbcrFu-0">
          <mxGeometry x="230" y="300" width="140" height="60" as="geometry" />
        </mxCell>
        <mxCell id="65bPswzuBP8Ic7xAljUl-4" value="&lt;p style=&quot;margin: 0px ; margin-top: 4px ; text-align: center&quot;&gt;&lt;b&gt;Adaptee&lt;/b&gt;&lt;/p&gt;&lt;hr size=&quot;1&quot;&gt;&lt;div style=&quot;height: 2px&quot;&gt;&lt;/div&gt;&lt;hr size=&quot;1&quot;&gt;&lt;div style=&quot;height: 2px&quot;&gt;+SpecificRequest()&lt;/div&gt;" style="verticalAlign=top;align=left;overflow=fill;fontSize=12;fontFamily=Helvetica;html=1;fillColor=#fff2cc;strokeColor=#d6b656;" vertex="1" parent="yQCkCEuDm-G5fADbcrFu-0">
          <mxGeometry x="440" y="300" width="140" height="60" as="geometry" />
        </mxCell>
        <mxCell id="65bPswzuBP8Ic7xAljUl-5" value="&lt;p style=&quot;margin: 0px ; margin-top: 4px ; text-align: center&quot;&gt;&lt;b&gt;Client&lt;/b&gt;&lt;/p&gt;&lt;hr size=&quot;1&quot;&gt;&lt;div style=&quot;height: 2px&quot;&gt;&lt;/div&gt;&lt;hr size=&quot;1&quot;&gt;&lt;div style=&quot;height: 2px&quot;&gt;&lt;/div&gt;" style="verticalAlign=top;align=left;overflow=fill;fontSize=12;fontFamily=Helvetica;html=1;fillColor=#fff2cc;strokeColor=#d6b656;" vertex="1" parent="yQCkCEuDm-G5fADbcrFu-0">
          <mxGeometry x="40" y="160" width="140" height="60" as="geometry" />
        </mxCell>
        <mxCell id="65bPswzuBP8Ic7xAljUl-6" value="&lt;p style=&quot;margin: 0px ; margin-top: 4px ; text-align: center&quot;&gt;&lt;b&gt;Target&lt;/b&gt;&lt;/p&gt;&lt;hr size=&quot;1&quot;&gt;&lt;div style=&quot;height: 2px&quot;&gt;&lt;/div&gt;&lt;hr size=&quot;1&quot;&gt;&lt;div style=&quot;height: 2px&quot;&gt;+Request()&lt;/div&gt;" style="verticalAlign=top;align=left;overflow=fill;fontSize=12;fontFamily=Helvetica;html=1;fillColor=#fff2cc;strokeColor=#d6b656;" vertex="1" parent="yQCkCEuDm-G5fADbcrFu-0">
          <mxGeometry x="230" y="160" width="140" height="60" as="geometry" />
        </mxCell>
        <mxCell id="65bPswzuBP8Ic7xAljUl-7" value="&lt;p style=&quot;margin: 0px ; margin-top: 4px ; text-align: center&quot;&gt;&lt;b&gt;Adapter&lt;/b&gt;&lt;/p&gt;&lt;hr size=&quot;1&quot;&gt;&lt;div style=&quot;height: 2px&quot;&gt;&lt;/div&gt;&lt;hr size=&quot;1&quot;&gt;&lt;div style=&quot;height: 2px&quot;&gt;&lt;/div&gt;" style="verticalAlign=top;align=left;overflow=fill;fontSize=12;fontFamily=Helvetica;html=1;fillColor=#fff2cc;strokeColor=#d6b656;" vertex="1" parent="yQCkCEuDm-G5fADbcrFu-0">
          <mxGeometry x="230" y="300" width="140" height="60" as="geometry" />
        </mxCell>
        <mxCell id="65bPswzuBP8Ic7xAljUl-8" value="" style="endArrow=open;endFill=1;endSize=12;html=1;rounded=0;edgeStyle=orthogonalEdgeStyle;exitX=1;exitY=0.25;exitDx=0;exitDy=0;entryX=0;entryY=0.25;entryDx=0;entryDy=0;" edge="1" parent="yQCkCEuDm-G5fADbcrFu-0" source="65bPswzuBP8Ic7xAljUl-5" target="65bPswzuBP8Ic7xAljUl-6">
          <mxGeometry width="160" relative="1" as="geometry">
            <mxPoint x="250" y="140" as="sourcePoint" />
            <mxPoint x="410" y="140" as="targetPoint" />
          </mxGeometry>
        </mxCell>
        <mxCell id="65bPswzuBP8Ic7xAljUl-9" value="Extends" style="endArrow=block;endSize=16;endFill=0;html=1;rounded=0;edgeStyle=orthogonalEdgeStyle;exitX=0.5;exitY=0;exitDx=0;exitDy=0;entryX=0.5;entryY=1;entryDx=0;entryDy=0;" edge="1" parent="yQCkCEuDm-G5fADbcrFu-0" source="65bPswzuBP8Ic7xAljUl-7" target="65bPswzuBP8Ic7xAljUl-6">
          <mxGeometry width="160" relative="1" as="geometry">
            <mxPoint x="250" y="140" as="sourcePoint" />
            <mxPoint x="314" y="220" as="targetPoint" />
          </mxGeometry>
        </mxCell>
        <mxCell id="65bPswzuBP8Ic7xAljUl-10" value="" style="endArrow=open;endFill=1;endSize=12;html=1;rounded=0;edgeStyle=orthogonalEdgeStyle;exitX=1;exitY=0.25;exitDx=0;exitDy=0;" edge="1" parent="yQCkCEuDm-G5fADbcrFu-0" source="65bPswzuBP8Ic7xAljUl-7">
          <mxGeometry width="160" relative="1" as="geometry">
            <mxPoint x="380" y="269.5" as="sourcePoint" />
            <mxPoint x="440" y="315" as="targetPoint" />
          </mxGeometry>
        </mxCell>
        <mxCell id="65bPswzuBP8Ic7xAljUl-11" value="+adaptee" style="text;html=1;strokeColor=none;fillColor=none;align=center;verticalAlign=middle;whiteSpace=wrap;rounded=0;" vertex="1" parent="yQCkCEuDm-G5fADbcrFu-0">
          <mxGeometry x="370" y="290" width="60" height="30" as="geometry" />
        </mxCell>
      </root>
    </mxGraphModel>
  </diagram>
  <diagram id="lJnSxjEXL4uIfCt2LfXm" name="迭代器模式">
    <mxGraphModel dx="1422" dy="762" grid="1" gridSize="10" guides="1" tooltips="1" connect="1" arrows="1" fold="1" page="1" pageScale="1" pageWidth="827" pageHeight="1169" math="0" shadow="0">
      <root>
        <mxCell id="KfYTFBevQBWJZCmGV-rw-0" />
        <mxCell id="KfYTFBevQBWJZCmGV-rw-1" parent="KfYTFBevQBWJZCmGV-rw-0" />
        <mxCell id="lkBdWs4EMXe2XOe4VkwY-0" value="" style="group" vertex="1" connectable="0" parent="KfYTFBevQBWJZCmGV-rw-1">
          <mxGeometry x="80" y="550" width="600" height="460" as="geometry" />
        </mxCell>
        <mxCell id="lkBdWs4EMXe2XOe4VkwY-1" value="" style="rounded=0;whiteSpace=wrap;html=1;" vertex="1" parent="lkBdWs4EMXe2XOe4VkwY-0">
          <mxGeometry width="600" height="460" as="geometry" />
        </mxCell>
        <mxCell id="lkBdWs4EMXe2XOe4VkwY-2" value="" style="rounded=0;whiteSpace=wrap;html=1;" vertex="1" parent="lkBdWs4EMXe2XOe4VkwY-0">
          <mxGeometry y="80" width="600" height="380" as="geometry" />
        </mxCell>
        <mxCell id="lkBdWs4EMXe2XOe4VkwY-3" value="模式名称" style="rounded=0;whiteSpace=wrap;html=1;" vertex="1" parent="lkBdWs4EMXe2XOe4VkwY-0">
          <mxGeometry width="150" height="80" as="geometry" />
        </mxCell>
        <mxCell id="lkBdWs4EMXe2XOe4VkwY-4" value="迭代器模式" style="rounded=0;whiteSpace=wrap;html=1;" vertex="1" parent="lkBdWs4EMXe2XOe4VkwY-0">
          <mxGeometry x="150" width="240" height="40" as="geometry" />
        </mxCell>
        <mxCell id="lkBdWs4EMXe2XOe4VkwY-5" value="Iterator Pattern" style="rounded=0;whiteSpace=wrap;html=1;" vertex="1" parent="lkBdWs4EMXe2XOe4VkwY-0">
          <mxGeometry x="150" y="40" width="240" height="40" as="geometry" />
        </mxCell>
        <mxCell id="lkBdWs4EMXe2XOe4VkwY-6" value="类型" style="rounded=0;whiteSpace=wrap;html=1;" vertex="1" parent="lkBdWs4EMXe2XOe4VkwY-0">
          <mxGeometry x="390" width="90" height="80" as="geometry" />
        </mxCell>
        <mxCell id="lkBdWs4EMXe2XOe4VkwY-7" value="6" style="rounded=0;whiteSpace=wrap;html=1;" vertex="1" parent="lkBdWs4EMXe2XOe4VkwY-0">
          <mxGeometry x="15" y="90" width="35" height="30" as="geometry" />
        </mxCell>
        <mxCell id="lkBdWs4EMXe2XOe4VkwY-8" value="描述：提供一种方法访问一个容器对象中的各个元素，而又不需要暴露该对象的内部细节。" style="text;html=1;strokeColor=none;fillColor=none;align=left;verticalAlign=middle;whiteSpace=wrap;rounded=0;" vertex="1" parent="lkBdWs4EMXe2XOe4VkwY-0">
          <mxGeometry x="30" y="400" width="540" height="30" as="geometry" />
        </mxCell>
        <mxCell id="o5TaynvRRWgAn3Ou8MH5-0" value="创造类" style="rounded=0;whiteSpace=wrap;html=1;align=center;" vertex="1" parent="lkBdWs4EMXe2XOe4VkwY-0">
          <mxGeometry x="480" width="120" height="80" as="geometry" />
        </mxCell>
        <mxCell id="o5TaynvRRWgAn3Ou8MH5-1" value="&lt;p style=&quot;margin:0px;margin-top:4px;text-align:center;&quot;&gt;&lt;b&gt;Class&lt;/b&gt;&lt;/p&gt;&lt;hr size=&quot;1&quot;/&gt;&lt;div style=&quot;height:2px;&quot;&gt;&lt;/div&gt;&lt;hr size=&quot;1&quot;/&gt;&lt;div style=&quot;height:2px;&quot;&gt;&lt;/div&gt;" style="verticalAlign=top;align=left;overflow=fill;fontSize=12;fontFamily=Helvetica;html=1;" vertex="1" parent="lkBdWs4EMXe2XOe4VkwY-0">
          <mxGeometry x="90" y="120" width="140" height="60" as="geometry" />
        </mxCell>
        <mxCell id="o5TaynvRRWgAn3Ou8MH5-2" value="&lt;p style=&quot;margin:0px;margin-top:4px;text-align:center;&quot;&gt;&lt;b&gt;Class&lt;/b&gt;&lt;/p&gt;&lt;hr size=&quot;1&quot;/&gt;&lt;div style=&quot;height:2px;&quot;&gt;&lt;/div&gt;&lt;hr size=&quot;1&quot;/&gt;&lt;div style=&quot;height:2px;&quot;&gt;&lt;/div&gt;" style="verticalAlign=top;align=left;overflow=fill;fontSize=12;fontFamily=Helvetica;html=1;" vertex="1" parent="lkBdWs4EMXe2XOe4VkwY-0">
          <mxGeometry x="334" y="120" width="140" height="130" as="geometry" />
        </mxCell>
        <mxCell id="o5TaynvRRWgAn3Ou8MH5-3" value="&lt;p style=&quot;margin: 0px ; margin-top: 4px ; text-align: center&quot;&gt;&lt;b&gt;ConcreteAggregate&lt;/b&gt;&lt;/p&gt;&lt;hr size=&quot;1&quot;&gt;&lt;div style=&quot;height: 2px&quot;&gt;&lt;/div&gt;&lt;hr size=&quot;1&quot;&gt;&lt;div style=&quot;height: 2px&quot;&gt;&lt;/div&gt;" style="verticalAlign=top;align=left;overflow=fill;fontSize=12;fontFamily=Helvetica;html=1;fillColor=#f8cecc;strokeColor=#b85450;" vertex="1" parent="lkBdWs4EMXe2XOe4VkwY-0">
          <mxGeometry x="90" y="320" width="140" height="60" as="geometry" />
        </mxCell>
        <mxCell id="o5TaynvRRWgAn3Ou8MH5-4" value="&lt;p style=&quot;margin: 0px ; margin-top: 4px ; text-align: center&quot;&gt;&lt;b&gt;ConcreteIterator&lt;/b&gt;&lt;/p&gt;&lt;hr size=&quot;1&quot;&gt;&lt;div style=&quot;height: 2px&quot;&gt;&lt;/div&gt;&lt;hr size=&quot;1&quot;&gt;&lt;div style=&quot;height: 2px&quot;&gt;&lt;/div&gt;" style="verticalAlign=top;align=left;overflow=fill;fontSize=12;fontFamily=Helvetica;html=1;fillColor=#f8cecc;strokeColor=#b85450;" vertex="1" parent="lkBdWs4EMXe2XOe4VkwY-0">
          <mxGeometry x="334" y="320" width="140" height="60" as="geometry" />
        </mxCell>
        <mxCell id="o5TaynvRRWgAn3Ou8MH5-5" value="&lt;p style=&quot;margin: 0px ; margin-top: 4px ; text-align: center&quot;&gt;&lt;b&gt;Aggregate&lt;/b&gt;&lt;/p&gt;&lt;hr size=&quot;1&quot;&gt;&lt;div style=&quot;height: 2px&quot;&gt;&lt;/div&gt;&lt;hr size=&quot;1&quot;&gt;&lt;div style=&quot;height: 2px&quot;&gt;+ConcreteIterator()&lt;/div&gt;" style="verticalAlign=top;align=left;overflow=fill;fontSize=12;fontFamily=Helvetica;html=1;fillColor=#f8cecc;strokeColor=#b85450;" vertex="1" parent="lkBdWs4EMXe2XOe4VkwY-0">
          <mxGeometry x="90" y="120" width="140" height="60" as="geometry" />
        </mxCell>
        <mxCell id="o5TaynvRRWgAn3Ou8MH5-6" value="&lt;p style=&quot;margin: 0px ; margin-top: 4px ; text-align: center&quot;&gt;&lt;b&gt;Iterator&lt;/b&gt;&lt;/p&gt;&lt;hr size=&quot;1&quot;&gt;&lt;div style=&quot;height: 2px&quot;&gt;&lt;/div&gt;&lt;hr size=&quot;1&quot;&gt;&lt;div style=&quot;height: 2px&quot;&gt;+First()&lt;/div&gt;&lt;div style=&quot;height: 2px&quot;&gt;&lt;br&gt;&lt;/div&gt;&lt;div style=&quot;height: 2px&quot;&gt;&lt;br&gt;&lt;/div&gt;&lt;div style=&quot;height: 2px&quot;&gt;&lt;br&gt;&lt;/div&gt;&lt;div style=&quot;height: 2px&quot;&gt;&lt;br&gt;&lt;/div&gt;&lt;div style=&quot;height: 2px&quot;&gt;&lt;br&gt;&lt;/div&gt;&lt;div style=&quot;height: 2px&quot;&gt;&lt;br&gt;&lt;/div&gt;&lt;div style=&quot;height: 2px&quot;&gt;&lt;br&gt;&lt;/div&gt;&lt;div style=&quot;height: 2px&quot;&gt;&lt;br&gt;&lt;/div&gt;&lt;div style=&quot;height: 2px&quot;&gt;+Next()&lt;/div&gt;&lt;div style=&quot;height: 2px&quot;&gt;&lt;br&gt;&lt;/div&gt;&lt;div style=&quot;height: 2px&quot;&gt;&lt;br&gt;&lt;/div&gt;&lt;div style=&quot;height: 2px&quot;&gt;&lt;br&gt;&lt;/div&gt;&lt;div style=&quot;height: 2px&quot;&gt;&lt;br&gt;&lt;/div&gt;&lt;div style=&quot;height: 2px&quot;&gt;&lt;br&gt;&lt;/div&gt;&lt;div style=&quot;height: 2px&quot;&gt;&lt;br&gt;&lt;/div&gt;&lt;div style=&quot;height: 2px&quot;&gt;&lt;br&gt;&lt;/div&gt;&lt;div style=&quot;height: 2px&quot;&gt;&lt;br&gt;&lt;/div&gt;&lt;div style=&quot;height: 2px&quot;&gt;&lt;br&gt;&lt;/div&gt;&lt;div style=&quot;height: 2px&quot;&gt;+isDone()&lt;/div&gt;&lt;div style=&quot;height: 2px&quot;&gt;&lt;br&gt;&lt;/div&gt;&lt;div style=&quot;height: 2px&quot;&gt;&lt;br&gt;&lt;/div&gt;&lt;div style=&quot;height: 2px&quot;&gt;&lt;br&gt;&lt;/div&gt;&lt;div style=&quot;height: 2px&quot;&gt;&lt;br&gt;&lt;/div&gt;&lt;div style=&quot;height: 2px&quot;&gt;&lt;br&gt;&lt;/div&gt;&lt;div style=&quot;height: 2px&quot;&gt;&lt;br&gt;&lt;/div&gt;&lt;div style=&quot;height: 2px&quot;&gt;&lt;br&gt;&lt;/div&gt;&lt;div style=&quot;height: 2px&quot;&gt;&lt;br&gt;&lt;/div&gt;&lt;div style=&quot;height: 2px&quot;&gt;&lt;br&gt;&lt;/div&gt;&lt;div style=&quot;height: 2px&quot;&gt;&lt;br&gt;&lt;/div&gt;&lt;div style=&quot;height: 2px&quot;&gt;+ConcreteItem()&lt;/div&gt;" style="verticalAlign=top;align=left;overflow=fill;fontSize=12;fontFamily=Helvetica;html=1;fillColor=#f8cecc;strokeColor=#b85450;" vertex="1" parent="lkBdWs4EMXe2XOe4VkwY-0">
          <mxGeometry x="334" y="120" width="140" height="130" as="geometry" />
        </mxCell>
        <mxCell id="o5TaynvRRWgAn3Ou8MH5-8" value="Extends" style="endArrow=block;endSize=16;endFill=0;html=1;rounded=0;edgeStyle=orthogonalEdgeStyle;exitX=0.5;exitY=0;exitDx=0;exitDy=0;entryX=0.5;entryY=1;entryDx=0;entryDy=0;" edge="1" parent="lkBdWs4EMXe2XOe4VkwY-0" source="o5TaynvRRWgAn3Ou8MH5-3" target="o5TaynvRRWgAn3Ou8MH5-5">
          <mxGeometry width="160" relative="1" as="geometry">
            <mxPoint x="120" y="229.5" as="sourcePoint" />
            <mxPoint x="280" y="229.5" as="targetPoint" />
          </mxGeometry>
        </mxCell>
        <mxCell id="o5TaynvRRWgAn3Ou8MH5-7" value="Extends" style="endArrow=block;endSize=16;endFill=0;html=1;rounded=0;edgeStyle=orthogonalEdgeStyle;entryX=0.5;entryY=1;entryDx=0;entryDy=0;" edge="1" parent="lkBdWs4EMXe2XOe4VkwY-0" source="o5TaynvRRWgAn3Ou8MH5-4" target="o5TaynvRRWgAn3Ou8MH5-6">
          <mxGeometry width="160" relative="1" as="geometry">
            <mxPoint x="300" y="290" as="sourcePoint" />
            <mxPoint x="460" y="290" as="targetPoint" />
          </mxGeometry>
        </mxCell>
        <mxCell id="o5TaynvRRWgAn3Ou8MH5-9" value="Use" style="endArrow=open;endSize=12;dashed=1;html=1;rounded=0;edgeStyle=orthogonalEdgeStyle;exitX=1;exitY=0.25;exitDx=0;exitDy=0;entryX=0;entryY=0.25;entryDx=0;entryDy=0;" edge="1" parent="lkBdWs4EMXe2XOe4VkwY-0" source="o5TaynvRRWgAn3Ou8MH5-3" target="o5TaynvRRWgAn3Ou8MH5-4">
          <mxGeometry width="160" relative="1" as="geometry">
            <mxPoint x="250" y="340" as="sourcePoint" />
            <mxPoint x="410" y="340" as="targetPoint" />
          </mxGeometry>
        </mxCell>
        <mxCell id="o5TaynvRRWgAn3Ou8MH5-10" value="" style="endArrow=open;endFill=1;endSize=12;html=1;rounded=0;edgeStyle=orthogonalEdgeStyle;exitX=0;exitY=0.75;exitDx=0;exitDy=0;entryX=1;entryY=0.75;entryDx=0;entryDy=0;" edge="1" parent="lkBdWs4EMXe2XOe4VkwY-0" source="o5TaynvRRWgAn3Ou8MH5-4" target="o5TaynvRRWgAn3Ou8MH5-3">
          <mxGeometry width="160" relative="1" as="geometry">
            <mxPoint x="254" y="414.5" as="sourcePoint" />
            <mxPoint x="414" y="414.5" as="targetPoint" />
          </mxGeometry>
        </mxCell>
      </root>
    </mxGraphModel>
  </diagram>
  <diagram id="mmN-LsYXCf5aC3AW979M" name="组合模式">
    <mxGraphModel dx="1185" dy="635" grid="1" gridSize="10" guides="1" tooltips="1" connect="1" arrows="1" fold="1" page="1" pageScale="1" pageWidth="827" pageHeight="1169" math="0" shadow="0">
      <root>
        <mxCell id="spdvgyWYMOIFumrLMVr0-0" />
        <mxCell id="spdvgyWYMOIFumrLMVr0-1" parent="spdvgyWYMOIFumrLMVr0-0" />
        <mxCell id="6633r1gFCYUMJxhvM4Rt-0" value="" style="group" parent="spdvgyWYMOIFumrLMVr0-1" vertex="1" connectable="0">
          <mxGeometry x="120" y="480" width="600" height="460" as="geometry" />
        </mxCell>
        <mxCell id="6633r1gFCYUMJxhvM4Rt-1" value="" style="rounded=0;whiteSpace=wrap;html=1;" parent="6633r1gFCYUMJxhvM4Rt-0" vertex="1">
          <mxGeometry width="600" height="460" as="geometry" />
        </mxCell>
        <mxCell id="6633r1gFCYUMJxhvM4Rt-2" value="" style="rounded=0;whiteSpace=wrap;html=1;" parent="6633r1gFCYUMJxhvM4Rt-0" vertex="1">
          <mxGeometry y="80" width="600" height="380" as="geometry" />
        </mxCell>
        <mxCell id="6633r1gFCYUMJxhvM4Rt-3" value="模式名称" style="rounded=0;whiteSpace=wrap;html=1;" parent="6633r1gFCYUMJxhvM4Rt-0" vertex="1">
          <mxGeometry width="150" height="80" as="geometry" />
        </mxCell>
        <mxCell id="6633r1gFCYUMJxhvM4Rt-4" value="组合模式" style="rounded=0;whiteSpace=wrap;html=1;" parent="6633r1gFCYUMJxhvM4Rt-0" vertex="1">
          <mxGeometry x="150" width="240" height="40" as="geometry" />
        </mxCell>
        <mxCell id="6633r1gFCYUMJxhvM4Rt-5" value="Composite Pattern" style="rounded=0;whiteSpace=wrap;html=1;" parent="6633r1gFCYUMJxhvM4Rt-0" vertex="1">
          <mxGeometry x="150" y="40" width="240" height="40" as="geometry" />
        </mxCell>
        <mxCell id="6633r1gFCYUMJxhvM4Rt-6" value="类型" style="rounded=0;whiteSpace=wrap;html=1;" parent="6633r1gFCYUMJxhvM4Rt-0" vertex="1">
          <mxGeometry x="390" width="90" height="80" as="geometry" />
        </mxCell>
        <mxCell id="6633r1gFCYUMJxhvM4Rt-7" value="18" style="rounded=0;whiteSpace=wrap;html=1;" parent="6633r1gFCYUMJxhvM4Rt-0" vertex="1">
          <mxGeometry x="15" y="90" width="35" height="30" as="geometry" />
        </mxCell>
        <mxCell id="6633r1gFCYUMJxhvM4Rt-8" value="描述：将对象组装成为树状结构以表示“部分-整体”的层次结构，使得用户对单个对象和组合对象的使用具备一致性。" style="text;html=1;strokeColor=none;fillColor=none;align=left;verticalAlign=middle;whiteSpace=wrap;rounded=0;" parent="6633r1gFCYUMJxhvM4Rt-0" vertex="1">
          <mxGeometry x="30" y="400" width="540" height="30" as="geometry" />
        </mxCell>
        <mxCell id="NqAgDlAFBFA798qXfjeA-0" value="结构类" style="rounded=0;whiteSpace=wrap;html=1;" vertex="1" parent="6633r1gFCYUMJxhvM4Rt-0">
          <mxGeometry x="480" width="120" height="80" as="geometry" />
        </mxCell>
        <mxCell id="NqAgDlAFBFA798qXfjeA-1" value="&lt;p style=&quot;margin: 0px ; margin-top: 4px ; text-align: center&quot;&gt;&lt;b&gt;Client&lt;/b&gt;&lt;/p&gt;&lt;hr size=&quot;1&quot;&gt;&lt;div style=&quot;height: 2px&quot;&gt;&lt;/div&gt;&lt;hr size=&quot;1&quot;&gt;&lt;div style=&quot;height: 2px&quot;&gt;&lt;/div&gt;" style="verticalAlign=top;align=left;overflow=fill;fontSize=12;fontFamily=Helvetica;html=1;fillColor=#fff2cc;strokeColor=#d6b656;" vertex="1" parent="6633r1gFCYUMJxhvM4Rt-0">
          <mxGeometry x="80" y="145" width="140" height="60" as="geometry" />
        </mxCell>
        <mxCell id="NqAgDlAFBFA798qXfjeA-2" value="&lt;p style=&quot;margin: 0px ; margin-top: 4px ; text-align: center&quot;&gt;&lt;b&gt;Component&lt;/b&gt;&lt;/p&gt;&lt;hr size=&quot;1&quot;&gt;&lt;div style=&quot;height: 2px&quot;&gt;&lt;/div&gt;&lt;hr size=&quot;1&quot;&gt;&lt;div style=&quot;height: 2px&quot;&gt;+Operation()&lt;/div&gt;&lt;div style=&quot;height: 2px&quot;&gt;&lt;br&gt;&lt;/div&gt;&lt;div style=&quot;height: 2px&quot;&gt;&lt;br&gt;&lt;/div&gt;&lt;div style=&quot;height: 2px&quot;&gt;&lt;br&gt;&lt;/div&gt;&lt;div style=&quot;height: 2px&quot;&gt;&lt;br&gt;&lt;/div&gt;&lt;div style=&quot;height: 2px&quot;&gt;&lt;br&gt;&lt;/div&gt;&lt;div style=&quot;height: 2px&quot;&gt;&lt;br&gt;&lt;/div&gt;&lt;div style=&quot;height: 2px&quot;&gt;&lt;br&gt;&lt;/div&gt;&lt;div style=&quot;height: 2px&quot;&gt;+Add(Parameter1: Component)&lt;/div&gt;&lt;div style=&quot;height: 2px&quot;&gt;&lt;br&gt;&lt;/div&gt;&lt;div style=&quot;height: 2px&quot;&gt;&lt;br&gt;&lt;/div&gt;&lt;div style=&quot;height: 2px&quot;&gt;&lt;br&gt;&lt;/div&gt;&lt;div style=&quot;height: 2px&quot;&gt;&lt;br&gt;&lt;/div&gt;&lt;div style=&quot;height: 2px&quot;&gt;&lt;br&gt;&lt;/div&gt;&lt;div style=&quot;height: 2px&quot;&gt;&lt;br&gt;&lt;/div&gt;&lt;div style=&quot;height: 2px&quot;&gt;+Remove(Parameter1: Component)&lt;br&gt;&lt;/div&gt;&lt;div style=&quot;height: 2px&quot;&gt;&lt;br&gt;&lt;/div&gt;&lt;div style=&quot;height: 2px&quot;&gt;&lt;br&gt;&lt;/div&gt;&lt;div style=&quot;height: 2px&quot;&gt;&lt;br&gt;&lt;/div&gt;&lt;div style=&quot;height: 2px&quot;&gt;&lt;br&gt;&lt;/div&gt;&lt;div style=&quot;height: 2px&quot;&gt;&lt;br&gt;&lt;/div&gt;&lt;div style=&quot;height: 2px&quot;&gt;&lt;br&gt;&lt;/div&gt;&lt;div style=&quot;height: 2px&quot;&gt;+GetChild(int)&lt;/div&gt;" style="verticalAlign=top;align=left;overflow=fill;fontSize=12;fontFamily=Helvetica;html=1;fillColor=#fff2cc;strokeColor=#d6b656;" vertex="1" parent="6633r1gFCYUMJxhvM4Rt-0">
          <mxGeometry x="294" y="110" width="206" height="130" as="geometry" />
        </mxCell>
        <mxCell id="NqAgDlAFBFA798qXfjeA-3" value="&lt;p style=&quot;margin: 0px ; margin-top: 4px ; text-align: center&quot;&gt;&lt;b&gt;Leaf&lt;/b&gt;&lt;/p&gt;&lt;hr size=&quot;1&quot;&gt;&lt;div style=&quot;height: 2px&quot;&gt;&lt;/div&gt;&lt;hr size=&quot;1&quot;&gt;&lt;div style=&quot;height: 2px&quot;&gt;&lt;/div&gt;" style="verticalAlign=top;align=left;overflow=fill;fontSize=12;fontFamily=Helvetica;html=1;fillColor=#fff2cc;strokeColor=#d6b656;" vertex="1" parent="6633r1gFCYUMJxhvM4Rt-0">
          <mxGeometry x="224" y="310" width="140" height="60" as="geometry" />
        </mxCell>
        <mxCell id="NqAgDlAFBFA798qXfjeA-4" value="&lt;p style=&quot;margin: 0px ; margin-top: 4px ; text-align: center&quot;&gt;&lt;b&gt;Composite&lt;/b&gt;&lt;/p&gt;&lt;hr size=&quot;1&quot;&gt;&lt;div style=&quot;height: 2px&quot;&gt;&lt;/div&gt;&lt;hr size=&quot;1&quot;&gt;&lt;div style=&quot;height: 2px&quot;&gt;&lt;/div&gt;" style="verticalAlign=top;align=left;overflow=fill;fontSize=12;fontFamily=Helvetica;html=1;fillColor=#fff2cc;strokeColor=#d6b656;" vertex="1" parent="6633r1gFCYUMJxhvM4Rt-0">
          <mxGeometry x="430" y="310" width="140" height="60" as="geometry" />
        </mxCell>
        <mxCell id="NqAgDlAFBFA798qXfjeA-5" value="Extends" style="endArrow=block;endSize=16;endFill=0;html=1;rounded=0;edgeStyle=orthogonalEdgeStyle;exitX=0.5;exitY=0;exitDx=0;exitDy=0;" edge="1" parent="6633r1gFCYUMJxhvM4Rt-0" source="NqAgDlAFBFA798qXfjeA-3" target="NqAgDlAFBFA798qXfjeA-2">
          <mxGeometry width="160" relative="1" as="geometry">
            <mxPoint x="210" y="300" as="sourcePoint" />
            <mxPoint x="370" y="300" as="targetPoint" />
          </mxGeometry>
        </mxCell>
        <mxCell id="NqAgDlAFBFA798qXfjeA-6" value="Extends" style="endArrow=block;endSize=16;endFill=0;html=1;rounded=0;edgeStyle=orthogonalEdgeStyle;exitX=0.5;exitY=0;exitDx=0;exitDy=0;entryX=0.5;entryY=1;entryDx=0;entryDy=0;" edge="1" parent="6633r1gFCYUMJxhvM4Rt-0" source="NqAgDlAFBFA798qXfjeA-4" target="NqAgDlAFBFA798qXfjeA-2">
          <mxGeometry width="160" relative="1" as="geometry">
            <mxPoint x="210" y="300" as="sourcePoint" />
            <mxPoint x="370" y="300" as="targetPoint" />
          </mxGeometry>
        </mxCell>
        <mxCell id="NqAgDlAFBFA798qXfjeA-7" value="" style="endArrow=open;html=1;endSize=12;startArrow=diamondThin;startSize=14;startFill=0;edgeStyle=orthogonalEdgeStyle;align=left;verticalAlign=bottom;rounded=0;exitX=0.75;exitY=0;exitDx=0;exitDy=0;entryX=1;entryY=0.5;entryDx=0;entryDy=0;" edge="1" parent="6633r1gFCYUMJxhvM4Rt-0" source="NqAgDlAFBFA798qXfjeA-4" target="NqAgDlAFBFA798qXfjeA-2">
          <mxGeometry x="-1" y="3" relative="1" as="geometry">
            <mxPoint x="210" y="300" as="sourcePoint" />
            <mxPoint x="370" y="300" as="targetPoint" />
          </mxGeometry>
        </mxCell>
        <mxCell id="NqAgDlAFBFA798qXfjeA-8" value="" style="endArrow=open;endFill=1;endSize=12;html=1;rounded=0;edgeStyle=orthogonalEdgeStyle;exitX=1;exitY=0.5;exitDx=0;exitDy=0;entryX=0;entryY=0.5;entryDx=0;entryDy=0;" edge="1" parent="6633r1gFCYUMJxhvM4Rt-0" source="NqAgDlAFBFA798qXfjeA-1" target="NqAgDlAFBFA798qXfjeA-2">
          <mxGeometry width="160" relative="1" as="geometry">
            <mxPoint x="360" y="240" as="sourcePoint" />
            <mxPoint x="520" y="240" as="targetPoint" />
            <Array as="points">
              <mxPoint x="250" y="175" />
              <mxPoint x="250" y="175" />
            </Array>
          </mxGeometry>
        </mxCell>
      </root>
    </mxGraphModel>
  </diagram>
  <diagram id="0QE8CyS8tiZQ6Mt__koL" name="观察者模式">
    <mxGraphModel dx="981" dy="526" grid="1" gridSize="10" guides="1" tooltips="1" connect="1" arrows="1" fold="1" page="1" pageScale="1" pageWidth="827" pageHeight="1169" math="0" shadow="0">
      <root>
        <mxCell id="KPTN4APvACgzL4oBuiOm-0" />
        <mxCell id="KPTN4APvACgzL4oBuiOm-1" parent="KPTN4APvACgzL4oBuiOm-0" />
        <mxCell id="TFfGrWktBq7jWwwz_rLH-0" value="" style="group" vertex="1" connectable="0" parent="KPTN4APvACgzL4oBuiOm-1">
          <mxGeometry x="80" y="550" width="600" height="460" as="geometry" />
        </mxCell>
        <mxCell id="TFfGrWktBq7jWwwz_rLH-1" value="" style="rounded=0;whiteSpace=wrap;html=1;" vertex="1" parent="TFfGrWktBq7jWwwz_rLH-0">
          <mxGeometry width="600" height="460" as="geometry" />
        </mxCell>
        <mxCell id="TFfGrWktBq7jWwwz_rLH-2" value="" style="rounded=0;whiteSpace=wrap;html=1;" vertex="1" parent="TFfGrWktBq7jWwwz_rLH-0">
          <mxGeometry y="80" width="600" height="380" as="geometry" />
        </mxCell>
        <mxCell id="TFfGrWktBq7jWwwz_rLH-3" value="模式名称" style="rounded=0;whiteSpace=wrap;html=1;" vertex="1" parent="TFfGrWktBq7jWwwz_rLH-0">
          <mxGeometry width="150" height="80" as="geometry" />
        </mxCell>
        <mxCell id="TFfGrWktBq7jWwwz_rLH-4" value="观察者模式" style="rounded=0;whiteSpace=wrap;html=1;" vertex="1" parent="TFfGrWktBq7jWwwz_rLH-0">
          <mxGeometry x="150" width="240" height="40" as="geometry" />
        </mxCell>
        <mxCell id="TFfGrWktBq7jWwwz_rLH-5" value="Observer pattern" style="rounded=0;whiteSpace=wrap;html=1;" vertex="1" parent="TFfGrWktBq7jWwwz_rLH-0">
          <mxGeometry x="150" y="40" width="240" height="40" as="geometry" />
        </mxCell>
        <mxCell id="TFfGrWktBq7jWwwz_rLH-6" value="类型" style="rounded=0;whiteSpace=wrap;html=1;" vertex="1" parent="TFfGrWktBq7jWwwz_rLH-0">
          <mxGeometry x="390" width="90" height="80" as="geometry" />
        </mxCell>
        <mxCell id="TFfGrWktBq7jWwwz_rLH-7" value="10" style="rounded=0;whiteSpace=wrap;html=1;" vertex="1" parent="TFfGrWktBq7jWwwz_rLH-0">
          <mxGeometry x="15" y="90" width="35" height="30" as="geometry" />
        </mxCell>
        <mxCell id="TFfGrWktBq7jWwwz_rLH-8" value="描述：定义对象之间一对多的依赖关系，使得每当一个对象改变状态，则依赖它的对象都会得到通知并且自动进行更新。" style="text;html=1;strokeColor=none;fillColor=none;align=left;verticalAlign=middle;whiteSpace=wrap;rounded=0;" vertex="1" parent="TFfGrWktBq7jWwwz_rLH-0">
          <mxGeometry x="30" y="400" width="540" height="30" as="geometry" />
        </mxCell>
        <mxCell id="kgYr61UdvDeIZi1CpU1r-0" value="行为类" style="rounded=0;whiteSpace=wrap;html=1;align=center;" vertex="1" parent="TFfGrWktBq7jWwwz_rLH-0">
          <mxGeometry x="480" width="120" height="80" as="geometry" />
        </mxCell>
        <mxCell id="kgYr61UdvDeIZi1CpU1r-7" value="&lt;p style=&quot;margin: 0px ; margin-top: 4px ; text-align: center&quot;&gt;&lt;b&gt;Observer&lt;/b&gt;&lt;/p&gt;&lt;hr size=&quot;1&quot;&gt;&lt;div style=&quot;height: 2px&quot;&gt;&lt;/div&gt;&lt;hr size=&quot;1&quot;&gt;&lt;div style=&quot;height: 2px&quot;&gt;+Update()&lt;/div&gt;" style="verticalAlign=top;align=left;overflow=fill;fontSize=12;fontFamily=Helvetica;html=1;fillColor=#f8cecc;strokeColor=#b85450;" vertex="1" parent="TFfGrWktBq7jWwwz_rLH-0">
          <mxGeometry x="350" y="130" width="140" height="60" as="geometry" />
        </mxCell>
        <mxCell id="kgYr61UdvDeIZi1CpU1r-8" value="&lt;p style=&quot;margin: 0px ; margin-top: 4px ; text-align: center&quot;&gt;&lt;b&gt;ConcreteSubject&lt;/b&gt;&lt;/p&gt;&lt;hr size=&quot;1&quot;&gt;&lt;div style=&quot;height: 2px&quot;&gt;&lt;/div&gt;&lt;hr size=&quot;1&quot;&gt;&lt;div style=&quot;height: 2px&quot;&gt;&lt;/div&gt;" style="verticalAlign=top;align=left;overflow=fill;fontSize=12;fontFamily=Helvetica;html=1;fillColor=#f8cecc;strokeColor=#b85450;" vertex="1" parent="TFfGrWktBq7jWwwz_rLH-0">
          <mxGeometry x="110" y="310" width="140" height="60" as="geometry" />
        </mxCell>
        <mxCell id="kgYr61UdvDeIZi1CpU1r-9" value="&lt;p style=&quot;margin: 0px ; margin-top: 4px ; text-align: center&quot;&gt;&lt;b&gt;ConcreteObserver&lt;/b&gt;&lt;/p&gt;&lt;hr size=&quot;1&quot;&gt;&lt;div style=&quot;height: 2px&quot;&gt;&lt;/div&gt;&lt;hr size=&quot;1&quot;&gt;&lt;div style=&quot;height: 2px&quot;&gt;&lt;/div&gt;" style="verticalAlign=top;align=left;overflow=fill;fontSize=12;fontFamily=Helvetica;html=1;fillColor=#f8cecc;strokeColor=#b85450;" vertex="1" parent="TFfGrWktBq7jWwwz_rLH-0">
          <mxGeometry x="350" y="310" width="140" height="60" as="geometry" />
        </mxCell>
        <mxCell id="kgYr61UdvDeIZi1CpU1r-11" value="Extends" style="endArrow=block;endSize=16;endFill=0;html=1;rounded=0;edgeStyle=orthogonalEdgeStyle;entryX=0.5;entryY=1;entryDx=0;entryDy=0;" edge="1" parent="TFfGrWktBq7jWwwz_rLH-0" source="kgYr61UdvDeIZi1CpU1r-9" target="kgYr61UdvDeIZi1CpU1r-7">
          <mxGeometry width="160" relative="1" as="geometry">
            <mxPoint x="80" y="220" as="sourcePoint" />
            <mxPoint x="240" y="220" as="targetPoint" />
          </mxGeometry>
        </mxCell>
        <mxCell id="kgYr61UdvDeIZi1CpU1r-13" value="+subject" style="text;html=1;strokeColor=none;fillColor=none;align=center;verticalAlign=middle;whiteSpace=wrap;rounded=0;" vertex="1" parent="TFfGrWktBq7jWwwz_rLH-0">
          <mxGeometry x="250" y="130" width="60" height="30" as="geometry" />
        </mxCell>
        <mxCell id="kgYr61UdvDeIZi1CpU1r-2" value="&lt;p style=&quot;margin: 0px ; margin-top: 4px ; text-align: center&quot;&gt;&lt;b&gt;Subject&lt;/b&gt;&lt;/p&gt;&lt;hr size=&quot;1&quot;&gt;&lt;div style=&quot;height: 2px&quot;&gt;&lt;/div&gt;&lt;hr size=&quot;1&quot;&gt;&lt;div style=&quot;height: 2px&quot;&gt;+Attach(o: Observer)&lt;/div&gt;&lt;div style=&quot;height: 2px&quot;&gt;&lt;br&gt;&lt;/div&gt;&lt;div style=&quot;height: 2px&quot;&gt;&lt;br&gt;&lt;/div&gt;&lt;div style=&quot;height: 2px&quot;&gt;&lt;br&gt;&lt;/div&gt;&lt;div style=&quot;height: 2px&quot;&gt;&lt;br&gt;&lt;/div&gt;&lt;div style=&quot;height: 2px&quot;&gt;&lt;br&gt;&lt;/div&gt;&lt;div style=&quot;height: 2px&quot;&gt;&lt;br&gt;&lt;/div&gt;&lt;div style=&quot;height: 2px&quot;&gt;&lt;br&gt;&lt;/div&gt;&lt;div style=&quot;height: 2px&quot;&gt;&lt;br&gt;&lt;/div&gt;&lt;div style=&quot;height: 2px&quot;&gt;&lt;br&gt;&lt;/div&gt;&lt;div style=&quot;height: 2px&quot;&gt;+Detach(o: Observer)&lt;/div&gt;&lt;div style=&quot;height: 2px&quot;&gt;&lt;br&gt;&lt;/div&gt;&lt;div style=&quot;height: 2px&quot;&gt;&lt;br&gt;&lt;/div&gt;&lt;div style=&quot;height: 2px&quot;&gt;&lt;br&gt;&lt;/div&gt;&lt;div style=&quot;height: 2px&quot;&gt;&lt;br&gt;&lt;/div&gt;&lt;div style=&quot;height: 2px&quot;&gt;&lt;br&gt;&lt;/div&gt;&lt;div style=&quot;height: 2px&quot;&gt;&lt;br&gt;&lt;/div&gt;&lt;div style=&quot;height: 2px&quot;&gt;&lt;br&gt;&lt;/div&gt;&lt;div style=&quot;height: 2px&quot;&gt;&lt;br&gt;&lt;/div&gt;&lt;div style=&quot;height: 2px&quot;&gt;&lt;br&gt;&lt;/div&gt;&lt;div style=&quot;height: 2px&quot;&gt;+Notify()&lt;/div&gt;" style="verticalAlign=top;align=left;overflow=fill;fontSize=12;fontFamily=Helvetica;html=1;fillColor=#f8cecc;strokeColor=#b85450;" vertex="1" parent="KPTN4APvACgzL4oBuiOm-1">
          <mxGeometry x="190" y="680" width="140" height="120" as="geometry" />
        </mxCell>
        <mxCell id="kgYr61UdvDeIZi1CpU1r-10" value="Extends" style="endArrow=block;endSize=16;endFill=0;html=1;rounded=0;edgeStyle=orthogonalEdgeStyle;exitX=0.5;exitY=0;exitDx=0;exitDy=0;entryX=0.5;entryY=1;entryDx=0;entryDy=0;" edge="1" parent="KPTN4APvACgzL4oBuiOm-1" source="kgYr61UdvDeIZi1CpU1r-8" target="kgYr61UdvDeIZi1CpU1r-2">
          <mxGeometry width="160" relative="1" as="geometry">
            <mxPoint x="160" y="790" as="sourcePoint" />
            <mxPoint x="320" y="790" as="targetPoint" />
            <mxPoint as="offset" />
          </mxGeometry>
        </mxCell>
        <mxCell id="kgYr61UdvDeIZi1CpU1r-12" value="" style="endArrow=open;endFill=1;endSize=12;html=1;rounded=0;edgeStyle=orthogonalEdgeStyle;entryX=0;entryY=0.5;entryDx=0;entryDy=0;exitX=1;exitY=0.25;exitDx=0;exitDy=0;" edge="1" parent="KPTN4APvACgzL4oBuiOm-1" source="kgYr61UdvDeIZi1CpU1r-2" target="kgYr61UdvDeIZi1CpU1r-7">
          <mxGeometry width="160" relative="1" as="geometry">
            <mxPoint x="160" y="790" as="sourcePoint" />
            <mxPoint x="320" y="790" as="targetPoint" />
          </mxGeometry>
        </mxCell>
      </root>
    </mxGraphModel>
  </diagram>
  <diagram id="nDJx3sAVSLODCKM-29To" name="门面模式">
    <mxGraphModel dx="1422" dy="762" grid="1" gridSize="10" guides="1" tooltips="1" connect="1" arrows="1" fold="1" page="1" pageScale="1" pageWidth="827" pageHeight="1169" math="0" shadow="0">
      <root>
        <mxCell id="zez5rvHUgCMjh1kHw7Wc-0" />
        <mxCell id="zez5rvHUgCMjh1kHw7Wc-1" parent="zez5rvHUgCMjh1kHw7Wc-0" />
        <mxCell id="kY4ezOIEnaT6a9n3MG6w-0" value="" style="group" parent="zez5rvHUgCMjh1kHw7Wc-1" vertex="1" connectable="0">
          <mxGeometry x="80" y="550" width="600" height="460" as="geometry" />
        </mxCell>
        <mxCell id="kY4ezOIEnaT6a9n3MG6w-1" value="" style="rounded=0;whiteSpace=wrap;html=1;" parent="kY4ezOIEnaT6a9n3MG6w-0" vertex="1">
          <mxGeometry width="600" height="460" as="geometry" />
        </mxCell>
        <mxCell id="kY4ezOIEnaT6a9n3MG6w-2" value="" style="rounded=0;whiteSpace=wrap;html=1;" parent="kY4ezOIEnaT6a9n3MG6w-0" vertex="1">
          <mxGeometry y="80" width="600" height="380" as="geometry" />
        </mxCell>
        <mxCell id="kY4ezOIEnaT6a9n3MG6w-3" value="模式名称" style="rounded=0;whiteSpace=wrap;html=1;" parent="kY4ezOIEnaT6a9n3MG6w-0" vertex="1">
          <mxGeometry width="150" height="80" as="geometry" />
        </mxCell>
        <mxCell id="kY4ezOIEnaT6a9n3MG6w-4" value="门面模式" style="rounded=0;whiteSpace=wrap;html=1;" parent="kY4ezOIEnaT6a9n3MG6w-0" vertex="1">
          <mxGeometry x="150" width="240" height="40" as="geometry" />
        </mxCell>
        <mxCell id="kY4ezOIEnaT6a9n3MG6w-5" value="Facade Pattern" style="rounded=0;whiteSpace=wrap;html=1;" parent="kY4ezOIEnaT6a9n3MG6w-0" vertex="1">
          <mxGeometry x="150" y="40" width="240" height="40" as="geometry" />
        </mxCell>
        <mxCell id="kY4ezOIEnaT6a9n3MG6w-6" value="类型" style="rounded=0;whiteSpace=wrap;html=1;" parent="kY4ezOIEnaT6a9n3MG6w-0" vertex="1">
          <mxGeometry x="390" width="90" height="80" as="geometry" />
        </mxCell>
        <mxCell id="kY4ezOIEnaT6a9n3MG6w-7" value="22" style="rounded=0;whiteSpace=wrap;html=1;" parent="kY4ezOIEnaT6a9n3MG6w-0" vertex="1">
          <mxGeometry x="15" y="90" width="35" height="30" as="geometry" />
        </mxCell>
        <mxCell id="kY4ezOIEnaT6a9n3MG6w-8" value="描述：要求一个子系统的外部与其内部的通信必须通过一个统一的对象进行。门面模式提供了一个高层次的接口，使得子系统更易于使用。" style="text;html=1;strokeColor=none;fillColor=none;align=left;verticalAlign=middle;whiteSpace=wrap;rounded=0;" parent="kY4ezOIEnaT6a9n3MG6w-0" vertex="1">
          <mxGeometry x="30" y="400" width="540" height="30" as="geometry" />
        </mxCell>
        <mxCell id="4CIuKSfR_G_4HRX2Zvo2-0" value="结构类" style="rounded=0;whiteSpace=wrap;html=1;" vertex="1" parent="kY4ezOIEnaT6a9n3MG6w-0">
          <mxGeometry x="480" width="120" height="80" as="geometry" />
        </mxCell>
        <mxCell id="4CIuKSfR_G_4HRX2Zvo2-1" value="&lt;p style=&quot;margin: 0px ; margin-top: 4px ; text-align: center&quot;&gt;&lt;b&gt;Facade&lt;/b&gt;&lt;/p&gt;&lt;hr size=&quot;1&quot;&gt;&lt;div style=&quot;height: 2px&quot;&gt;&lt;/div&gt;&lt;hr size=&quot;1&quot;&gt;&lt;div style=&quot;height: 2px&quot;&gt;&lt;/div&gt;" style="verticalAlign=top;align=left;overflow=fill;fontSize=12;fontFamily=Helvetica;html=1;fillColor=#fff2cc;strokeColor=#d6b656;" vertex="1" parent="kY4ezOIEnaT6a9n3MG6w-0">
          <mxGeometry x="230" y="130" width="140" height="60" as="geometry" />
        </mxCell>
        <mxCell id="4CIuKSfR_G_4HRX2Zvo2-2" value="&lt;p style=&quot;margin: 0px ; margin-top: 4px ; text-align: center&quot;&gt;&lt;b&gt;Subsystem Classes&lt;/b&gt;&lt;/p&gt;&lt;hr size=&quot;1&quot;&gt;&lt;div style=&quot;height: 2px&quot;&gt;&lt;/div&gt;&lt;hr size=&quot;1&quot;&gt;&lt;div style=&quot;height: 2px&quot;&gt;&lt;/div&gt;" style="verticalAlign=top;align=left;overflow=fill;fontSize=12;fontFamily=Helvetica;html=1;fillColor=#fff2cc;strokeColor=#d6b656;" vertex="1" parent="kY4ezOIEnaT6a9n3MG6w-0">
          <mxGeometry x="230" y="260" width="140" height="60" as="geometry" />
        </mxCell>
        <mxCell id="4CIuKSfR_G_4HRX2Zvo2-3" value="" style="endArrow=open;endFill=1;endSize=12;html=1;rounded=0;edgeStyle=orthogonalEdgeStyle;exitX=0.5;exitY=1;exitDx=0;exitDy=0;" edge="1" parent="kY4ezOIEnaT6a9n3MG6w-0" source="4CIuKSfR_G_4HRX2Zvo2-1" target="4CIuKSfR_G_4HRX2Zvo2-2">
          <mxGeometry width="160" relative="1" as="geometry">
            <mxPoint x="250" y="230" as="sourcePoint" />
            <mxPoint x="410" y="230" as="targetPoint" />
          </mxGeometry>
        </mxCell>
      </root>
    </mxGraphModel>
  </diagram>
  <diagram id="nhVetUrkFUacykZHw_5l" name="备忘录模式">
    <mxGraphModel dx="981" dy="526" grid="1" gridSize="10" guides="1" tooltips="1" connect="1" arrows="1" fold="1" page="1" pageScale="1" pageWidth="827" pageHeight="1169" math="0" shadow="0">
      <root>
        <mxCell id="bhn9MDwP3lYitTSDxGO--0" />
        <mxCell id="bhn9MDwP3lYitTSDxGO--1" parent="bhn9MDwP3lYitTSDxGO--0" />
        <mxCell id="9NZflrgK6IgsxeuBO6ge-0" value="" style="group" parent="bhn9MDwP3lYitTSDxGO--1" vertex="1" connectable="0">
          <mxGeometry x="90" y="540" width="600" height="460" as="geometry" />
        </mxCell>
        <mxCell id="9NZflrgK6IgsxeuBO6ge-1" value="" style="rounded=0;whiteSpace=wrap;html=1;" parent="9NZflrgK6IgsxeuBO6ge-0" vertex="1">
          <mxGeometry width="600" height="460" as="geometry" />
        </mxCell>
        <mxCell id="9NZflrgK6IgsxeuBO6ge-2" value="" style="rounded=0;whiteSpace=wrap;html=1;" parent="9NZflrgK6IgsxeuBO6ge-0" vertex="1">
          <mxGeometry y="80" width="600" height="380" as="geometry" />
        </mxCell>
        <mxCell id="9NZflrgK6IgsxeuBO6ge-3" value="模式名称" style="rounded=0;whiteSpace=wrap;html=1;" parent="9NZflrgK6IgsxeuBO6ge-0" vertex="1">
          <mxGeometry width="150" height="80" as="geometry" />
        </mxCell>
        <mxCell id="9NZflrgK6IgsxeuBO6ge-4" value="备忘录模式" style="rounded=0;whiteSpace=wrap;html=1;" parent="9NZflrgK6IgsxeuBO6ge-0" vertex="1">
          <mxGeometry x="150" width="240" height="40" as="geometry" />
        </mxCell>
        <mxCell id="9NZflrgK6IgsxeuBO6ge-5" value="Memento Pattern" style="rounded=0;whiteSpace=wrap;html=1;" parent="9NZflrgK6IgsxeuBO6ge-0" vertex="1">
          <mxGeometry x="150" y="40" width="240" height="40" as="geometry" />
        </mxCell>
        <mxCell id="9NZflrgK6IgsxeuBO6ge-6" value="类型" style="rounded=0;whiteSpace=wrap;html=1;" parent="9NZflrgK6IgsxeuBO6ge-0" vertex="1">
          <mxGeometry x="390" width="90" height="80" as="geometry" />
        </mxCell>
        <mxCell id="9NZflrgK6IgsxeuBO6ge-7" value="12" style="rounded=0;whiteSpace=wrap;html=1;" parent="9NZflrgK6IgsxeuBO6ge-0" vertex="1">
          <mxGeometry x="15" y="90" width="35" height="30" as="geometry" />
        </mxCell>
        <mxCell id="9NZflrgK6IgsxeuBO6ge-8" value="描述：在不破坏封装性的前提下，捕获一个对象的内部状态，并在该对象之外保存这个状态。这样以后就可将该对象恢复到原先保存的状态。" style="text;html=1;strokeColor=none;fillColor=none;align=left;verticalAlign=middle;whiteSpace=wrap;rounded=0;" parent="9NZflrgK6IgsxeuBO6ge-0" vertex="1">
          <mxGeometry x="30" y="400" width="540" height="30" as="geometry" />
        </mxCell>
        <mxCell id="0MiYePs6EV9SYFSmWl6T-0" value="行为类" style="rounded=0;whiteSpace=wrap;html=1;" vertex="1" parent="9NZflrgK6IgsxeuBO6ge-0">
          <mxGeometry x="480" width="120" height="80" as="geometry" />
        </mxCell>
        <mxCell id="0MiYePs6EV9SYFSmWl6T-1" value="&lt;p style=&quot;margin: 0px ; margin-top: 4px ; text-align: center&quot;&gt;&lt;b&gt;Originator&lt;/b&gt;&lt;/p&gt;&lt;hr size=&quot;1&quot;&gt;&lt;div style=&quot;height: 2px&quot;&gt;&lt;/div&gt;&lt;hr size=&quot;1&quot;&gt;&lt;div style=&quot;height: 2px&quot;&gt;+SetMemento(m: Memento)&lt;/div&gt;&lt;div style=&quot;height: 2px&quot;&gt;&lt;br&gt;&lt;/div&gt;&lt;div style=&quot;height: 2px&quot;&gt;&lt;br&gt;&lt;/div&gt;&lt;div style=&quot;height: 2px&quot;&gt;&lt;br&gt;&lt;/div&gt;&lt;div style=&quot;height: 2px&quot;&gt;&lt;br&gt;&lt;/div&gt;&lt;div style=&quot;height: 2px&quot;&gt;&lt;br&gt;&lt;/div&gt;&lt;div style=&quot;height: 2px&quot;&gt;&lt;br&gt;&lt;/div&gt;&lt;div style=&quot;height: 2px&quot;&gt;&lt;br&gt;&lt;/div&gt;&lt;div style=&quot;height: 2px&quot;&gt;+CreateMemento()&lt;/div&gt;" style="verticalAlign=top;align=left;overflow=fill;fontSize=12;fontFamily=Helvetica;html=1;fillColor=#f8cecc;strokeColor=#b85450;" vertex="1" parent="9NZflrgK6IgsxeuBO6ge-0">
          <mxGeometry x="30" y="200" width="140" height="90" as="geometry" />
        </mxCell>
        <mxCell id="0MiYePs6EV9SYFSmWl6T-3" value="&lt;p style=&quot;margin: 0px ; margin-top: 4px ; text-align: center&quot;&gt;&lt;b&gt;Caretaker&lt;/b&gt;&lt;/p&gt;&lt;hr size=&quot;1&quot;&gt;&lt;div style=&quot;height: 2px&quot;&gt;&lt;/div&gt;&lt;hr size=&quot;1&quot;&gt;&lt;div style=&quot;height: 2px&quot;&gt;&lt;/div&gt;" style="verticalAlign=top;align=left;overflow=fill;fontSize=12;fontFamily=Helvetica;html=1;fillColor=#f8cecc;strokeColor=#b85450;" vertex="1" parent="9NZflrgK6IgsxeuBO6ge-0">
          <mxGeometry x="440" y="197.5" width="140" height="60" as="geometry" />
        </mxCell>
        <mxCell id="0MiYePs6EV9SYFSmWl6T-2" value="&lt;p style=&quot;margin: 0px ; margin-top: 4px ; text-align: center&quot;&gt;&lt;b&gt;Memento&lt;/b&gt;&lt;/p&gt;&lt;hr size=&quot;1&quot;&gt;&lt;div style=&quot;height: 2px&quot;&gt;&lt;/div&gt;&lt;hr size=&quot;1&quot;&gt;&lt;div style=&quot;height: 2px&quot;&gt;+GetState()&lt;/div&gt;&lt;div style=&quot;height: 2px&quot;&gt;&lt;br&gt;&lt;/div&gt;&lt;div style=&quot;height: 2px&quot;&gt;&lt;br&gt;&lt;/div&gt;&lt;div style=&quot;height: 2px&quot;&gt;&lt;br&gt;&lt;/div&gt;&lt;div style=&quot;height: 2px&quot;&gt;&lt;br&gt;&lt;/div&gt;&lt;div style=&quot;height: 2px&quot;&gt;&lt;br&gt;&lt;/div&gt;&lt;div style=&quot;height: 2px&quot;&gt;&lt;br&gt;&lt;/div&gt;&lt;div style=&quot;height: 2px&quot;&gt;&lt;br&gt;&lt;/div&gt;&lt;div style=&quot;height: 2px&quot;&gt;+SetState()&lt;/div&gt;" style="verticalAlign=top;align=left;overflow=fill;fontSize=12;fontFamily=Helvetica;html=1;fillColor=#f8cecc;strokeColor=#b85450;" vertex="1" parent="9NZflrgK6IgsxeuBO6ge-0">
          <mxGeometry x="230" y="200" width="140" height="90" as="geometry" />
        </mxCell>
        <mxCell id="0MiYePs6EV9SYFSmWl6T-5" value="1" style="endArrow=open;html=1;endSize=12;startArrow=diamondThin;startSize=14;startFill=0;edgeStyle=orthogonalEdgeStyle;align=left;verticalAlign=bottom;rounded=0;exitX=0;exitY=0.25;exitDx=0;exitDy=0;entryX=1;entryY=0.148;entryDx=0;entryDy=0;entryPerimeter=0;" edge="1" parent="9NZflrgK6IgsxeuBO6ge-0" source="0MiYePs6EV9SYFSmWl6T-3" target="0MiYePs6EV9SYFSmWl6T-2">
          <mxGeometry x="-1" y="3" relative="1" as="geometry">
            <mxPoint x="250" y="130" as="sourcePoint" />
            <mxPoint x="379" y="213" as="targetPoint" />
          </mxGeometry>
        </mxCell>
        <mxCell id="0MiYePs6EV9SYFSmWl6T-6" value="+memento" style="text;html=1;strokeColor=none;fillColor=none;align=center;verticalAlign=middle;whiteSpace=wrap;rounded=0;" vertex="1" parent="9NZflrgK6IgsxeuBO6ge-0">
          <mxGeometry x="380" y="210" width="60" height="25" as="geometry" />
        </mxCell>
        <mxCell id="0MiYePs6EV9SYFSmWl6T-4" value="Use" style="endArrow=open;endSize=12;dashed=1;html=1;rounded=0;edgeStyle=orthogonalEdgeStyle;exitX=1.007;exitY=0.133;exitDx=0;exitDy=0;exitPerimeter=0;entryX=0.007;entryY=0.132;entryDx=0;entryDy=0;entryPerimeter=0;" edge="1" parent="9NZflrgK6IgsxeuBO6ge-0" source="0MiYePs6EV9SYFSmWl6T-1" target="0MiYePs6EV9SYFSmWl6T-2">
          <mxGeometry width="160" relative="1" as="geometry">
            <mxPoint x="240" y="140" as="sourcePoint" />
            <mxPoint x="220" y="225" as="targetPoint" />
          </mxGeometry>
        </mxCell>
      </root>
    </mxGraphModel>
  </diagram>
  <diagram id="YQ6fe8qS6iCxVWGdoYoq" name="访问者模式">
    <mxGraphModel dx="813" dy="435" grid="1" gridSize="10" guides="1" tooltips="1" connect="1" arrows="1" fold="1" page="1" pageScale="1" pageWidth="827" pageHeight="1169" math="0" shadow="0">
      <root>
        <mxCell id="5wgDeFTupAq5CkI-kFp--0" />
        <mxCell id="5wgDeFTupAq5CkI-kFp--1" parent="5wgDeFTupAq5CkI-kFp--0" />
        <mxCell id="fxTIRoK5Fc-Ad7txKqER-0" value="" style="group" parent="5wgDeFTupAq5CkI-kFp--1" vertex="1" connectable="0">
          <mxGeometry x="80" y="550" width="600" height="460" as="geometry" />
        </mxCell>
        <mxCell id="fxTIRoK5Fc-Ad7txKqER-1" value="" style="rounded=0;whiteSpace=wrap;html=1;" parent="fxTIRoK5Fc-Ad7txKqER-0" vertex="1">
          <mxGeometry width="600" height="460" as="geometry" />
        </mxCell>
        <mxCell id="fxTIRoK5Fc-Ad7txKqER-2" value="" style="rounded=0;whiteSpace=wrap;html=1;" parent="fxTIRoK5Fc-Ad7txKqER-0" vertex="1">
          <mxGeometry y="80" width="600" height="380" as="geometry" />
        </mxCell>
        <mxCell id="fxTIRoK5Fc-Ad7txKqER-3" value="模式名称" style="rounded=0;whiteSpace=wrap;html=1;" parent="fxTIRoK5Fc-Ad7txKqER-0" vertex="1">
          <mxGeometry width="150" height="80" as="geometry" />
        </mxCell>
        <mxCell id="fxTIRoK5Fc-Ad7txKqER-4" value="访问者模式" style="rounded=0;whiteSpace=wrap;html=1;" parent="fxTIRoK5Fc-Ad7txKqER-0" vertex="1">
          <mxGeometry x="150" width="240" height="40" as="geometry" />
        </mxCell>
        <mxCell id="fxTIRoK5Fc-Ad7txKqER-5" value="Visitor Pattern" style="rounded=0;whiteSpace=wrap;html=1;" parent="fxTIRoK5Fc-Ad7txKqER-0" vertex="1">
          <mxGeometry x="150" y="40" width="240" height="40" as="geometry" />
        </mxCell>
        <mxCell id="fxTIRoK5Fc-Ad7txKqER-6" value="类型" style="rounded=0;whiteSpace=wrap;html=1;" parent="fxTIRoK5Fc-Ad7txKqER-0" vertex="1">
          <mxGeometry x="390" width="90" height="80" as="geometry" />
        </mxCell>
        <mxCell id="fxTIRoK5Fc-Ad7txKqER-7" value="16" style="rounded=0;whiteSpace=wrap;html=1;" parent="fxTIRoK5Fc-Ad7txKqER-0" vertex="1">
          <mxGeometry x="15" y="90" width="35" height="30" as="geometry" />
        </mxCell>
        <mxCell id="fxTIRoK5Fc-Ad7txKqER-8" value="描述：封装一些作用于某种数据结构中的各元素的操作，它可以在不改变数据结构的前提下定义作用于这些元素的新的操作。" style="text;html=1;strokeColor=none;fillColor=none;align=left;verticalAlign=middle;whiteSpace=wrap;rounded=0;" parent="fxTIRoK5Fc-Ad7txKqER-0" vertex="1">
          <mxGeometry x="30" y="430" width="540" height="30" as="geometry" />
        </mxCell>
        <mxCell id="wXYwYdUGtIPuiCDecW8O-0" value="行为类" style="rounded=0;whiteSpace=wrap;html=1;" vertex="1" parent="fxTIRoK5Fc-Ad7txKqER-0">
          <mxGeometry x="480" width="120" height="80" as="geometry" />
        </mxCell>
        <mxCell id="wXYwYdUGtIPuiCDecW8O-1" value="&lt;p style=&quot;margin: 0px ; margin-top: 4px ; text-align: center&quot;&gt;&lt;b&gt;Visitor&lt;/b&gt;&lt;br&gt;&lt;/p&gt;&lt;hr size=&quot;1&quot;&gt;&lt;div style=&quot;height: 2px&quot;&gt;&lt;/div&gt;&lt;hr size=&quot;1&quot;&gt;&lt;div style=&quot;height: 2px&quot;&gt;+VisitConcreteElement(elem: ConcreteElement)&lt;/div&gt;" style="verticalAlign=top;align=left;overflow=fill;fontSize=12;fontFamily=Helvetica;html=1;fillColor=#f8cecc;strokeColor=#b85450;" vertex="1" parent="fxTIRoK5Fc-Ad7txKqER-0">
          <mxGeometry x="200" y="86" width="280" height="60" as="geometry" />
        </mxCell>
        <mxCell id="wXYwYdUGtIPuiCDecW8O-2" value="&lt;p style=&quot;margin: 0px ; margin-top: 4px ; text-align: center&quot;&gt;&lt;b&gt;ConcreteVisitor&lt;/b&gt;&lt;br&gt;&lt;/p&gt;&lt;hr size=&quot;1&quot;&gt;&lt;div style=&quot;height: 2px&quot;&gt;&lt;/div&gt;&lt;hr size=&quot;1&quot;&gt;&lt;div style=&quot;height: 2px&quot;&gt;&lt;/div&gt;" style="verticalAlign=top;align=left;overflow=fill;fontSize=12;fontFamily=Helvetica;html=1;fillColor=#f8cecc;strokeColor=#b85450;" vertex="1" parent="fxTIRoK5Fc-Ad7txKqER-0">
          <mxGeometry x="270" y="195" width="140" height="60" as="geometry" />
        </mxCell>
        <mxCell id="wXYwYdUGtIPuiCDecW8O-3" value="&lt;p style=&quot;margin:0px;margin-top:4px;text-align:center;&quot;&gt;&lt;b&gt;Class&lt;/b&gt;&lt;/p&gt;&lt;hr size=&quot;1&quot;/&gt;&lt;div style=&quot;height:2px;&quot;&gt;&lt;/div&gt;&lt;hr size=&quot;1&quot;/&gt;&lt;div style=&quot;height:2px;&quot;&gt;&lt;/div&gt;" style="verticalAlign=top;align=left;overflow=fill;fontSize=12;fontFamily=Helvetica;html=1;" vertex="1" parent="fxTIRoK5Fc-Ad7txKqER-0">
          <mxGeometry x="270" y="261" width="140" height="60" as="geometry" />
        </mxCell>
        <mxCell id="wXYwYdUGtIPuiCDecW8O-4" value="&lt;p style=&quot;margin:0px;margin-top:4px;text-align:center;&quot;&gt;&lt;b&gt;Class&lt;/b&gt;&lt;/p&gt;&lt;hr size=&quot;1&quot;/&gt;&lt;div style=&quot;height:2px;&quot;&gt;&lt;/div&gt;&lt;hr size=&quot;1&quot;/&gt;&lt;div style=&quot;height:2px;&quot;&gt;&lt;/div&gt;" style="verticalAlign=top;align=left;overflow=fill;fontSize=12;fontFamily=Helvetica;html=1;" vertex="1" parent="fxTIRoK5Fc-Ad7txKqER-0">
          <mxGeometry x="270" y="370" width="140" height="60" as="geometry" />
        </mxCell>
        <mxCell id="wXYwYdUGtIPuiCDecW8O-5" value="&lt;p style=&quot;margin:0px;margin-top:4px;text-align:center;&quot;&gt;&lt;b&gt;Class&lt;/b&gt;&lt;/p&gt;&lt;hr size=&quot;1&quot;/&gt;&lt;div style=&quot;height:2px;&quot;&gt;&lt;/div&gt;&lt;hr size=&quot;1&quot;/&gt;&lt;div style=&quot;height:2px;&quot;&gt;&lt;/div&gt;" style="verticalAlign=top;align=left;overflow=fill;fontSize=12;fontFamily=Helvetica;html=1;" vertex="1" parent="fxTIRoK5Fc-Ad7txKqER-0">
          <mxGeometry x="70" y="261" width="140" height="60" as="geometry" />
        </mxCell>
        <mxCell id="wXYwYdUGtIPuiCDecW8O-6" value="Extends" style="endArrow=block;endSize=16;endFill=0;html=1;rounded=0;edgeStyle=orthogonalEdgeStyle;entryX=0.5;entryY=1;entryDx=0;entryDy=0;exitX=0.5;exitY=0;exitDx=0;exitDy=0;" edge="1" parent="fxTIRoK5Fc-Ad7txKqER-0" source="wXYwYdUGtIPuiCDecW8O-2" target="wXYwYdUGtIPuiCDecW8O-1">
          <mxGeometry x="-0.2" width="160" relative="1" as="geometry">
            <mxPoint x="340" y="185" as="sourcePoint" />
            <mxPoint x="420" y="235" as="targetPoint" />
            <mxPoint as="offset" />
          </mxGeometry>
        </mxCell>
        <mxCell id="wXYwYdUGtIPuiCDecW8O-7" value="Extends" style="endArrow=block;endSize=16;endFill=0;html=1;rounded=0;edgeStyle=orthogonalEdgeStyle;entryX=0.5;entryY=1;entryDx=0;entryDy=0;" edge="1" parent="fxTIRoK5Fc-Ad7txKqER-0" target="wXYwYdUGtIPuiCDecW8O-3">
          <mxGeometry x="-0.1111" width="160" relative="1" as="geometry">
            <mxPoint x="340" y="370" as="sourcePoint" />
            <mxPoint x="340" y="325" as="targetPoint" />
            <mxPoint as="offset" />
            <Array as="points" />
          </mxGeometry>
        </mxCell>
        <mxCell id="wXYwYdUGtIPuiCDecW8O-9" value="Use" style="endArrow=open;endSize=12;dashed=1;html=1;rounded=0;edgeStyle=orthogonalEdgeStyle;exitX=1;exitY=0.5;exitDx=0;exitDy=0;entryX=0.941;entryY=0.988;entryDx=0;entryDy=0;entryPerimeter=0;" edge="1" parent="fxTIRoK5Fc-Ad7txKqER-0" source="wXYwYdUGtIPuiCDecW8O-3" target="wXYwYdUGtIPuiCDecW8O-1">
          <mxGeometry x="0.248" width="160" relative="1" as="geometry">
            <mxPoint x="280" y="250" as="sourcePoint" />
            <mxPoint x="440" y="250" as="targetPoint" />
            <Array as="points">
              <mxPoint x="463" y="291" />
              <mxPoint x="463" y="204" />
            </Array>
            <mxPoint as="offset" />
          </mxGeometry>
        </mxCell>
        <mxCell id="wXYwYdUGtIPuiCDecW8O-10" value="&lt;p style=&quot;margin: 0px ; margin-top: 4px ; text-align: center&quot;&gt;&lt;b&gt;ConcreteElement&lt;/b&gt;&lt;/p&gt;&lt;hr size=&quot;1&quot;&gt;&lt;div style=&quot;height: 2px&quot;&gt;&lt;/div&gt;&lt;hr size=&quot;1&quot;&gt;&lt;div style=&quot;height: 2px&quot;&gt;&lt;/div&gt;" style="verticalAlign=top;align=left;overflow=fill;fontSize=12;fontFamily=Helvetica;html=1;fillColor=#f8cecc;strokeColor=#b85450;" vertex="1" parent="fxTIRoK5Fc-Ad7txKqER-0">
          <mxGeometry x="270" y="370" width="140" height="60" as="geometry" />
        </mxCell>
        <mxCell id="wXYwYdUGtIPuiCDecW8O-11" value="&lt;p style=&quot;margin: 0px ; margin-top: 4px ; text-align: center&quot;&gt;&lt;b&gt;Element&lt;/b&gt;&lt;/p&gt;&lt;hr size=&quot;1&quot;&gt;&lt;div style=&quot;height: 2px&quot;&gt;&lt;/div&gt;&lt;hr size=&quot;1&quot;&gt;&lt;div style=&quot;height: 2px&quot;&gt;+Accept(v: Visitor)&lt;/div&gt;" style="verticalAlign=top;align=left;overflow=fill;fontSize=12;fontFamily=Helvetica;html=1;fillColor=#f8cecc;strokeColor=#b85450;" vertex="1" parent="fxTIRoK5Fc-Ad7txKqER-0">
          <mxGeometry x="270" y="261" width="140" height="60" as="geometry" />
        </mxCell>
        <mxCell id="wXYwYdUGtIPuiCDecW8O-12" value="&lt;p style=&quot;margin: 0px ; margin-top: 4px ; text-align: center&quot;&gt;&lt;b&gt;ObjectStruture&lt;/b&gt;&lt;/p&gt;&lt;hr size=&quot;1&quot;&gt;&lt;div style=&quot;height: 2px&quot;&gt;&lt;/div&gt;&lt;hr size=&quot;1&quot;&gt;&lt;div style=&quot;height: 2px&quot;&gt;&lt;/div&gt;" style="verticalAlign=top;align=left;overflow=fill;fontSize=12;fontFamily=Helvetica;html=1;fillColor=#f8cecc;strokeColor=#b85450;" vertex="1" parent="fxTIRoK5Fc-Ad7txKqER-0">
          <mxGeometry x="70" y="261" width="140" height="60" as="geometry" />
        </mxCell>
        <mxCell id="wXYwYdUGtIPuiCDecW8O-8" value="" style="endArrow=open;endFill=1;endSize=12;html=1;rounded=0;edgeStyle=orthogonalEdgeStyle;exitX=1;exitY=0.5;exitDx=0;exitDy=0;" edge="1" parent="5wgDeFTupAq5CkI-kFp--1" source="wXYwYdUGtIPuiCDecW8O-5">
          <mxGeometry width="160" relative="1" as="geometry">
            <mxPoint x="360" y="800" as="sourcePoint" />
            <mxPoint x="350" y="841" as="targetPoint" />
          </mxGeometry>
        </mxCell>
      </root>
    </mxGraphModel>
  </diagram>
  <diagram id="xACw-DPKb8dVzUoLE_Xq" name="状态模式">
    <mxGraphModel dx="813" dy="435" grid="1" gridSize="10" guides="1" tooltips="1" connect="1" arrows="1" fold="1" page="1" pageScale="1" pageWidth="827" pageHeight="1169" math="0" shadow="0">
      <root>
        <mxCell id="A6ofkc8pBPwbKdYbVwxJ-0" />
        <mxCell id="A6ofkc8pBPwbKdYbVwxJ-1" parent="A6ofkc8pBPwbKdYbVwxJ-0" />
        <mxCell id="GtA0IVy_rC6Vt-X9jZyj-0" value="" style="group" parent="A6ofkc8pBPwbKdYbVwxJ-1" vertex="1" connectable="0">
          <mxGeometry x="80" y="550" width="600" height="460" as="geometry" />
        </mxCell>
        <mxCell id="GtA0IVy_rC6Vt-X9jZyj-1" value="" style="rounded=0;whiteSpace=wrap;html=1;" parent="GtA0IVy_rC6Vt-X9jZyj-0" vertex="1">
          <mxGeometry width="600" height="460" as="geometry" />
        </mxCell>
        <mxCell id="GtA0IVy_rC6Vt-X9jZyj-2" value="" style="rounded=0;whiteSpace=wrap;html=1;" parent="GtA0IVy_rC6Vt-X9jZyj-0" vertex="1">
          <mxGeometry y="80" width="600" height="380" as="geometry" />
        </mxCell>
        <mxCell id="GtA0IVy_rC6Vt-X9jZyj-3" value="模式名称" style="rounded=0;whiteSpace=wrap;html=1;" parent="GtA0IVy_rC6Vt-X9jZyj-0" vertex="1">
          <mxGeometry width="150" height="80" as="geometry" />
        </mxCell>
        <mxCell id="GtA0IVy_rC6Vt-X9jZyj-4" value="状态模式" style="rounded=0;whiteSpace=wrap;html=1;" parent="GtA0IVy_rC6Vt-X9jZyj-0" vertex="1">
          <mxGeometry x="150" width="240" height="40" as="geometry" />
        </mxCell>
        <mxCell id="GtA0IVy_rC6Vt-X9jZyj-5" value="State Pattern" style="rounded=0;whiteSpace=wrap;html=1;" parent="GtA0IVy_rC6Vt-X9jZyj-0" vertex="1">
          <mxGeometry x="150" y="40" width="240" height="40" as="geometry" />
        </mxCell>
        <mxCell id="GtA0IVy_rC6Vt-X9jZyj-6" value="类型" style="rounded=0;whiteSpace=wrap;html=1;" parent="GtA0IVy_rC6Vt-X9jZyj-0" vertex="1">
          <mxGeometry x="390" width="90" height="80" as="geometry" />
        </mxCell>
        <mxCell id="GtA0IVy_rC6Vt-X9jZyj-7" value="13" style="rounded=0;whiteSpace=wrap;html=1;" parent="GtA0IVy_rC6Vt-X9jZyj-0" vertex="1">
          <mxGeometry x="15" y="90" width="35" height="30" as="geometry" />
        </mxCell>
        <mxCell id="GtA0IVy_rC6Vt-X9jZyj-8" value="描述：当一个对象内在状态改变时允许其改变行为，这个对象看起来像是改变了其类。" style="text;html=1;strokeColor=none;fillColor=none;align=left;verticalAlign=middle;whiteSpace=wrap;rounded=0;" parent="GtA0IVy_rC6Vt-X9jZyj-0" vertex="1">
          <mxGeometry x="30" y="400" width="540" height="30" as="geometry" />
        </mxCell>
        <mxCell id="FKGAtgaJmFoD-3uHvrH3-0" value="行为类" style="rounded=0;whiteSpace=wrap;html=1;" vertex="1" parent="GtA0IVy_rC6Vt-X9jZyj-0">
          <mxGeometry x="480" width="120" height="80" as="geometry" />
        </mxCell>
        <mxCell id="FKGAtgaJmFoD-3uHvrH3-1" value="&lt;p style=&quot;margin: 0px ; margin-top: 4px ; text-align: center&quot;&gt;&lt;b&gt;Context&lt;/b&gt;&lt;/p&gt;&lt;hr size=&quot;1&quot;&gt;&lt;div style=&quot;height: 2px&quot;&gt;&lt;/div&gt;&lt;hr size=&quot;1&quot;&gt;&lt;div style=&quot;height: 2px&quot;&gt;+Request()&lt;/div&gt;" style="verticalAlign=top;align=left;overflow=fill;fontSize=12;fontFamily=Helvetica;html=1;fillColor=#f8cecc;strokeColor=#b85450;" vertex="1" parent="GtA0IVy_rC6Vt-X9jZyj-0">
          <mxGeometry x="110" y="140" width="140" height="60" as="geometry" />
        </mxCell>
        <mxCell id="FKGAtgaJmFoD-3uHvrH3-2" value="&lt;p style=&quot;margin: 0px ; margin-top: 4px ; text-align: center&quot;&gt;&lt;b&gt;State&lt;/b&gt;&lt;/p&gt;&lt;hr size=&quot;1&quot;&gt;&lt;div style=&quot;height: 2px&quot;&gt;&lt;/div&gt;&lt;hr size=&quot;1&quot;&gt;&lt;div style=&quot;height: 2px&quot;&gt;+Handle()&lt;/div&gt;" style="verticalAlign=top;align=left;overflow=fill;fontSize=12;fontFamily=Helvetica;html=1;fillColor=#f8cecc;strokeColor=#b85450;" vertex="1" parent="GtA0IVy_rC6Vt-X9jZyj-0">
          <mxGeometry x="360" y="140" width="140" height="60" as="geometry" />
        </mxCell>
        <mxCell id="FKGAtgaJmFoD-3uHvrH3-3" value="&lt;p style=&quot;margin: 0px ; margin-top: 4px ; text-align: center&quot;&gt;&lt;b&gt;ConcreteState&lt;/b&gt;&lt;/p&gt;&lt;hr size=&quot;1&quot;&gt;&lt;div style=&quot;height: 2px&quot;&gt;&lt;/div&gt;&lt;hr size=&quot;1&quot;&gt;&lt;div style=&quot;height: 2px&quot;&gt;&lt;/div&gt;" style="verticalAlign=top;align=left;overflow=fill;fontSize=12;fontFamily=Helvetica;html=1;fillColor=#f8cecc;strokeColor=#b85450;" vertex="1" parent="GtA0IVy_rC6Vt-X9jZyj-0">
          <mxGeometry x="360" y="290" width="140" height="60" as="geometry" />
        </mxCell>
        <mxCell id="FKGAtgaJmFoD-3uHvrH3-4" value="1" style="endArrow=open;html=1;endSize=12;startArrow=diamondThin;startSize=14;startFill=0;edgeStyle=orthogonalEdgeStyle;align=left;verticalAlign=bottom;rounded=0;exitX=1;exitY=0.5;exitDx=0;exitDy=0;" edge="1" parent="GtA0IVy_rC6Vt-X9jZyj-0" source="FKGAtgaJmFoD-3uHvrH3-1" target="FKGAtgaJmFoD-3uHvrH3-2">
          <mxGeometry x="-1" y="3" relative="1" as="geometry">
            <mxPoint x="250" y="240" as="sourcePoint" />
            <mxPoint x="410" y="240" as="targetPoint" />
          </mxGeometry>
        </mxCell>
        <mxCell id="FKGAtgaJmFoD-3uHvrH3-5" value="Extends" style="endArrow=block;endSize=16;endFill=0;html=1;rounded=0;edgeStyle=orthogonalEdgeStyle;entryX=0.5;entryY=1;entryDx=0;entryDy=0;" edge="1" parent="GtA0IVy_rC6Vt-X9jZyj-0" source="FKGAtgaJmFoD-3uHvrH3-3" target="FKGAtgaJmFoD-3uHvrH3-2">
          <mxGeometry width="160" relative="1" as="geometry">
            <mxPoint x="290" y="240" as="sourcePoint" />
            <mxPoint x="450" y="240" as="targetPoint" />
          </mxGeometry>
        </mxCell>
        <mxCell id="FKGAtgaJmFoD-3uHvrH3-6" value="+state" style="text;html=1;strokeColor=none;fillColor=none;align=center;verticalAlign=middle;whiteSpace=wrap;rounded=0;" vertex="1" parent="GtA0IVy_rC6Vt-X9jZyj-0">
          <mxGeometry x="274" y="140" width="60" height="30" as="geometry" />
        </mxCell>
      </root>
    </mxGraphModel>
  </diagram>
  <diagram id="022UgXzEvdKiTPvPITuF" name="解释器模式">
    <mxGraphModel dx="1185" dy="635" grid="1" gridSize="10" guides="1" tooltips="1" connect="1" arrows="1" fold="1" page="1" pageScale="1" pageWidth="827" pageHeight="1169" math="0" shadow="0">
      <root>
        <mxCell id="LAH0RezKHMsY7C_v8cXp-0" />
        <mxCell id="LAH0RezKHMsY7C_v8cXp-1" parent="LAH0RezKHMsY7C_v8cXp-0" />
        <mxCell id="ZxJSxbnwkcHcehMZLkfo-0" value="" style="group" parent="LAH0RezKHMsY7C_v8cXp-1" vertex="1" connectable="0">
          <mxGeometry x="80" y="550" width="600" height="460" as="geometry" />
        </mxCell>
        <mxCell id="ZxJSxbnwkcHcehMZLkfo-1" value="" style="rounded=0;whiteSpace=wrap;html=1;" parent="ZxJSxbnwkcHcehMZLkfo-0" vertex="1">
          <mxGeometry width="600" height="460" as="geometry" />
        </mxCell>
        <mxCell id="ZxJSxbnwkcHcehMZLkfo-2" value="" style="rounded=0;whiteSpace=wrap;html=1;" parent="ZxJSxbnwkcHcehMZLkfo-0" vertex="1">
          <mxGeometry y="80" width="600" height="380" as="geometry" />
        </mxCell>
        <mxCell id="ZxJSxbnwkcHcehMZLkfo-3" value="模式名称" style="rounded=0;whiteSpace=wrap;html=1;" parent="ZxJSxbnwkcHcehMZLkfo-0" vertex="1">
          <mxGeometry width="150" height="80" as="geometry" />
        </mxCell>
        <mxCell id="ZxJSxbnwkcHcehMZLkfo-4" value="解释器模式" style="rounded=0;whiteSpace=wrap;html=1;" parent="ZxJSxbnwkcHcehMZLkfo-0" vertex="1">
          <mxGeometry x="150" width="240" height="40" as="geometry" />
        </mxCell>
        <mxCell id="ZxJSxbnwkcHcehMZLkfo-5" value="Interpreter Pattern" style="rounded=0;whiteSpace=wrap;html=1;" parent="ZxJSxbnwkcHcehMZLkfo-0" vertex="1">
          <mxGeometry x="150" y="40" width="240" height="40" as="geometry" />
        </mxCell>
        <mxCell id="ZxJSxbnwkcHcehMZLkfo-6" value="类型" style="rounded=0;whiteSpace=wrap;html=1;" parent="ZxJSxbnwkcHcehMZLkfo-0" vertex="1">
          <mxGeometry x="390" width="90" height="80" as="geometry" />
        </mxCell>
        <mxCell id="ZxJSxbnwkcHcehMZLkfo-7" value="8" style="rounded=0;whiteSpace=wrap;html=1;" parent="ZxJSxbnwkcHcehMZLkfo-0" vertex="1">
          <mxGeometry x="15" y="90" width="35" height="30" as="geometry" />
        </mxCell>
        <mxCell id="ZxJSxbnwkcHcehMZLkfo-8" value="描述：给定一种语言，定义它的文法的一种表示，并定义一个解释器，该解释器使用该表示来解释语言中的句子。" style="text;html=1;strokeColor=none;fillColor=none;align=left;verticalAlign=middle;whiteSpace=wrap;rounded=0;" parent="ZxJSxbnwkcHcehMZLkfo-0" vertex="1">
          <mxGeometry x="30" y="400" width="540" height="30" as="geometry" />
        </mxCell>
        <mxCell id="xF67Vvkc1PhbMJKYRdeK-0" value="行为类" style="rounded=0;whiteSpace=wrap;html=1;" vertex="1" parent="ZxJSxbnwkcHcehMZLkfo-0">
          <mxGeometry x="480" width="120" height="80" as="geometry" />
        </mxCell>
        <mxCell id="xF67Vvkc1PhbMJKYRdeK-1" value="&lt;p style=&quot;margin: 0px ; margin-top: 4px ; text-align: center&quot;&gt;&lt;b&gt;Client&lt;/b&gt;&lt;/p&gt;&lt;hr size=&quot;1&quot;&gt;&lt;div style=&quot;height: 2px&quot;&gt;&lt;/div&gt;&lt;hr size=&quot;1&quot;&gt;&lt;div style=&quot;height: 2px&quot;&gt;&lt;/div&gt;" style="verticalAlign=top;align=left;overflow=fill;fontSize=12;fontFamily=Helvetica;html=1;fillColor=#f8cecc;strokeColor=#b85450;" vertex="1" parent="ZxJSxbnwkcHcehMZLkfo-0">
          <mxGeometry x="90" y="180" width="140" height="60" as="geometry" />
        </mxCell>
        <mxCell id="xF67Vvkc1PhbMJKYRdeK-2" value="&lt;p style=&quot;margin: 0px ; margin-top: 4px ; text-align: center&quot;&gt;&lt;b&gt;Context&lt;/b&gt;&lt;/p&gt;&lt;hr size=&quot;1&quot;&gt;&lt;div style=&quot;height: 2px&quot;&gt;&lt;/div&gt;&lt;hr size=&quot;1&quot;&gt;&lt;div style=&quot;height: 2px&quot;&gt;&lt;/div&gt;" style="verticalAlign=top;align=left;overflow=fill;fontSize=12;fontFamily=Helvetica;html=1;fillColor=#f8cecc;strokeColor=#b85450;" vertex="1" parent="ZxJSxbnwkcHcehMZLkfo-0">
          <mxGeometry x="300" y="100" width="140" height="60" as="geometry" />
        </mxCell>
        <mxCell id="xF67Vvkc1PhbMJKYRdeK-3" value="&lt;p style=&quot;margin: 0px ; margin-top: 4px ; text-align: center&quot;&gt;&lt;b&gt;AbstractExpression&lt;/b&gt;&lt;/p&gt;&lt;hr size=&quot;1&quot;&gt;&lt;div style=&quot;height: 2px&quot;&gt;&lt;/div&gt;&lt;hr size=&quot;1&quot;&gt;&lt;div style=&quot;height: 2px&quot;&gt;+Interpret()&lt;/div&gt;" style="verticalAlign=top;align=left;overflow=fill;fontSize=12;fontFamily=Helvetica;html=1;fillColor=#f8cecc;strokeColor=#b85450;" vertex="1" parent="ZxJSxbnwkcHcehMZLkfo-0">
          <mxGeometry x="300" y="180" width="140" height="60" as="geometry" />
        </mxCell>
        <mxCell id="xF67Vvkc1PhbMJKYRdeK-4" value="&lt;p style=&quot;margin: 0px ; margin-top: 4px ; text-align: center&quot;&gt;&lt;b&gt;TerminalExpression&lt;/b&gt;&lt;/p&gt;&lt;hr size=&quot;1&quot;&gt;&lt;div style=&quot;height: 2px&quot;&gt;&lt;/div&gt;&lt;hr size=&quot;1&quot;&gt;&lt;div style=&quot;height: 2px&quot;&gt;&lt;/div&gt;" style="verticalAlign=top;align=left;overflow=fill;fontSize=12;fontFamily=Helvetica;html=1;fillColor=#f8cecc;strokeColor=#b85450;" vertex="1" parent="ZxJSxbnwkcHcehMZLkfo-0">
          <mxGeometry x="180" y="310" width="140" height="60" as="geometry" />
        </mxCell>
        <mxCell id="xF67Vvkc1PhbMJKYRdeK-5" value="&lt;p style=&quot;margin: 0px ; margin-top: 4px ; text-align: center&quot;&gt;&lt;b&gt;NonterminalExpression&lt;/b&gt;&lt;/p&gt;&lt;hr size=&quot;1&quot;&gt;&lt;div style=&quot;height: 2px&quot;&gt;&lt;/div&gt;&lt;hr size=&quot;1&quot;&gt;&lt;div style=&quot;height: 2px&quot;&gt;&lt;/div&gt;" style="verticalAlign=top;align=left;overflow=fill;fontSize=12;fontFamily=Helvetica;html=1;fillColor=#f8cecc;strokeColor=#b85450;" vertex="1" parent="ZxJSxbnwkcHcehMZLkfo-0">
          <mxGeometry x="420" y="310" width="140" height="60" as="geometry" />
        </mxCell>
        <mxCell id="xF67Vvkc1PhbMJKYRdeK-6" value="" style="endArrow=open;endFill=1;endSize=12;html=1;rounded=0;edgeStyle=orthogonalEdgeStyle;exitX=1;exitY=0.25;exitDx=0;exitDy=0;entryX=0;entryY=0.25;entryDx=0;entryDy=0;" edge="1" parent="ZxJSxbnwkcHcehMZLkfo-0" source="xF67Vvkc1PhbMJKYRdeK-1" target="xF67Vvkc1PhbMJKYRdeK-2">
          <mxGeometry width="160" relative="1" as="geometry">
            <mxPoint x="170" y="310" as="sourcePoint" />
            <mxPoint x="330" y="310" as="targetPoint" />
          </mxGeometry>
        </mxCell>
        <mxCell id="xF67Vvkc1PhbMJKYRdeK-8" value="Extends" style="endArrow=block;endSize=16;endFill=0;html=1;rounded=0;edgeStyle=orthogonalEdgeStyle;entryX=0.5;entryY=1;entryDx=0;entryDy=0;" edge="1" parent="ZxJSxbnwkcHcehMZLkfo-0" source="xF67Vvkc1PhbMJKYRdeK-4" target="xF67Vvkc1PhbMJKYRdeK-3">
          <mxGeometry width="160" relative="1" as="geometry">
            <mxPoint x="170" y="310" as="sourcePoint" />
            <mxPoint x="330" y="310" as="targetPoint" />
          </mxGeometry>
        </mxCell>
        <mxCell id="xF67Vvkc1PhbMJKYRdeK-13" value="" style="endArrow=open;html=1;endSize=12;startArrow=diamondThin;startSize=14;startFill=0;edgeStyle=orthogonalEdgeStyle;align=left;verticalAlign=bottom;rounded=0;exitX=0.75;exitY=0;exitDx=0;exitDy=0;entryX=1;entryY=0.25;entryDx=0;entryDy=0;" edge="1" parent="ZxJSxbnwkcHcehMZLkfo-0" source="xF67Vvkc1PhbMJKYRdeK-5" target="xF67Vvkc1PhbMJKYRdeK-3">
          <mxGeometry x="-1" y="3" relative="1" as="geometry">
            <mxPoint x="170" y="310" as="sourcePoint" />
            <mxPoint x="330" y="310" as="targetPoint" />
          </mxGeometry>
        </mxCell>
        <mxCell id="xF67Vvkc1PhbMJKYRdeK-7" value="" style="endArrow=open;endFill=1;endSize=12;html=1;rounded=0;edgeStyle=orthogonalEdgeStyle;exitX=1;exitY=0.5;exitDx=0;exitDy=0;" edge="1" parent="LAH0RezKHMsY7C_v8cXp-1" source="xF67Vvkc1PhbMJKYRdeK-1">
          <mxGeometry width="160" relative="1" as="geometry">
            <mxPoint x="250" y="860" as="sourcePoint" />
            <mxPoint x="380" y="760" as="targetPoint" />
          </mxGeometry>
        </mxCell>
        <mxCell id="xF67Vvkc1PhbMJKYRdeK-9" value="Extends" style="endArrow=block;endSize=16;endFill=0;html=1;rounded=0;edgeStyle=orthogonalEdgeStyle;exitX=0.5;exitY=0;exitDx=0;exitDy=0;" edge="1" parent="LAH0RezKHMsY7C_v8cXp-1" source="xF67Vvkc1PhbMJKYRdeK-5">
          <mxGeometry width="160" relative="1" as="geometry">
            <mxPoint x="250" y="860" as="sourcePoint" />
            <mxPoint x="450" y="790" as="targetPoint" />
          </mxGeometry>
        </mxCell>
      </root>
    </mxGraphModel>
  </diagram>
  <diagram id="_TdppyHbYMX7xv-C6nrf" name="享元模式">
    <mxGraphModel dx="981" dy="526" grid="1" gridSize="10" guides="1" tooltips="1" connect="1" arrows="1" fold="1" page="1" pageScale="1" pageWidth="827" pageHeight="1169" math="0" shadow="0">
      <root>
        <mxCell id="BrQBuFgsMjtAmf_FgVQ4-0" />
        <mxCell id="BrQBuFgsMjtAmf_FgVQ4-1" parent="BrQBuFgsMjtAmf_FgVQ4-0" />
        <mxCell id="OVdMB1Qsru8ccC6M4fCW-0" value="" style="group" parent="BrQBuFgsMjtAmf_FgVQ4-1" vertex="1" connectable="0">
          <mxGeometry x="80" y="560" width="600" height="460" as="geometry" />
        </mxCell>
        <mxCell id="OVdMB1Qsru8ccC6M4fCW-1" value="" style="rounded=0;whiteSpace=wrap;html=1;" parent="OVdMB1Qsru8ccC6M4fCW-0" vertex="1">
          <mxGeometry width="600" height="460" as="geometry" />
        </mxCell>
        <mxCell id="OVdMB1Qsru8ccC6M4fCW-2" value="" style="rounded=0;whiteSpace=wrap;html=1;" parent="OVdMB1Qsru8ccC6M4fCW-0" vertex="1">
          <mxGeometry y="80" width="600" height="380" as="geometry" />
        </mxCell>
        <mxCell id="OVdMB1Qsru8ccC6M4fCW-3" value="模式名称" style="rounded=0;whiteSpace=wrap;html=1;" parent="OVdMB1Qsru8ccC6M4fCW-0" vertex="1">
          <mxGeometry width="150" height="80" as="geometry" />
        </mxCell>
        <mxCell id="OVdMB1Qsru8ccC6M4fCW-4" value="享元模式" style="rounded=0;whiteSpace=wrap;html=1;" parent="OVdMB1Qsru8ccC6M4fCW-0" vertex="1">
          <mxGeometry x="150" width="240" height="40" as="geometry" />
        </mxCell>
        <mxCell id="OVdMB1Qsru8ccC6M4fCW-5" value="Flyweight Pattern" style="rounded=0;whiteSpace=wrap;html=1;" parent="OVdMB1Qsru8ccC6M4fCW-0" vertex="1">
          <mxGeometry x="150" y="40" width="240" height="40" as="geometry" />
        </mxCell>
        <mxCell id="OVdMB1Qsru8ccC6M4fCW-6" value="类型" style="rounded=0;whiteSpace=wrap;html=1;" parent="OVdMB1Qsru8ccC6M4fCW-0" vertex="1">
          <mxGeometry x="390" width="90" height="80" as="geometry" />
        </mxCell>
        <mxCell id="OVdMB1Qsru8ccC6M4fCW-7" value="23" style="rounded=0;whiteSpace=wrap;html=1;" parent="OVdMB1Qsru8ccC6M4fCW-0" vertex="1">
          <mxGeometry x="15" y="90" width="35" height="30" as="geometry" />
        </mxCell>
        <mxCell id="OVdMB1Qsru8ccC6M4fCW-8" value="描述：使用共享对象可有效地支持大量的细粒度的对象。" style="text;html=1;strokeColor=none;fillColor=none;align=left;verticalAlign=middle;whiteSpace=wrap;rounded=0;" parent="OVdMB1Qsru8ccC6M4fCW-0" vertex="1">
          <mxGeometry x="30" y="400" width="540" height="30" as="geometry" />
        </mxCell>
        <mxCell id="G5r1QjGUMqfbCyZ95cFr-0" value="结构类" style="rounded=0;whiteSpace=wrap;html=1;" vertex="1" parent="OVdMB1Qsru8ccC6M4fCW-0">
          <mxGeometry x="480" width="120" height="80" as="geometry" />
        </mxCell>
        <mxCell id="G5r1QjGUMqfbCyZ95cFr-2" value="&lt;p style=&quot;margin: 0px ; margin-top: 4px ; text-align: center&quot;&gt;&lt;b&gt;Flyweight&lt;/b&gt;&lt;/p&gt;&lt;hr size=&quot;1&quot;&gt;&lt;div style=&quot;height: 2px&quot;&gt;&lt;/div&gt;&lt;hr size=&quot;1&quot;&gt;&lt;div style=&quot;height: 2px&quot;&gt;&lt;/div&gt;" style="verticalAlign=top;align=left;overflow=fill;fontSize=12;fontFamily=Helvetica;html=1;fillColor=#fff2cc;strokeColor=#d6b656;" vertex="1" parent="OVdMB1Qsru8ccC6M4fCW-0">
          <mxGeometry x="315" y="130" width="140" height="60" as="geometry" />
        </mxCell>
        <mxCell id="G5r1QjGUMqfbCyZ95cFr-1" value="&lt;p style=&quot;margin: 0px ; margin-top: 4px ; text-align: center&quot;&gt;&lt;b&gt;Flyweight Pattern&lt;/b&gt;&lt;/p&gt;&lt;hr size=&quot;1&quot;&gt;&lt;div style=&quot;height: 2px&quot;&gt;&lt;/div&gt;&lt;hr size=&quot;1&quot;&gt;&lt;div style=&quot;height: 2px&quot;&gt;+GetFlyweight(key)&lt;/div&gt;" style="verticalAlign=top;align=left;overflow=fill;fontSize=12;fontFamily=Helvetica;html=1;fillColor=#fff2cc;strokeColor=#d6b656;" vertex="1" parent="OVdMB1Qsru8ccC6M4fCW-0">
          <mxGeometry x="70" y="130" width="140" height="60" as="geometry" />
        </mxCell>
        <mxCell id="G5r1QjGUMqfbCyZ95cFr-3" value="&lt;p style=&quot;margin:0px;margin-top:4px;text-align:center;&quot;&gt;&lt;b&gt;Class&lt;/b&gt;&lt;/p&gt;&lt;hr size=&quot;1&quot;/&gt;&lt;div style=&quot;height:2px;&quot;&gt;&lt;/div&gt;&lt;hr size=&quot;1&quot;/&gt;&lt;div style=&quot;height:2px;&quot;&gt;&lt;/div&gt;" style="verticalAlign=top;align=left;overflow=fill;fontSize=12;fontFamily=Helvetica;html=1;fillColor=#fff2cc;strokeColor=#d6b656;" vertex="1" parent="OVdMB1Qsru8ccC6M4fCW-0">
          <mxGeometry x="70" y="340" width="140" height="60" as="geometry" />
        </mxCell>
        <mxCell id="G5r1QjGUMqfbCyZ95cFr-4" value="&lt;p style=&quot;margin: 0px ; margin-top: 4px ; text-align: center&quot;&gt;&lt;b&gt;ConcreteFlyweight&lt;/b&gt;&lt;/p&gt;&lt;hr size=&quot;1&quot;&gt;&lt;div style=&quot;height: 2px&quot;&gt;&lt;/div&gt;&lt;hr size=&quot;1&quot;&gt;&lt;div style=&quot;height: 2px&quot;&gt;&lt;/div&gt;" style="verticalAlign=top;align=left;overflow=fill;fontSize=12;fontFamily=Helvetica;html=1;fillColor=#fff2cc;strokeColor=#d6b656;" vertex="1" parent="OVdMB1Qsru8ccC6M4fCW-0">
          <mxGeometry x="200" y="240" width="140" height="60" as="geometry" />
        </mxCell>
        <mxCell id="G5r1QjGUMqfbCyZ95cFr-5" value="&lt;p style=&quot;margin: 0px ; margin-top: 4px ; text-align: center&quot;&gt;&lt;b&gt;uns haredConcreteFlyweight&lt;/b&gt;&lt;/p&gt;&lt;hr size=&quot;1&quot;&gt;&lt;div style=&quot;height: 2px&quot;&gt;&lt;/div&gt;&lt;hr size=&quot;1&quot;&gt;&lt;div style=&quot;height: 2px&quot;&gt;&lt;/div&gt;" style="verticalAlign=top;align=left;overflow=fill;fontSize=12;fontFamily=Helvetica;html=1;fillColor=#fff2cc;strokeColor=#d6b656;" vertex="1" parent="OVdMB1Qsru8ccC6M4fCW-0">
          <mxGeometry x="400" y="240" width="180" height="60" as="geometry" />
        </mxCell>
        <mxCell id="G5r1QjGUMqfbCyZ95cFr-6" value="1" style="endArrow=open;html=1;endSize=12;startArrow=diamondThin;startSize=14;startFill=0;edgeStyle=orthogonalEdgeStyle;align=left;verticalAlign=bottom;rounded=0;exitX=1;exitY=0.5;exitDx=0;exitDy=0;entryX=0;entryY=0.5;entryDx=0;entryDy=0;" edge="1" parent="OVdMB1Qsru8ccC6M4fCW-0" source="G5r1QjGUMqfbCyZ95cFr-1" target="G5r1QjGUMqfbCyZ95cFr-2">
          <mxGeometry x="-1" y="3" relative="1" as="geometry">
            <mxPoint x="250" y="130" as="sourcePoint" />
            <mxPoint x="410" y="130" as="targetPoint" />
          </mxGeometry>
        </mxCell>
        <mxCell id="G5r1QjGUMqfbCyZ95cFr-7" value="+flyweights" style="text;html=1;strokeColor=none;fillColor=none;align=center;verticalAlign=middle;whiteSpace=wrap;rounded=0;" vertex="1" parent="OVdMB1Qsru8ccC6M4fCW-0">
          <mxGeometry x="230" y="130" width="60" height="30" as="geometry" />
        </mxCell>
        <mxCell id="G5r1QjGUMqfbCyZ95cFr-8" value="Extends" style="endArrow=block;endSize=16;endFill=0;html=1;rounded=0;edgeStyle=orthogonalEdgeStyle;exitX=0.5;exitY=0;exitDx=0;exitDy=0;entryX=0.5;entryY=1;entryDx=0;entryDy=0;" edge="1" parent="OVdMB1Qsru8ccC6M4fCW-0" source="G5r1QjGUMqfbCyZ95cFr-4" target="G5r1QjGUMqfbCyZ95cFr-2">
          <mxGeometry width="160" relative="1" as="geometry">
            <mxPoint x="250" y="130" as="sourcePoint" />
            <mxPoint x="410" y="130" as="targetPoint" />
          </mxGeometry>
        </mxCell>
        <mxCell id="G5r1QjGUMqfbCyZ95cFr-9" value="Extends" style="endArrow=block;endSize=16;endFill=0;html=1;rounded=0;edgeStyle=orthogonalEdgeStyle;entryX=0.5;entryY=1;entryDx=0;entryDy=0;" edge="1" parent="OVdMB1Qsru8ccC6M4fCW-0" source="G5r1QjGUMqfbCyZ95cFr-5" target="G5r1QjGUMqfbCyZ95cFr-2">
          <mxGeometry width="160" relative="1" as="geometry">
            <mxPoint x="250" y="130" as="sourcePoint" />
            <mxPoint x="390" y="190" as="targetPoint" />
          </mxGeometry>
        </mxCell>
        <mxCell id="G5r1QjGUMqfbCyZ95cFr-10" value="" style="endArrow=open;endFill=1;endSize=12;html=1;rounded=0;edgeStyle=orthogonalEdgeStyle;exitX=0.5;exitY=0;exitDx=0;exitDy=0;entryX=0.5;entryY=1;entryDx=0;entryDy=0;" edge="1" parent="OVdMB1Qsru8ccC6M4fCW-0" source="G5r1QjGUMqfbCyZ95cFr-3" target="G5r1QjGUMqfbCyZ95cFr-1">
          <mxGeometry width="160" relative="1" as="geometry">
            <mxPoint x="130" y="270" as="sourcePoint" />
            <mxPoint x="290" y="270" as="targetPoint" />
          </mxGeometry>
        </mxCell>
        <mxCell id="G5r1QjGUMqfbCyZ95cFr-11" value="" style="endArrow=open;endFill=1;endSize=12;html=1;rounded=0;edgeStyle=orthogonalEdgeStyle;exitX=1;exitY=0.25;exitDx=0;exitDy=0;" edge="1" parent="OVdMB1Qsru8ccC6M4fCW-0" source="G5r1QjGUMqfbCyZ95cFr-3" target="G5r1QjGUMqfbCyZ95cFr-4">
          <mxGeometry width="160" relative="1" as="geometry">
            <mxPoint x="150" y="320" as="sourcePoint" />
            <mxPoint x="310" y="320" as="targetPoint" />
          </mxGeometry>
        </mxCell>
        <mxCell id="G5r1QjGUMqfbCyZ95cFr-12" value="" style="endArrow=open;endFill=1;endSize=12;html=1;rounded=0;edgeStyle=orthogonalEdgeStyle;exitX=1;exitY=0.5;exitDx=0;exitDy=0;" edge="1" parent="OVdMB1Qsru8ccC6M4fCW-0" source="G5r1QjGUMqfbCyZ95cFr-3" target="G5r1QjGUMqfbCyZ95cFr-5">
          <mxGeometry width="160" relative="1" as="geometry">
            <mxPoint x="150" y="320" as="sourcePoint" />
            <mxPoint x="310" y="320" as="targetPoint" />
          </mxGeometry>
        </mxCell>
      </root>
    </mxGraphModel>
  </diagram>
  <diagram id="YpORHxXzmh4-PBUrYGsE" name="桥梁模式">
    <mxGraphModel dx="1422" dy="762" grid="1" gridSize="10" guides="1" tooltips="1" connect="1" arrows="1" fold="1" page="1" pageScale="1" pageWidth="827" pageHeight="1169" math="0" shadow="0">
      <root>
        <mxCell id="95xR3axD7flYYTFhlnDR-0" />
        <mxCell id="95xR3axD7flYYTFhlnDR-1" parent="95xR3axD7flYYTFhlnDR-0" />
        <mxCell id="dJ0N67gBi4j8pMX1Wnlm-0" value="" style="group" parent="95xR3axD7flYYTFhlnDR-1" vertex="1" connectable="0">
          <mxGeometry x="80" y="550" width="600" height="460" as="geometry" />
        </mxCell>
        <mxCell id="dJ0N67gBi4j8pMX1Wnlm-1" value="" style="rounded=0;whiteSpace=wrap;html=1;" parent="dJ0N67gBi4j8pMX1Wnlm-0" vertex="1">
          <mxGeometry width="600" height="460" as="geometry" />
        </mxCell>
        <mxCell id="dJ0N67gBi4j8pMX1Wnlm-2" value="" style="rounded=0;whiteSpace=wrap;html=1;" parent="dJ0N67gBi4j8pMX1Wnlm-0" vertex="1">
          <mxGeometry y="80" width="600" height="380" as="geometry" />
        </mxCell>
        <mxCell id="dJ0N67gBi4j8pMX1Wnlm-3" value="模式名称" style="rounded=0;whiteSpace=wrap;html=1;" parent="dJ0N67gBi4j8pMX1Wnlm-0" vertex="1">
          <mxGeometry width="150" height="80" as="geometry" />
        </mxCell>
        <mxCell id="dJ0N67gBi4j8pMX1Wnlm-4" value="桥梁模式" style="rounded=0;whiteSpace=wrap;html=1;" parent="dJ0N67gBi4j8pMX1Wnlm-0" vertex="1">
          <mxGeometry x="150" width="240" height="40" as="geometry" />
        </mxCell>
        <mxCell id="dJ0N67gBi4j8pMX1Wnlm-5" value="Bridge Pattern" style="rounded=0;whiteSpace=wrap;html=1;" parent="dJ0N67gBi4j8pMX1Wnlm-0" vertex="1">
          <mxGeometry x="150" y="40" width="240" height="40" as="geometry" />
        </mxCell>
        <mxCell id="dJ0N67gBi4j8pMX1Wnlm-6" value="l类型" style="rounded=0;whiteSpace=wrap;html=1;" parent="dJ0N67gBi4j8pMX1Wnlm-0" vertex="1">
          <mxGeometry x="390" width="90" height="80" as="geometry" />
        </mxCell>
        <mxCell id="dJ0N67gBi4j8pMX1Wnlm-7" value="20" style="rounded=0;whiteSpace=wrap;html=1;" parent="dJ0N67gBi4j8pMX1Wnlm-0" vertex="1">
          <mxGeometry x="15" y="90" width="35" height="30" as="geometry" />
        </mxCell>
        <mxCell id="dJ0N67gBi4j8pMX1Wnlm-8" value="描述：将抽象和实现解耦，使得两者可以独立变化。" style="text;html=1;strokeColor=none;fillColor=none;align=left;verticalAlign=middle;whiteSpace=wrap;rounded=0;" parent="dJ0N67gBi4j8pMX1Wnlm-0" vertex="1">
          <mxGeometry x="30" y="400" width="540" height="30" as="geometry" />
        </mxCell>
        <mxCell id="1u23kyXkB2o4PIJ9exs--0" value="结构类" style="rounded=0;whiteSpace=wrap;html=1;" vertex="1" parent="dJ0N67gBi4j8pMX1Wnlm-0">
          <mxGeometry x="480" width="120" height="80" as="geometry" />
        </mxCell>
        <mxCell id="1u23kyXkB2o4PIJ9exs--1" value="&lt;p style=&quot;margin: 0px ; margin-top: 4px ; text-align: center&quot;&gt;&lt;b&gt;Abstraction&lt;/b&gt;&lt;/p&gt;&lt;hr size=&quot;1&quot;&gt;&lt;div style=&quot;height: 2px&quot;&gt;&lt;/div&gt;&lt;hr size=&quot;1&quot;&gt;&lt;div style=&quot;height: 2px&quot;&gt;+Operation()&lt;/div&gt;" style="verticalAlign=top;align=left;overflow=fill;fontSize=12;fontFamily=Helvetica;html=1;fillColor=#fff2cc;strokeColor=#d6b656;" vertex="1" parent="dJ0N67gBi4j8pMX1Wnlm-0">
          <mxGeometry x="120" y="150" width="140" height="60" as="geometry" />
        </mxCell>
        <mxCell id="1u23kyXkB2o4PIJ9exs--2" value="&lt;p style=&quot;margin: 0px ; margin-top: 4px ; text-align: center&quot;&gt;&lt;b&gt;Implementor&lt;/b&gt;&lt;/p&gt;&lt;hr size=&quot;1&quot;&gt;&lt;div style=&quot;height: 2px&quot;&gt;&lt;/div&gt;&lt;hr size=&quot;1&quot;&gt;&lt;div style=&quot;height: 2px&quot;&gt;+OperationImpl()&lt;/div&gt;" style="verticalAlign=top;align=left;overflow=fill;fontSize=12;fontFamily=Helvetica;html=1;fillColor=#fff2cc;strokeColor=#d6b656;" vertex="1" parent="dJ0N67gBi4j8pMX1Wnlm-0">
          <mxGeometry x="370" y="150" width="140" height="60" as="geometry" />
        </mxCell>
        <mxCell id="1u23kyXkB2o4PIJ9exs--3" value="&lt;p style=&quot;margin: 0px ; margin-top: 4px ; text-align: center&quot;&gt;&lt;b&gt;RefinedAbstraction&lt;/b&gt;&lt;/p&gt;&lt;hr size=&quot;1&quot;&gt;&lt;div style=&quot;height: 2px&quot;&gt;&lt;/div&gt;&lt;hr size=&quot;1&quot;&gt;&lt;div style=&quot;height: 2px&quot;&gt;&lt;/div&gt;" style="verticalAlign=top;align=left;overflow=fill;fontSize=12;fontFamily=Helvetica;html=1;fillColor=#fff2cc;strokeColor=#d6b656;" vertex="1" parent="dJ0N67gBi4j8pMX1Wnlm-0">
          <mxGeometry x="120" y="290" width="140" height="60" as="geometry" />
        </mxCell>
        <mxCell id="1u23kyXkB2o4PIJ9exs--4" value="&lt;p style=&quot;margin: 0px ; margin-top: 4px ; text-align: center&quot;&gt;&lt;b&gt;ConcreteImplementor&lt;/b&gt;&lt;/p&gt;&lt;hr size=&quot;1&quot;&gt;&lt;div style=&quot;height: 2px&quot;&gt;&lt;/div&gt;&lt;hr size=&quot;1&quot;&gt;&lt;div style=&quot;height: 2px&quot;&gt;&lt;/div&gt;" style="verticalAlign=top;align=left;overflow=fill;fontSize=12;fontFamily=Helvetica;html=1;fillColor=#fff2cc;strokeColor=#d6b656;" vertex="1" parent="dJ0N67gBi4j8pMX1Wnlm-0">
          <mxGeometry x="370" y="290" width="140" height="60" as="geometry" />
        </mxCell>
        <mxCell id="1u23kyXkB2o4PIJ9exs--5" value="1" style="endArrow=open;html=1;endSize=12;startArrow=diamondThin;startSize=14;startFill=0;edgeStyle=orthogonalEdgeStyle;align=left;verticalAlign=bottom;rounded=0;exitX=1;exitY=0.25;exitDx=0;exitDy=0;entryX=0;entryY=0.25;entryDx=0;entryDy=0;" edge="1" parent="dJ0N67gBi4j8pMX1Wnlm-0" source="1u23kyXkB2o4PIJ9exs--1" target="1u23kyXkB2o4PIJ9exs--2">
          <mxGeometry x="-1" y="3" relative="1" as="geometry">
            <mxPoint x="250" y="240" as="sourcePoint" />
            <mxPoint x="410" y="240" as="targetPoint" />
          </mxGeometry>
        </mxCell>
        <mxCell id="1u23kyXkB2o4PIJ9exs--6" value="+Impl" style="text;html=1;strokeColor=none;fillColor=none;align=center;verticalAlign=middle;whiteSpace=wrap;rounded=0;" vertex="1" parent="dJ0N67gBi4j8pMX1Wnlm-0">
          <mxGeometry x="304" y="140" width="60" height="30" as="geometry" />
        </mxCell>
        <mxCell id="1u23kyXkB2o4PIJ9exs--8" value="Extends" style="endArrow=block;endSize=16;endFill=0;html=1;rounded=0;edgeStyle=orthogonalEdgeStyle;exitX=0.5;exitY=0;exitDx=0;exitDy=0;entryX=0.5;entryY=1;entryDx=0;entryDy=0;" edge="1" parent="dJ0N67gBi4j8pMX1Wnlm-0" source="1u23kyXkB2o4PIJ9exs--3" target="1u23kyXkB2o4PIJ9exs--1">
          <mxGeometry width="160" relative="1" as="geometry">
            <mxPoint x="250" y="240" as="sourcePoint" />
            <mxPoint x="410" y="240" as="targetPoint" />
          </mxGeometry>
        </mxCell>
        <mxCell id="1u23kyXkB2o4PIJ9exs--9" value="Extends" style="endArrow=block;endSize=16;endFill=0;html=1;rounded=0;edgeStyle=orthogonalEdgeStyle;exitX=0.5;exitY=0;exitDx=0;exitDy=0;" edge="1" parent="dJ0N67gBi4j8pMX1Wnlm-0" source="1u23kyXkB2o4PIJ9exs--4" target="1u23kyXkB2o4PIJ9exs--2">
          <mxGeometry width="160" relative="1" as="geometry">
            <mxPoint x="200" y="300" as="sourcePoint" />
            <mxPoint x="200" y="220" as="targetPoint" />
          </mxGeometry>
        </mxCell>
      </root>
    </mxGraphModel>
  </diagram>
</mxfile>
